<?xml version="1.0" standalone="no"?>
<!DOCTYPE svg PUBLIC "-//W3C//DTD SVG 1.1//EN" "http://www.w3.org/Graphics/SVG/1.1/DTD/svg11.dtd" >
<svg xmlns="http://www.w3.org/2000/svg" xmlns:xlink="http://www.w3.org/1999/xlink" version="1.1">
<metadata>
Created by FontForge 20190801 at Sun Jan  1 21:06:25 2023
 By www-data
Copyright (c) 2020 by BrandSemut All Rights Reserved
</metadata>
<defs>
<font id="SVNSignatie" horiz-adv-x="0" >
  <font-face 
    font-family="SVNSignatie"
    font-weight="400"
    font-stretch="normal"
    units-per-em="2048"
    panose-1="2 0 5 0 0 0 0 0 0 0"
    ascent="1638"
    descent="-410"
    x-height="569"
    cap-height="1961"
    bbox="-1392.61 -1850 5194.41 3382"
    underline-thickness="150"
    underline-position="-292"
    unicode-range="U+001D-E270"
  />
<missing-glyph horiz-adv-x="874" 
d="M824 0h-824v1434h824v-1434zM50 1384v-1334q353 159 724 0v1334q-384 -118 -724 0zM319 334l57 58q10 10 20 10q9 0 22 -11l56 -60q9 -10 9 -20q0 -12 -10 -22l-56 -62q-14 -14 -21 -14q-11 0 -20 10l-61 71q-7 8 -7 18q0 9 11 22zM313 1191q53 30 112 30
q93 0 148.5 -47.5t55.5 -127.5q0 -48 -23 -99q-22 -49 -87 -129q-57 -73 -76 -98t-39 -64t-20 -69q0 -39 24 -133h-32q-35 99 -35 148q0 76 81 218q82 142 82 217q0 57 -33 90t-91 33q-11 0 -16 -1l32 -51q7 -11 5 -21q-2 -11 -14 -20l-66 -50q-18 -11 -24 -10q-9 1 -17 14
l-47 81q-4 10 -3 19q1 10 28 32q32 25 55 38z" />
    <glyph glyph-name="ee" unicode="ee" horiz-adv-x="1609" 
d="M1621 497q7 -7 -8 -18h-1q-256 -161 -488 -258q-231 -96 -355 -86q-80 4 -114 55q-37 73 19 185q7 15 25 45q7 12 0 11l-11 -6q-210 -106 -382 -155q-173 -49 -274 -38q-67 4 -102 38v1q-2 2 -5 6.5t-4 7.5q-21 42 -9 78q10 30 28 58q1 1 3 4l4 6q1 1 1 3q14 21 31 41
q31 37 60 66l17 17h1v1l3 3q2 1 5 3.5t4 4.5l1 1q12 10 17 15t10 9l1 1q76 65 188 107q79 29 123 10q31 -13 40 -44q1 -3 1 -9q0 -35 -46 -65q-26 -18 -74 -36q-4 -1 -12 -5q-2 0 -3 -1t-5 -2t-5 -1q-2 0 -5.5 -1t-4.5 -2q-18 -7 -32 -11q-79 -24 -149 -39q-43 -11 -86 -55
l-1 -1q-1 -1 -2 -1q0 -1 -1 -2l-4 -4l-3 -3q-1 -2 -5 -6v-1l-1 -1q-11 -11 -18 -24q-43 -63 -3 -103q44 -32 105 -32q93 0 252 45t357 144q35 19 43 33h1q64 72 105 105l6 6q1 1 2 1q23 20 59 48q207 148 303 114q25 -10 36 -31.5t2 -47.5q-23 -66 -156 -116
q-126 -46 -231 -68q-43 -10 -89 -57l-6 -6q-60 -69 -76 -145q-1 -53 40 -81q40 -27 98 -27q112 0 314 83q198 83 456 233q8 3 10 0zM883 529q-21 -17 -1 -13q65 16 129 38q130 45 119 76v1q0 1 -1 2q-7 10 -28 8q-15 -1 -38 -9h-1l-6 -2l-1 -1q-26 -9 -62 -30
q-57 -31 -110 -70zM123 529q-21 -17 0 -13q65 16 129 38l10 4q10 4 15 5l1 1q16 8 24 14t7 10v2q-3 14 -28.5 11t-56.5 -15t-57 -27l-1 -1h-1q-14 -8 -20 -14l-6 -4q-9 -5 -16 -11z" />
    <glyph glyph-name="gg" unicode="gg" horiz-adv-x="2454" 
d="M2458 479q-3 -1 -3 -3q-289 -149 -530 -290q-91 -54 -103 -102q-1 -1 -1 -5q0 -1 -0.5 -3.5t-1.5 -3.5t-1 -3q-1 -1 -1 -2q-1 -2 -1 -3v-1q0 -1 -0.5 -3.5t-1.5 -3.5q-4 -10 -5 -15q-260 -838 -729 -1364q-397 -433 -787 -516q-54 -10 -107 -10q-117 0 -190 53t-91 152
q-27 147 113 374q140 224 486 527q350 303 931 671q1 0 1 1l2 1l45 27q20 13 60 37l114 68q57 35 65 68q55 225 41 334q-13 106 -57 129q-118 75 -377 -113q-28 -21 -76 -72q-54 -57 -90 -101q-83 -105 -142.5 -158t-112.5 -55h-2q-59 1 -76 75q-16 79 25 163q42 83 116 152
q12 12 2 12q-5 0 -13 -4q-70 -32 -212 -100q-95 -46 -159 -80q-68 -41 -96 -96q-100 -265 -232 -496q-283 -481 -715 -815q-163 -125 -264 -125q-30 0 -50 9q-98 48 -35 244q47 145 189 345q139 197 375 416q234 217 555 413q90 59 120 159q6 24 27 105q29 128 9 148
q-27 9 -86 -41q-56 -47 -133 -126q-92 -94 -175 -164q-88 -74 -154 -85q-23 -2 -36.5 20t-10.5 67q7 65 57 136t124 120q92 62 187 57q34 -4 73 7.5t65 34.5q45 42 79 60t65 12q56 -16 61 -85q4 -64 -16 -147q-1 -2 -1.5 -5.5t-0.5 -5.5q-1 -1 -1 -3q-16 -70 -31 -115v-1
q0 -2 -1 -3q-1 -2 -1 -5q-4 -17 8 -16q9 1 30 10q51 25 159 75q18 8 98.5 44.5t124.5 56.5q124 55 184 81h1l1 1h1l1 1q119 50 205 12q14 -8 18 -19h1q4 -7 30 9q90 66 193 94q102 27 197 -21q157 -87 66 -469q-4 -22 7.5 -23t26.5 11v1q275 153 565 300v1h1q13 8 15 -2
q1 -8 -11 -15zM1690 2q6 21 0 25t-17 -4q-33 -20 -91 -55.5t-79 -48.5q-4 -2 -5 -3q-405 -252 -744 -522q-337 -269 -538 -495q-294 -334 -238 -560q21 -82 104.5 -119t203.5 -16q117 19 295 121q176 100 377 307q202 207 392 543q192 339 340 827zM368 144q8 22 0.5 26.5
t-23.5 -5.5q-169 -101 -321 -220q-148 -117 -251 -213q-217 -208 -343 -397q-122 -181 -161 -301q-22 -59 -17.5 -112t38.5 -76q17 -11 67 11t124 79q234 183 407 399q175 217 293 428q122 218 187 381zM1227 440q33 35 13 45q-52 25 -131 -21q-5 -2 -18 -10q-8 -3 -17 -8
q-54 -32 -106 -98q-54 -66 -73 -128q-20 -62 28 -82q49 4 111 72q64 70 101 123q3 3 6.5 8t6 8.5t4.5 5.5q23 30 75 85zM144 393q4 3 11 10q60 56 76 73q29 30 18 33q-35 1 -81 -16q-36 -14 -65 -31q-46 -32 -78 -77q-33 -47 -37 -84v-2q17 -20 59 11q51 37 97 83z" />
    <glyph glyph-name="ll" unicode="ll" horiz-adv-x="1778" 
d="M1779 497q3 2 6.5 2.5t6 -1t4 -3.5t0 -5.5t-6.5 -8.5q-399 -355 -669 -569q-256 -203 -403 -287q-145 -83 -205 -80q-41 0 -63 19q-118 88 159 571q275 478 910 1382q5 9 11 16l18 26q18 26 50 74t35 52q119 176 254 370q92 134 150 229q-9 -11 -26.5 -33.5t-25.5 -32.5
q-153 -196 -319 -405q-208 -262 -417 -518q-223 -274 -452 -542q-217 -254 -427 -477q-199 -210 -339 -321q-140 -112 -190 -77q-34 27 -38 84t23.5 146.5t83 208.5t141.5 275q362 661 962 1468q219 292 336 299q60 3 80 -48q17 -44 -15 -123t-127.5 -212t-172.5 -231
t-231 -288q-39 -49 -119 -147l-4 -6q-318 -395 -656 -780h-1v-1q-24 -28 -53 -80q-101 -193 -147 -301q-45 -106 -46 -147q-2 -46 17 -63q32 -33 156 70q125 104 312 300q175 185 406 449q221 252 441 516q235 281 414 502q186 230 326 407q129 164 177 230q-7 12 12 40.5
t52 36.5q23 5 41.5 -2t25.5 -23q13 -28 -20 -86q-31 -52 -122 -177q-30 -41 -130 -182q-1 -2 -113 -159q-167 -234 -210 -295q-236 -335 -510 -728q-249 -357 -355 -527q-103 -170 -170.5 -298.5t-93.5 -194t-31 -110.5t-0.5 -55t13.5 -19l1 -1q52 -39 199 39
q141 73 344 223q206 152 394 309q204 171 347 300zM133 595q-7 -11 -4 -11q3 1 9 7q204 243 420 518q129 162 166 207l8 10q70 87 199 252q132 171 214 287q104 145 155 243q53 101 20 122q-60 -18 -214 -210q-151 -187 -346 -465q-179 -255 -364 -536q-170 -262 -263 -424z
" />
    <glyph glyph-name="oo" unicode="oo" horiz-adv-x="1519" 
d="M1520 497q4 2 9 0.5t5.5 -5.5t-7.5 -9q-123 -79 -281 -135q-160 -56 -294 -56q-24 0 -35 1q-26 -1 -36 -18q0 -1 -1 -2l-2 -2q-156 -215 -291 -240q-5 -1 -15 -1q-44 0 -62 35q-28 58 55 177q34 46 77 94q11 12 26 19q11 5 5 11q-41 54 -13 125q3 8 0 8q-3 -1 -7 -5
q-77 -69 -190 -134q-104 -60 -195 -68h-29q-2 1 -6 1q-26 -1 -35 -18q-5 -10 -24 -29l-1 -1q-1 -1 -1 -2l-3 -3q-118 -129 -215 -145q-5 -1 -15 -1q-44 0 -62 35q-13 26 -2 68q4 17 14 38l1 1q0 2 1 2q1 1 1 2l1 1v1q11 19 13 22q31 50 58 77v1q9 8 21 13q10 5 4 11
q-3 5 -9 13q-8 22 -8 40q0 11 1 16q11 49 45 84q33 35 54 49q56 38 108.5 51.5t94.5 -3.5q63 -30 36 -140v-1h-1v-1q-3 -11 -16 -39q-3 -8 -8 -16q-8 -16 -34 -60v-1q-5 -9 -13 -20q-10 -18 2 -18q9 -1 29 -1q91 -1 202.5 65t205.5 151q6 5 21.5 21t16.5 17q61 63 136 95
q76 33 132 9q115 -61 -61 -339q-10 -18 1 -18q9 -1 30 -1q88 -1 180 18t168 51t127 57.5t91 51.5zM884 343q29 50 46 93.5t21 72t0 49.5t-13 31t-21 11q-31 3 -72 -27q-41 -29 -73 -70q-20 -26 -29 -61l-1 -1v-4q-21 -73 94 -105h1q3 0 5 -1h1q1 -1 4 -1h1q2 0 3 -1h3l1 -1
q19 -3 29 15zM843 280q7 11 5.5 13.5t-11.5 3.5q-49 5 -79 14h-1q-7 3 -9 -5t-10 -16q-12 -13 -37 -30v-1q-3 -2 -9.5 -7t-9.5 -7q0 -1 -1 -1t-2 -1l-1 -1l-15 -12q-122 -105 -96 -149q2 -3 7 -8q62 -14 135 52q74 66 134 155zM215 369l2 4q27 55 27 107q-8 56 -36 59
q-31 3 -75 -29h-1l-1 -1q-1 -1 -1 -2l-4 -2v-1q-1 0 -2 -1l-8 -6l-3 -3q-21 -17 -41 -46q-20 -27 -12 -54q1 -1 1 -2t0.5 -1.5t0.5 -1.5t1 -1l1 -2l1 -1v-1q13 -31 88 -52q4 0 5 -1h1q1 -1 4 -1h1q2 0 3 -1h3l1 -1q20 -3 30 15q2 4 6.5 12t6.5 12q0 1 1 2zM160 280
q10 17 -6 17h-1q-48 5 -78 14h-2q-8 5 -8 -5h-1q-1 -3 -3 -7v-1q-2 -3 -7 -8v-1l-4 -4q-15 -11 -30 -20q-13 -7 -39 -25q-20 -15 -35 -35q-2 -3 -5 -8.5t-4 -7.5q-7 -15 -7 -29q0 -5 1 -7v-1q9 -18 41 -17h6q58 13 121 75l7 7q46 51 51 59l1 1q0 1 1 1z" />
    <glyph glyph-name="rr" unicode="rr" horiz-adv-x="1751" 
d="M1752 497q12 6 16 -2q5 -8 -16 -22q-22 -15 -60 -40.5t-68.5 -46t-57.5 -38.5q-315 -219 -493 -312q-150 -74 -218 -74q-40 0 -59 22q-26 31 -7 83v1h1q24 63 110 153q9 10 31 32q2 3 5 6q52 57 56 80q1 24 -21.5 39t-65.5 29q-45 14 -79 36t-31 68q5 35 21 66q3 7 0.5 8
t-7.5 -3q-89 -69 -245 -199q-157 -134 -286 -231q-134 -100 -210 -114q-40 -1 -59 23q-8 9 -13 25v1q-1 3 -1 8v6q5 50 47 110q37 53 76 97q4 5 9.5 11.5t6.5 7.5q13 15 22 32q4 9 6 15v7q0 2 -1 3q-5 23 -56 39q-9 4 -17 5q-36 11 -65 27q-12 8 -22 21q-7 14 -4 35
q1 11 7 33q16 53 97 105t111 40q15 -8 19 -21q3 -8 3 -16q0 -2 1 -3q6 -31 -20 -59q-16 -16 -32 -28l-1 -1h-1q-27 -19 -49 -25q-29 -9 -36 -22q-2 -3 0 -6q1 -3 6 -8q20 -17 61 -37l4 -2q4 -2 5 -3q1 0 2 -1t2 -1q26 -14 43 -28q34 -29 13 -91q-8 -20 -47 -67
q-32 -39 -88 -99l-1 -1q-52 -52 -41 -75q31 -51 204 69q87 62 334 262q135 110 282 225q28 24 51 40l1 1q20 13 50 30l2 1q24 12 44.5 7.5t28.5 -23.5q8 -23 -3 -57q-9 -34 -37 -52l-2 -1q-7 -4 -21 -11t-21 -11q-34 -14 -51 -27.5t-22 -35.5q-1 -8 17 -21t54 -30
q108 -54 105 -131q-4 -44 -46 -93q-41 -48 -90 -93q-95 -88 -89 -117q42 -57 271 70q215 119 635 400z" />
    <glyph glyph-name="ss" unicode="ss" horiz-adv-x="1717" 
d="M1723 499q6 2 9 0.5t2 -5.5v-3q0 -4 -3 -7l-6 -4l-8 -3q-61 -27 -232 -114q-62 -32 -166 -85t-140 -72q71 -113 12 -268q-91 -207 -368 -350l-2 -2q-1 -1 -3 -1l-1 -1h-1q-25 -12 -62 -27h-1l-1 -1q-105 -41 -213 -53q-36 0 -61 7q-55 12 -70 55q-14 41 22 114
q78 146 245 269t370 221l6 3l6 2l2 2q2 0 3 1t2 1q2 1 3 1q24 15 10 24q-52 42 -104 58l-24 9q-151 44 -221 90q-23 13 -41 1q-251 -137 -473 -296l-36 -24q-22 -15 -13 -29h1v-1l1 -1q31 -34 25 -91q-8 -60 -61 -125q-2 -3 -6 -7q-1 -2 -4 -5.5t-5 -4.5q-96 -96 -187 -81
q-4 0 -6 1h-1q-46 11 -53 52v4q-4 29 10 59v1q4 8 14 24q31 48 74 82l4 4q31 28 47 41q2 1 5 4q7 6 23 18q28 24 18 39l-14 18q-11 14 -44 61q-16 24 -36 51q-91 135 -28 263q78 158 378 267q24 9 42.5 0t22.5 -30q3 -27 -7.5 -55t-32.5 -37q-131 -47 -210.5 -87.5
t-109.5 -83.5q-69 -107 39 -254q2 -4 3 -5q23 -33 48 -62q18 -21 39 -9l18 12q240 162 499 302q21 14 14 25l-1 1q-28 40 -12 96q22 66 98 108q77 44 158 66q80 23 125 31q28 4 45.5 -7.5t16.5 -34.5q-5 -46 -27.5 -70.5t-48.5 -27.5q-123 -12 -188.5 -34.5t-67.5 -50.5
q0 -17 22 -36v-1q2 0 3 -1q8 -8 22 -16h1q56 -38 199 -96q39 -15 71 -39q28 -20 50 -45q1 -1 13 -16q5 2 10 5l8 4q8 1 15 6h2l3 2q25 12 76.5 38t76.5 38q38 20 83 42q173 85 285 136zM1134 -50q24 60 21 112t-28 93q-9 16 -33 7q-16 -8 -25 -13q-1 -1 -4 -1l-1 -1
q-253 -121 -419 -262t-176 -270q6 -62 91 -56q86 6 202 61q120 57 221 142q105 85 150 185q1 1 1 3zM-46 -247q46 -6 100.5 58.5t54.5 107.5q-1 25 -9 45q-7 18 -22 3q-31 -23 -67 -55l-2 -2l-1 -1q0 -1 -1 -1l-1 -2l-1 -1q-1 -1 -2 -1l-10 -10q-28 -26 -51 -70
q-33 -61 12 -71z" />
    <glyph glyph-name="tt" unicode="tt" horiz-adv-x="1220" 
d="M4325 1861q34 -70 -43 -172q-17 -21 -40.5 -28t-41.5 3q-38 22 -7 62q20 25 33 34q25 18 26 37q3 16 -14.5 32.5t-55.5 33.5q-76 35 -267 56q-189 21 -536 10q-574 -20 -1588 -131q-17 -6 -37 -31h-1v-1q-53 -65 -169 -210q-29 -36 -105.5 -130.5t-121.5 -150.5
q-370 -523 -584.5 -836t-351.5 -538q-154 -256 -223 -401q-69 -148 -83 -212q-15 -68 -9 -92q0 -18 10 -31t36 -5q32 10 43 2t0 -35q-10 -25 -29.5 -40.5t-42.5 -15.5q-34 0 -52.5 15.5t-28.5 52.5q-19 58 27 202q47 143 204 426q152 273 467 757q292 450 812 1196
q24 34 23.5 42t-24.5 8l-1 1q-36 2 -118 -1q-87 -2 -195 -6q-21 -1 -92 -3.5t-106 -4.5q-70 -5 -101 -52q-154 -207 -285 -384q-123 -165 -156 -212q-434 -620 -653 -989q-268 -444 -257 -559q1 -6 1 -7t2 -8t4 -8t6.5 -5.5t10 -2.5t13.5 2q22 8 25 -2t-8 -32
q-20 -45 -57 -45q-54 0 -64 55q-16 46 20 160q36 113 159 336q118 217 364 599q250 385 640 945q12 17 44.5 64t50.5 72l1 1q1 1 1 2q1 1 2.5 3.5t2.5 3.5l6 8q12 19 10 27.5t-14 8.5t-28 -1q-663 -49 -961 -33q-188 14 -256 40q-69 27 -68 70q-9 101 196 215q23 13 44 9
t29 -23q7 -21 -3 -43t-33 -35l-8 -4q-1 -1 -2 -1q-10 -6 -18.5 -12t-23 -19.5t-21.5 -26.5t-5.5 -31t16.5 -34q37 -43 178 -52q137 -9 406 -1q263 7 555 30q75 6 100 48q164 233 251 350q113 153 158 193q20 16 44 16.5t34 -10.5q6 -8 8 -12q8 -68 -55 -132
q-26 -27 -98 -120v1q-18 -24 -71 -95q-12 -16 -59 -79t-77 -104q-13 -19 -12.5 -28t10.5 -9h21q428 19 515 16q26 1 46.5 13.5t46.5 49.5q200 287 390 546q188 258 257 322q26 20 50.5 21.5t35.5 -11.5q21 -17 6 -58q-1 -13 -11 -26q-23 -47 -76 -132q-97 -155 -238 -355
q-109 -151 -244 -320l-1 -1v-1h-1v-1l-1 -1l-4 -6q-7 -9 5 -9h2q4 -1 12 0h1q976 117 1537 140q376 13 573 -3q197 -15 275 -50q78 -34 91 -77zM1795 1860q241 328 392 573q-130 -166 -418 -573q-12 -18 -1 -18h2q1 1 4 1q10 3 21 17zM1737 1782q2 3 2.5 5t-1.5 3t-6 1
q-13 -1 -22 -16q-139 -196 -154 -218q-6 -8 -6 -11q1 -1 8 6q117 148 179 230z" />
    <glyph glyph-name="th" unicode="th" horiz-adv-x="1696" 
d="M3594 1856q34 -69 -43 -173q-17 -21 -40 -28t-42 3q-37 22 -7 63q19 23 34 33q22 18 26 38q5 31 -71 65q-76 35 -267 56q-185 22 -536 11q-369 -14 -918 -63q-46 -6 -62 -30q-284 -349 -738 -1069q-5 -8 -57 -85q-31 -46 -103 -154l-100 -150q-39 -56 -46 -67
q-24 -34 -35 -51q-119 -171 -160 -231q-36 -56 -17 -43q7 5 21 19q17 18 58 59q72 75 121 123t122 111.5t133.5 96t106.5 32.5q20 0 32 -12.5t10 -32.5q-2 -37 1 -99q3 -67 18 -127q17 -60 52 -67q58 -10 206 75q150 86 397 332q10 10 16.5 4t-8.5 -22q-218 -224 -390 -341
q-169 -113 -278 -91q-94 22 -112 235q-4 50 -12 61q-37 18 -117 -41q-78 -57 -173 -151q-94 -93 -174 -177q-119 -127 -135 -131q-2 0 -3 -1q-8 0 -12 0.5t-10.5 4t-4.5 14t11 27.5q4 9 55 84q90 136 243 372t279 438q415 657 716 1045q9 15 3.5 20t-22.5 4
q-199 -19 -501 -53q-18 -5 -38 -30v-1q-97 -120 -168 -208q-60 -74 -228 -283q-359 -506 -579 -826.5t-358 -547.5q-157 -260 -222 -401q-69 -148 -83 -212q-16 -67 -10 -92q1 -8 2.5 -13.5t6.5 -15t13.5 -10t23.5 1.5q32 11 43 3t0 -35q-9 -24 -28.5 -40t-42.5 -16
q-35 0 -53.5 15.5t-28.5 52.5q-20 59 28 202q47 142 204 426q159 284 466 757q292 450 812 1196q32 46 19 50q-5 2 -21 0q-22 -3 -65 -7.5t-63 -6.5q-772 -94 -1070 -83q-186 7 -258 32q-70 25 -71 68q-12 101 190 219q23 14 44 10.5t30 -22.5q8 -20 -1.5 -42t-32.5 -36
l-10 -6q-8 -5 -17.5 -12t-22.5 -20.5t-20 -27t-5 -30.5t17 -33q38 -41 181 -47q336 -7 1051 76q98 12 146 17q27 3 47 15.5t46 48.5q199 286 390 546q188 258 257 322q26 20 50.5 21.5t35.5 -12.5q21 -16 7 -57q-1 -14 -11 -27q-24 -47 -77 -131q-85 -137 -238 -355
q-105 -146 -244 -321h-1v-1l-2 -2q-9 -14 2 -16h2q6 0 11 1h2q334 38 464 52q66 8 84 35l1 1q0 2 1 2q1 1 3 4q183 235 317 391l1 1q22 22 55 21q28 -1 41.5 -18.5t1.5 -46.5l-7 -14q-2 -4 -3 -5q-3 -9 -6.5 -13.5t-5.5 -5t-3 0.5q-6 0 -14 -5q-105 -85 -291 -305
q-11 -14 -7.5 -19.5t19.5 -4.5q525 55 885 69q376 13 574 -3q201 -17 275 -50q77 -35 90 -77zM1044 1838q10 3 20 16q243 331 392 574q-122 -156 -418 -574q-13 -17 0 -17h1q3 0 5 1zM1006 1777q4 4 3 7t-7 2q-14 -1 -23 -16q-30 -43 -83.5 -119t-70.5 -100q-6 -9 -5 -10
t7 6q117 148 179 230z" />
    <glyph glyph-name="st" unicode="st" horiz-adv-x="1419" 
d="M4525 1861q32 -70 -44 -172q-17 -21 -40 -28t-41 3q-38 21 -8 62q22 26 34 34q25 18 26 37q5 32 -71 66q-76 35 -267 56q-188 21 -535 10q-574 -20 -1588 -131q-16 -5 -38 -31v-1q-53 -65 -169 -210q-95 -116 -227 -281q-370 -523 -584.5 -836t-351.5 -538
q-154 -256 -223 -401q-69 -148 -83 -212q-15 -68 -9 -92q0 -18 10 -31t36 -5q64 21 42 -33q-9 -24 -28.5 -40t-42.5 -16q-34 0 -52.5 15.5t-28.5 52.5q-16 52 15 166q32 112 143 327q109 210 327 559q214 344 566 863q5 8 3.5 9t-7.5 -5q-358 -338 -673 -624
q-343 -313 -438 -394q-20 -18 -13 -28l1 -1v-1h1q31 -34 25 -91q-8 -59 -61 -126q-2 -3 -6 -7l-10 -10q-96 -96 -186 -81q-5 0 -7 1q-47 11 -53 53v2l-1 1q-3 30 11 59v1q4 9 14 25q27 40 73 81l2 2l1 1q1 1 2 1q10 9 25.5 23t21.5 19q4 2 5 3q3 3 11 9t12 10q30 22 17 39
q-2 2 -6 8t-7 9q-24 32 -45 61q0 1 -13.5 20.5t-21.5 30.5q-91 135 -28 263q79 159 378 268q25 8 43 -0.5t21 -30.5q3 -26 -7 -54t-32 -38q-268 -94 -320 -171q-24 -38 -27 -79.5t12 -78.5t27 -57.5t26 -37.5q2 -3 4 -5q25 -37 48 -63q18 -20 39 -8q106 75 460 395
q340 309 713 667q33 34 72 86q106 155 352 510q34 46 20 51q-7 2 -21 0q-63 -7 -129 -15q-771 -94 -1069 -83q-187 7 -259 32q-70 25 -71 68q-4 33 14 66.5t49.5 61t60 48t55.5 37.5q9 5 12 7q23 13 44 9.5t30 -22.5q8 -20 -1.5 -42t-32.5 -36l-10 -6q-8 -5 -18 -12
t-23 -20.5t-20 -27t-5 -30.5t17 -32q40 -42 182 -47q346 -8 1050 76q55 5 147 17q26 1 46.5 13.5t46.5 49.5q200 287 390 546q188 258 257 322q26 20 50.5 21.5t35.5 -11.5q20 -17 6 -58q-1 -13 -11 -26q-19 -40 -77 -132q-85 -137 -238 -355q-102 -144 -243 -320h-1v-1
l-1 -1v-1l-1 -1l-4 -6q-7 -9 5 -9h2q4 -1 12 0h1q976 117 1537 140q375 13 573 -3q197 -15 275 -50q78 -34 91 -77zM-47 -247q46 -6 101.5 58.5t53.5 107.5q0 23 -8 44q-8 16 -23 3q-31 -24 -66 -55l-4 -4q-1 0 -2 -1q-1 0 -1 -1t-1 -2q-3 -2 -5 -5l-2 -1q-2 -1 -2 -2v-1
l-1 -1q-28 -26 -51 -70q-34 -63 11 -70zM1994 1860q248 336 393 573q-130 -166 -418 -573q-12 -18 -1 -18h2q1 1 4 1q11 3 20 17zM1937 1782q2 3 2.5 5t-1.5 3t-6 1q-13 -1 -22 -16q-139 -196 -154 -218q-6 -8 -6 -11q1 -1 8 6q117 148 179 230z" />
    <glyph glyph-name="at2" unicode="at" horiz-adv-x="1469" 
d="M4575 1861q32 -70 -44 -172q-17 -21 -40 -28t-42 3q-37 21 -7 62q22 26 34 34q25 18 26 37q5 32 -70 66q-76 35 -267 56q-189 21 -536 10q-564 -18 -1574 -130q-32 -4 -46 -26q-56 -69 -175 -216q-106 -131 -228 -282q-362 -509 -581 -828t-358 -546q-154 -256 -223 -401
q-69 -146 -84 -212q-15 -67 -10 -92q6 -48 47 -36q63 21 42 -33q-9 -24 -28.5 -40t-42.5 -16q-35 0 -53.5 15.5t-27.5 52.5q-17 50 12 157q29 104 129 302q98 193 293 509q205 331 508 782q14 17 12 23q-2 5 -23 -18q-304 -340 -561 -570t-377 -248q-51 -3 -79 21
q-81 66 -27 233h-1q12 32 0 30q-6 -2 -15 -11q-90 -83 -155 -125q-139 -91 -203 -62q-50 25 36 146q1 1 3 5l4 5q1 0 1 1t1 2q58 78 178 201q84 88 158 139q77 54 129 29q45 -28 25 -108q-2 -12 8 -17q19 -13 -6 -59l-1 -1q-86 -170 -106 -257q-19 -82 -1 -102
q67 -81 383 183q318 267 822 862q59 85 371 535q17 27 10 36.5t-34 5.5q-36 -4 -110 -12q-772 -94 -1069 -83q-187 7 -259 32q-70 25 -71 68q-4 33 14 66.5t49.5 61t60 48t55.5 37.5q9 5 12 7q23 13 44 9.5t30 -22.5q8 -20 -1.5 -42t-32.5 -36l-10 -6q-8 -5 -18 -12
t-23 -20.5t-20 -27t-5 -30.5t17 -32q40 -42 182 -47q346 -8 1050 76q78 8 116 13q91 14 120 62l1 2q1 2 2 2l1 1q181 260 391 546q191 259 258 322q26 20 50 21.5t35 -11.5q21 -16 7 -58q-1 -13 -11 -26q-27 -53 -77 -132q-89 -142 -239 -355q-94 -132 -251 -328h1
q-6 -8 -1.5 -11t14.5 0q997 118 1543 140q376 13 574 -3q197 -15 275 -50q77 -35 90 -77zM190 467q44 74 32 87v1q-2 0 -3 1q-26 2 -93 -49q-63 -46 -140 -120q-73 -70 -115 -124v-1l-3 -3q-9 -11 -13 -18t-10.5 -19t-1 -17.5t22.5 -3.5q58 9 136 61q80 52 153 123
q20 24 19 35q4 23 16 47zM2041 1855q254 344 397 578q-132 -167 -421 -576q-11 -15 0 -15h1q14 1 23 13zM1984 1779q5 7 4 10t-9 2q-13 -4 -26 -25l-1 -1q-144 -203 -189 -268q120 147 221 282z" />
    <glyph glyph-name="jj" unicode="jj" horiz-adv-x="1409" 
d="M1410 497q9 2 10 -7q1 -10 -17 -18q-1 0 -2 -1q-268 -117 -538 -294q-55 -37 -71 -65t-19 -50v-4h-1v-1q-70 -330 -240 -639q-111 -200 -270 -399q-162 -203 -331 -362q-168 -159 -322 -254q-149 -91 -240 -75q-65 17 -54 100q11 82 60 192t108 207q62 103 90 146
q98 155 302 395q208 243 547 524l1 1q78 64 161 125q76 56 85 107q26 160 31 330q0 33 -41 12q-255 -123 -507 -290q-84 -55 -90 -115q-1 -1 -1 -4v-1q-11 -53 -32 -128q-16 -58 -41 -133q-8 -24 -13 -36q-36 -90 -94 -196q-44 -82 -86 -146q-65 -102 -139 -200l-1 -1
q-82 -107 -160 -192q-1 -2 -5 -6q0 -1 -1 -2q-150 -166 -276 -257q-128 -93 -200 -77q-50 17 -38 99t58 190q46 110 97 205q89 170 197 311q27 36 60 76q129 154 235 248q123 109 170 145q1 1 4 3l2 1q2 1 2 2q48 36 73 55q75 58 84 107q31 185 33 372q1 8 20 19t47 16
q3 1 12 1q34 -1 42 -13.5t1 -39.5q-2 -11 -4 -31v-2q-5 -133 -22 -251q-2 -17 4.5 -20.5t19.5 5.5l1 1q1 1 2 1l1 1h1q319 207 618 338q13 7 35 10q3 1 12 1q34 -1 42 -13.5t2 -40.5q-2 -10 -4 -30v-2q-5 -136 -23 -251q-2 -17 5 -20.5t20 5.5l2 2q1 1 2 1q297 191 584 313z
M-373 -1522q411 317 666.5 703t350.5 818q5 32 -20 10q-53 -39 -155 -121h-1q-244 -201 -468 -441q-225 -243 -389 -489q-151 -234 -203 -383q-54 -150 -30 -182q16 -18 47 -18t83.5 26.5t118.5 76.5zM-159 -312q58 156 92 311q2 16 -4 17.5t-17 -7.5q-32 -24 -48 -37l-2 -2
q-1 -1 -3 -2.5t-4.5 -3t-3.5 -2.5q-65 -51 -108 -87.5t-131.5 -122t-159.5 -171t-162 -218.5t-169 -281h-1q-60 -131 -84.5 -221t-11.5 -113q12 -19 37 -18.5t68.5 27t99.5 76.5q90 81 187 184v1h1q188 214 288 391q97 174 124 248l1 1v1l2 4q2 4 4.5 12t3.5 11q0 1 1 2z
M737 651q-24 4 -4 39q4 8 10 24q15 55 64 55q15 0 23 -1.5t17.5 -7t8 -17.5t-5.5 -33q-16 -39 -51 -51q-36 -12 -62 -8zM26 651q-24 3 -4 39q4 8 10 24q6 25 23 40t41 15q15 0 22.5 -1t17 -7t8 -18t-5.5 -33q-15 -39 -51 -51t-61 -8z" />
    <glyph glyph-name="ff" unicode="ff" horiz-adv-x="1699" 
d="M1702 497q13 3 14.5 -5.5t-15.5 -15.5l-4 -2q-125 -41 -360 -131q-218 -82 -496 -212q-44 -20 -19 -40q20 -15 32 -35q105 -170 -261 -678q-56 -80 -215 -276q-149 -184 -323 -387q-169 -197 -255 -281q-119 -116 -192 -146q-1 -1 -2 -1h-1q-1 -1 -2 -1q-2 -1 -3 -1
q-40 -9 -52 15q-14 26 10 86.5t91 173.5q4 8 43 75q97 173 216 364q161 254 337 542q13 20 37 60q211 344 562 900q335 528 718 1084q9 13 4.5 14t-13.5 -5q-104 -86 -256 -237q-129 -126 -343 -344q-314 -321 -556 -553q-265 -255 -406 -329q-25 -12 -29 -22q-3 -7 9 -18
q19 -13 32 -35q19 -34 -2 -84.5t-75 -123.5q-59 -85 -136 -191q-21 -29 -101.5 -140.5t-128.5 -177.5l-2 -2q-145 -201 -253 -342q-1 -1 -1 -2l-3 -3l-8 -10l-12 -16q-100 -125 -184 -206q-60 -57 -99 -70q-35 -12 -52 14q-14 26 10 86.5t90 174.5q66 112 128 217
q75 126 142 232q7 12 35 57.5l44 71.5l33 54q279 456 649 1036l5 7v1q1 1 1 2q22 34 64 97.5t55 83.5q173 270 373 563q15 21 37.5 29t44.5 1q30 -11 33 -34t-15 -43q-194 -261 -490 -692l-8 -12q-178 -263 -317 -471q-23 -37 56 -4q89 40 251 174q148 123 355 319
q176 167 395 379q278 271 451 430q198 183 272 213q24 8 44 1q29 -12 32.5 -34.5t-15.5 -43.5q-368 -501 -992 -1434q-14 -21 9 -19q16 1 48 15q290 119 533 203q256 88 402 135zM564 -597q141 201 182 322q44 122 33 184q-9 63 -22 79q-27 42 -93 35q-48 -2 -92 -68
q-265 -400 -504 -776q-240 -379 -364 -597q-134 -236 -116 -261q33 -21 132 69q103 94 230 241q130 151 261 315q153 191 227 290q94 121 126 167zM-152 -185q84 134 59 173q-25 42 -92 35q-48 -2 -92 -68q-167 -252 -355 -543q-175 -280 -288 -478q-108 -189 -93 -211
q25 -17 84 44q116 111 281 339q1 1 4.5 6t5.5 8q51 70 199 279q196 281 233 335q23 33 34 49v1q7 8 13 19q1 2 3.5 6t3.5 6z" />
    <glyph glyph-name="att" unicode="att" horiz-adv-x="2142" 
d="M4574 1860q34 -70 -43 -172q-17 -21 -40 -28t-42 3q-38 22 -7 62q20 25 34 34q25 18 26 37q5 32 -71 66q-76 35 -267 56q-188 21 -535 10q-347 -12 -852 -57q-74 -9 -109 -63l-78 -104v-1q-2 -3 -6 -7q-23 -31 -25 -34q-4 -6 -5 -7t-1 -2q-85 -114 -263 -355
q-122 -166 -140 -191q-441 -629 -654 -989q-272 -450 -256 -559q0 -8 2 -15.5t11 -13t23 -0.5q23 8 25.5 -2t-8.5 -32q-7 -19 -22.5 -32t-33.5 -13q-55 0 -65 55q-16 46 20 160q35 110 158 336q122 222 365 599q250 385 640 945q38 54 58 83q8 12 53 75q33 48 80 113
q9 16 4.5 24t-20.5 7q-307 -31 -475 -50q-31 -4 -47 -26q-114 -141 -175 -216q-12 -15 -95.5 -118.5t-131.5 -163.5q-368 -518 -585 -833t-355 -541q-154 -256 -223 -401q-68 -147 -84 -212q-15 -68 -9 -92q1 -7 2 -11t4 -12t7.5 -10t12.5 -5.5t20 2.5q32 10 43 2t0 -35
q-10 -25 -29.5 -40.5t-42.5 -15.5q-34 0 -52.5 15.5t-28.5 52.5q-16 48 13 157q27 102 128 302q102 198 294 509q186 304 508 782q17 25 10 25q-4 -1 -21 -20q-300 -336 -562 -570q-257 -230 -377 -248q-50 -3 -79 21q-80 66 -27 233q9 22 5.5 26t-8.5 2t-13 -9
q-88 -82 -154 -125q-139 -91 -203 -62q-52 24 38 148q1 3 2.5 4.5t2.5 3.5l1 1q0 2 1 2q58 78 178 201q84 88 158 139q77 54 128 29q45 -27 26 -108q-2 -12 7 -17q20 -14 -5 -59l-1 -1q-86 -170 -106 -257q-19 -82 -1 -102q67 -81 383 183q318 267 822 862q212 308 371 535
q17 28 10 37t-35 5q-72 -8 -109 -12q-772 -94 -1070 -83q-186 7 -258 32q-70 25 -71 68q-4 33 14 66.5t49.5 61t60 48t55.5 37.5q9 5 12 7q23 13 44 9.5t30 -22.5q8 -20 -1.5 -42t-32.5 -36q-4 -2 -10 -6q-8 -5 -18 -12t-23 -20.5t-20 -27t-5 -30.5t17 -32q36 -41 181 -47
q347 -8 1051 76q78 8 116 13q89 14 120 62q1 1 3 4v1q190 271 392 546q188 258 257 322q26 20 51 21.5t35 -11.5q21 -16 7 -58q-2 -14 -12 -26q-23 -47 -76 -132q-89 -142 -239 -355q-94 -132 -251 -328q-6 -8 -1 -11t14 0q419 47 479 53q47 6 69 48h1q113 159 201 276
q87 117 123 148q22 16 46 16.5t32 -10.5q7 -7 8 -12q1 -2 1 -7t1 -8q10 -63 -43 -117q-26 -27 -98 -120q-8 -11 -27 -33q-21 -24 -101 -123q-13 -22 -4.5 -29t27.5 -5q487 49 829 63q375 14 573 -3q197 -15 275 -50q77 -35 90 -77zM190 466q42 74 32 87l-1 1q-1 0 -2 1h-1
q-25 1 -92 -49q-63 -46 -140 -120q-73 -70 -115 -124v-1l-3 -3q-9 -12 -13 -18t-10.5 -18.5t-1 -18t22.5 -3.5q58 9 136 61q80 53 153 123q19 22 19 35q4 23 16 47zM2041 1854q246 332 397 578q-132 -167 -421 -576q-15 -15 0 -15q15 1 24 13zM1984 1778q4 7 3 10t-8 2
q-12 -4 -27 -25v-1q-144 -203 -189 -268q120 147 221 282z" />
    <glyph glyph-name="Tt" unicode="Tt" horiz-adv-x="2079" 
d="M5184 1861q34 -70 -43 -172q-17 -21 -40 -28t-42 3q-37 21 -7 62q19 22 34 34q25 18 26 37q5 32 -71 66q-76 35 -267 56q-189 21 -536 10q-229 -8 -492 -28q-464 -34 -1095 -103q-13 -3 -27 -19h-1l-12 -15q-1 -1 -1 -2h-1v-1q-29 -35 -85.5 -105.5t-80.5 -100.5
q-119 -148 -226 -280q-369 -522 -584.5 -835.5t-352.5 -538.5q-155 -260 -222 -401q-69 -148 -83 -212q-15 -67 -10 -92q6 -48 47 -36q63 21 42 -33q-9 -24 -28.5 -40t-42.5 -16q-35 0 -53.5 15.5t-27.5 52.5q-21 58 26 201t203 424q164 292 464 753q321 494 806 1188v1h1v1
l1 1q1 0 1 1t1 2t3 4q1 1 1 2l2 2v1q0 1 6.5 10t10.5 14q6 8 12 18q-1 -1 -5 -1q-245 -24 -644 -67q-57 -6 -73 -37l-4 -8v-1l-1 -1q-1 -1 -1 -2q-48 -89 -112 -189q-187 -288 -439 -653q-214 -312 -527 -762q-272 -388 -454 -655q0 -1 -5 -8q-21 -33 -42 -33q-4 0 -5 9
t3 24t12 29q136 196 400 588q184 269 488 723q67 104 75 237q9 134 -49 261q-56 126 -188 209q-129 81 -343 83h-43q-34 1 -73 0q-100 -6 -202 -10q-100 -2 -125 -1q-22 0 -35 1.5t-25.5 9t-16.5 22.5q-6 31 23 62q20 20 72 24.5t153 -2.5q18 -1 57 -1q66 -2 122 -7
q281 17 804 67q216 19 370 34q36 6 49 34q4 6 6 12q15 41 22 73t5.5 42.5t-2.5 16.5q-1 1 -2 0q-11 0 -17 7t-6.5 16.5t0 17.5t2.5 13q8 24 27.5 40t43.5 16h1q69 0 81 -47q11 -51 -47 -185q-1 -3 -4 -14q236 20 520 54q68 7 132 15l14 2h1q26 1 46.5 13.5t45.5 49.5l3 3
l1 1q1 1 1 2q1 2 3 4q0 2 1 2v1q206 293 386 539q184 252 253 316q26 20 50 21.5t35 -11.5q21 -16 7 -58q-1 -13 -11 -26q-27 -53 -77 -132q-85 -137 -238 -355q-97 -135 -239 -314q-2 -2 -7 -10q-15 -15 1 -15h15q974 117 1536 140q376 13 574 -3q197 -15 275 -50
q77 -35 90 -77zM1610 1635q9 26 0 32t-32 3q-610 -70 -800 -94q-76 -8 -19 -38q237 -111 321 -288q86 -177 45 -366v-2q-2 -11 -0.5 -13t5 0.5t8.5 9.5q279 419 394 613q44 77 78 143zM2629 1860q-12 -18 -1 -18q2 1 6 1q11 3 20 17q250 340 392 573q-135 -173 -417 -573z
M2418 1552q111 141 174 224l1 1q1 1 1 2t1 1l1 2q4 4 3 7t-7 2q-14 -1 -23 -16l-1 -1q-31 -45 -88.5 -126.5t-63.5 -90.5t-7 -11q2 -1 9 6z" />
    <glyph glyph-name=".notdef" horiz-adv-x="874" 
d="M824 0h-824v1434h824v-1434zM50 1384v-1334q353 159 724 0v1334q-384 -118 -724 0zM319 334l57 58q10 10 20 10q9 0 22 -11l56 -60q9 -10 9 -20q0 -12 -10 -22l-56 -62q-14 -14 -21 -14q-11 0 -20 10l-61 71q-7 8 -7 18q0 9 11 22zM313 1191q53 30 112 30
q93 0 148.5 -47.5t55.5 -127.5q0 -48 -23 -99q-22 -49 -87 -129q-57 -73 -76 -98t-39 -64t-20 -69q0 -39 24 -133h-32q-35 99 -35 148q0 76 81 218q82 142 82 217q0 57 -33 90t-91 33q-11 0 -16 -1l32 -51q7 -11 5 -21q-2 -11 -14 -20l-66 -50q-18 -11 -24 -10q-9 1 -17 14
l-47 81q-4 10 -3 19q1 10 28 32q32 25 55 38z" />
    <glyph glyph-name="uni0000" 
 />
    <glyph glyph-name="uni0000" 
 />
    <glyph glyph-name="nonmarkingreturn" horiz-adv-x="682" 
 />
    <glyph glyph-name="space" unicode=" " horiz-adv-x="695" 
 />
    <glyph glyph-name="space" unicode="&#xa0;" horiz-adv-x="695" 
 />
    <glyph glyph-name="exclam" unicode="!" horiz-adv-x="1085" 
d="M1283 1609q22 -20 21.5 -28.5t-17.5 -24.5q-12 -10 -33 -35q-502 -633 -1022 -1440q-26 -40 -51 -38q-19 2 -12 29q3 8 8 18l18 27q255 419 472 753q237 363 494 700l6 9q11 16 20 25t24 19t33.5 6.5t38.5 -20.5zM106 -30q29 0 38.5 -18t-2.5 -49q-13 -31 -28.5 -45.5
t-41.5 -14.5q-6 0 -9 -1q-42 -2 -51 13q-12 25 -3 48q13 26 41 46.5t56 20.5z" />
    <glyph glyph-name="quotedbl" unicode="&#x22;" horiz-adv-x="618" 
d="M546 2043q20 -62 -21.5 -148.5t-143.5 -226.5q-16 -23 -38 -38t-34 -10q-12 6 -14.5 14.5t2.5 18t18 26.5l1 1q0 2 1 2q44 60 68 109.5t27 83.5t1 48.5t-8 32.5v1q-6 14 -6 27t14.5 31t46.5 41q28 18 53 13.5t33 -26.5zM252 1980q29 6 44.5 -10.5t9.5 -44.5
q-14 -59 -37 -103q-27 -49 -76 -112q-18 -24 -41.5 -35.5t-40.5 -2.5q-19 14 27 82q21 31 28.5 52.5t6 30t-7.5 18.5q-11 19 -5 43q13 58 92 82z" />
    <glyph glyph-name="numbersign" unicode="#" horiz-adv-x="1631" 
d="M1525 617q-3 -14 -21 -20t-35 -2t-17 16v1q0 3 -4 7.5t-18.5 12t-37.5 13.5t-67.5 10.5t-101.5 4.5q-30 0 -45 -22q-22 -28 -49 -64q-22 -30 -102 -137.5t-124 -168.5q-9 -12 3 -12h1q188 -5 323 -22q17 -2 23 -1q13 1 15.5 -1.5t-3.5 -17.5q-14 -26 -41 -18l-14 2
q-133 18 -323 16q-22 0 -36 -18q-178 -247 -319 -467q-6 -12 -10 -24q-5 -22 -23 -22q-3 1 -8 1q-9 3 -12.5 7.5t-1.5 12t6 14.5t11 19q161 254 298 461q5 7 4 11t-8 3q-205 -7 -397 -33q-33 -5 -51 -26q-152 -218 -227 -327q-13 -18 -25 -43q-27 -63 -58 -67q-2 0 -5.5 0.5
t-5.5 1.5q-33 9 -4 48l43 62q112 164 209 311q10 12 7.5 16.5t-19.5 1.5q-73 -15 -120 -28q-32 -11 -47 -21q-6 -4 -10 -7q-9 -5 -29 -11q-16 -5 -30 -0.5t-13 21.5q5 28 23 41.5t47 20.5l4 2q91 27 199 44q50 9 73 48q94 143 203 300q8 13 6.5 18.5t-14.5 3.5
q-153 -31 -235 -51q-14 -3 -27 -12q-21 -15 -35.5 -12t-10.5 38q4 22 23.5 40t43.5 23q121 21 257 40q5 1 14 1q1 1 2 1q50 10 67 38q2 4 7 10.5t8 9.5q128 173 206 267q74 87 113 117q38 29 62 34q39 10 62 -11q43 -38 -64 -102q-1 0 -6 -4t-9 -7q-30 -19 -102 -87
q-74 -69 -188 -216q-22 -30 -9 -31q4 1 12 1q137 17 269 24q35 3 106 5q42 1 58 25q1 1 3 4l1 1q124 162 199 247.5t99 103t43 19.5q38 8 56 -15q9 -16 -5 -41t-42 -41q-1 -1 -5 -4.5t-6 -5.5q-117 -94 -269 -276q-8 -12 -7 -14t11 -2h1q64 -1 112 -9l12 -2q26 -2 48 -6
t48.5 -12.5t41.5 -24t13 -35.5zM1095 630l9 12q15 20 -8 16q-57 -2 -82 -4q-155 -11 -297 -35q-54 -11 -70 -32q-109 -151 -234 -330q-10 -16 -8 -19t14 -1h4q183 19 384 19q27 1 35 16v1q131 193 253 357z" />
    <glyph glyph-name="dollar" unicode="$" horiz-adv-x="1539" 
d="M1271 1278q33 4 53 -8.5t14 -38.5q-14 -41 -35.5 -57.5t-52.5 -17.5q-41 -4 -65 -7q-41 -5 -66 -42q-137 -190 -262 -369q26 -71 71 -164q60 -129 6 -275q-55 -147 -213 -283q-116 -98 -240.5 -156.5t-232.5 -68.5h-8q-25 -4 -32 -17q-79 -121 -128 -196q-10 -19 -14 -30
q-6 -17 -12 -24.5t-20 -7.5q-5 0 -15 2q-9 3 -12.5 8t-1 12.5t7 14.5t13.5 19q8 12 13 19q38 60 57 89q11 17 30.5 47.5t24.5 38.5q9 20 7.5 24t-13.5 8h-1q-23 8 -36 15q-41 23 -37 101q4 77 97 227q15 24 24 36t24 22t30 6q34 -12 -26 -91q-153 -203 -80 -255
q14 -10 38 -14q2 0 3 -1q17 -3 31 20q43 67 121 186.5t112 171.5q209 323 309 475q-41 107 -38 195.5t56 159.5q91 120 289 184h2v1l8 2q1 1 5 1q56 20 81 58q8 12 13 18v1l1 1q84 121 134 183.5t66.5 76t38.5 22.5q44 18 65 -10q21 -33 -11.5 -76t-53.5 -51q-3 -3 -4 -5
q-37 -32 -146 -163q-11 -14 -9.5 -17t14.5 -1h1q2 1 5 1zM851 511q-35 71 -60 132q-222 -320 -530 -788q-14 -20 1 -20q1 1 3 1h6q91 12 201 62t201 126q57 48 111 132q55 84 79 180q24 95 -12 175zM1018 1096q13 17 10.5 23t-21.5 0q-51 -17 -94 -51q-44 -35 -64 -62
q-50 -69 -17 -190q20 30 31 46q13 20 71 107.5t84 126.5z" />
    <glyph glyph-name="percent" unicode="%" horiz-adv-x="1676" 
d="M1588 1501q38 -42 12 -105t-76 -123q-51 -60 -88 -97q-1 -2 -4 -5l-5 -5q-228 -236 -295 -304q-120 -122 -380 -392q-202 -212 -350 -382q-158 -182 -241 -311q-82 -130 -54 -179q16 -16 41.5 -7.5t49 24.5t50 43.5t44 48t31.5 39.5q6 9 20 28q19 26 20 28v1
q14 27 42.5 46.5t37.5 15.5q-1 15 13 34q16 21 46 48q31 28 70 30q46 -1 41 -69q-5 -76 -61 -204.5t-126 -170.5q-29 -17 -53 -17q-23 0 -39 13q-46 38 -25 126q2 8 -0.5 9t-9.5 -6q-1 -1 -2 -1q-50 -48 -108 -85t-103 -37q-20 0 -37 9q-49 31 -21 113q29 81 94 172
q50 69 205 235q151 161 343 361q207 215 405 426q201 215 324 364q126 153 120 195q-16 43 -70 30q-55 -13 -115 -49t-101 -67q-19 -17 -12 -20q17 -5 23 -24q6 -24 -28 -71.5t-186 -227.5q-141 -168 -199 -161q-34 2 -19 72q13 66 74 166q61 99 151 173q38 32 38 49v1l2 8
q2 49 52 92q50 40 142 82q87 42 181 59q90 16 136 -21zM547 -114q-25 6 -82 -66q-72 -90 -90 -165q-15 -64 29 -77q42 4 88 84.5t58.5 147t-3.5 76.5zM905 918q12 2 78 72t123 145.5t45 88.5q-48 -25 -154.5 -157.5t-91.5 -148.5z" />
    <glyph glyph-name="ampersand" unicode="&#x26;" horiz-adv-x="1480" 
d="M949 -188q18 -13 2 -41q-15 -28 -44 -48q-28 -17 -51 -17q-27 0 -40 22q-40 78 -77 145q-11 12 -44 -8q-303 -182 -483 -182q-64 0 -105 18q-107 50 -74 179q33 114 170 239t353 249q35 20 41 42q17 80 68 175q0 1 1.5 3t2.5 4q1 1 3 5t4 6q74 123 200 230
q128 107 224 119q55 2 81.5 -34t19.5 -95q-4 -25 -16 -53.5t-47.5 -76t-90 -97.5t-150.5 -118t-221 -138q-22 -13 -20 -30q21 -135 119 -303q8 -14 13 -22q8 -12 31 -2q75 50 148 106q19 15 31 31q14 16 20.5 19t14.5 -7q8 -17 -0.5 -30t-34.5 -30q-4 -4 -6 -5
q-76 -57 -148 -106q-30 -20 -14 -38q45 -61 119 -111zM689 -99q26 16 18 30q-109 194 -121 339q-2 20 -28 3q-241 -141 -353.5 -255t-97.5 -208q13 -71 94 -80.5t207 35.5t281 136zM715 587q-24 -44 -37 -79q-11 -31 -19 -67q-1 -7 1.5 -9t6 -1t8.5 3q156 89 276 191
q118 100 164 178q47 78 -17 98q-56 7 -165 -75q-109 -80 -189 -191q-11 -16 -29 -48z" />
    <glyph glyph-name="quotesingle" unicode="'" horiz-adv-x="362" 
d="M252 1980q29 6 44.5 -10.5t9.5 -44.5q-14 -59 -37 -103q-27 -49 -76 -112q-18 -24 -41.5 -35.5t-40.5 -2.5q-19 14 27 82q21 31 28.5 52.5t6 30t-7.5 18.5q-11 19 -5 43q13 58 92 82z" />
    <glyph glyph-name="parenleft" unicode="(" horiz-adv-x="947" 
d="M55 -576q-15 0 -19 5.5t-5 21.5q-1 1 -1 6q-64 481 88 894q139 372 431 723q211 248 412 416q206 174 355 270q155 100 201 122q59 29 75 -17q6 -25 -7 -50t-41 -33q-166 -45 -446 -261q-279 -215 -516 -491q-299 -361 -431 -750q-132 -391 -83 -782q5 -19 15 -32
q21 -26 -5 -38q-12 -5 -18 -4h-5z" />
    <glyph glyph-name="parenright" unicode=")" horiz-adv-x="884" 
d="M-619 -581q-6 12 4 21t33 19q22 9 40 22q450 332 762 694q315 363 444 757q94 300 81 514q-12 215 -107 370q-24 44 30 85q59 37 85 -4q25 -52 44 -135.5t28.5 -203.5t-11 -280.5t-73.5 -325.5q-39 -125 -102.5 -254.5t-171.5 -287.5t-247 -313.5t-339.5 -329
t-439.5 -336.5q-16 -11 -33.5 -15.5t-26.5 3.5z" />
    <glyph glyph-name="asterisk" unicode="*" horiz-adv-x="634" 
d="M533 1716q50 11 51 -38q-6 -27 -71 -32q-25 -1 -95.5 -21.5t-101.5 -32.5q-15 -7 -10 -14q1 -1 1 -3l2 -2v-1q49 -91 65 -119q5 -10 17 -33q5 -42 -45 -72q-9 -5 -22 -7q-16 -2 -22 10.5t-2 38.5q0 2 0.5 7t1.5 7q4 32 -2 60q-2 9 -4 28q-2 32 -12 60q-8 20 -30 3
q-5 -5 -49 -42.5t-76 -68t-43 -45.5q-35 -53 -63 -50q-3 0 -7.5 2.5t-8.5 8t-5 13.5t5.5 20.5t20.5 26.5q1 0 4 2.5t9.5 7t13.5 9.5q82 57 176 129q18 13 3 23q-18 9 -73 27t-80 21q-26 1 -37.5 9t-7.5 23q0 1 1 2q0 2 1 3l5 8q29 37 68 24q2 -1 48 -26q42 -22 94 -58
q4 -5 7 -3t4 3.5t3 6.5l22 66t22 65q18 54 23 63q11 27 33.5 41t41.5 5q27 -16 -18 -71q-18 -23 -47.5 -83t-41.5 -91q-2 -11 9 -6q76 36 150 67q67 28 72 29z" />
    <glyph glyph-name="plus" unicode="+" horiz-adv-x="1121" 
d="M610 859h350q20 0 38 6q21 4 22 0q0 -1 -1 -2q-9 -24 -20 -32.5t-34 -8.5q-133 0 -381 -6q-21 2 -50 -38q-99 -152 -208 -351q-4 -7 -10 -21q-6 -17 -12.5 -25t-20.5 -8q-5 0 -7 1q-12 2 -15 7.5t0 12.5t11 20q1 2 3.5 6t3.5 6q90 167 203 358h1q2 2 4.5 7t3.5 8
q7 17 -13 18q-247 -13 -312 -31h-1q-9 -4 -17 -5l-10 -2.5t-9 -1.5q-18 -4 -22.5 -0.5t0.5 24.5q21 57 76 57q8 1 98 1h231q15 2 26 22q126 212 160 276q4 7 4 9q16 22 39.5 33.5t44.5 5.5q19 -8 17.5 -33.5t-22.5 -45.5q-59 -52 -190 -257q-2 -3 -1 -5.5t6 -3.5t14 -1z" />
    <glyph glyph-name="comma" unicode="," horiz-adv-x="332" 
d="M103 -17q-3 8 16 31q2 4 8.5 13t10.5 15q19 32 23.5 52.5t0.5 29.5t-16 19q-21 20 -16 45q13 58 92 82q29 6 44.5 -10.5t9.5 -44.5q-14 -60 -35 -99q-23 -44 -72 -109q-18 -23 -36 -30t-30 6z" />
    <glyph glyph-name="hyphen" unicode="-" horiz-adv-x="1171" 
d="M636 407h13q14 1 17 -2.5t-2 -20.5q-9 -22 -25 -16q-4 1 -16 1l-393 6q-50 0 -68 -5h-1q-60 -15 -48 14q23 49 64 49l20 -1q4 -1 12 -1.5t12 -0.5q70 -6 136 -12q51 -4 162 -10q76 -4 117 -1z" />
    <glyph glyph-name="hyphen" unicode="&#xad;" horiz-adv-x="1171" 
d="M636 407h13q14 1 17 -2.5t-2 -20.5q-9 -22 -25 -16q-4 1 -16 1l-393 6q-50 0 -68 -5h-1q-60 -15 -48 14q23 49 64 49l20 -1q4 -1 12 -1.5t12 -0.5q70 -6 136 -12q51 -4 162 -10q76 -4 117 -1z" />
    <glyph glyph-name="period" unicode="." horiz-adv-x="303" 
d="M172 144q-6 0 -9 -1q-41 -2 -50 13q-13 25 -4 48q13 26 41 46.5t56 20.5q58 0 37 -67q-13 -31 -28.5 -45.5t-42.5 -14.5z" />
    <glyph glyph-name="slash" unicode="/" horiz-adv-x="1315" 
d="M17 -422q-8 3 -11 8t0.5 13t8.5 16t14 20q10 16 15 23q261 416 777 1196q513 774 796 1150q20 26 47.5 36t52.5 3q28 -11 28 -33t-14 -41t-36 -38q-161 -154 -469 -586q-289 -405 -616 -901q-329 -498 -500 -765q-18 -27 -33 -51q-14 -20 -33 -35.5t-27 -14.5z" />
    <glyph glyph-name="zero" unicode="0" horiz-adv-x="1333" 
d="M1692 1968q19 -138 -32 -327q-49 -184 -155 -394q-266 -523 -724 -884q-420 -332 -590 -288q-114 28 -154.5 118.5t-8.5 232.5t119 321.5t229 397.5q194 303 529 536q32 23 71 15q4 0 8.5 3.5t10 11t8.5 12t8.5 15t6.5 11.5t1 3q3 4 7 12q0 2 1 3q76 151 185 260
q108 107 253 135q91 16 150 -35t77 -159zM770 397q185 147 342.5 330t260.5 357.5t173 344.5t95.5 304t12.5 223q-8 52 -56 96t-107 44q-25 0 -54.5 -6t-72.5 -25t-84.5 -49.5t-86.5 -86t-82.5 -127.5t-69.5 -180.5t-50 -238.5q-6 -27 -37 -40q-29 -13 -56 -8q-40 12 -19 75
q3 8 14 38t18 47q17 44 19 49q5 11 1.5 13.5t-10.5 -0.5q-6 -2 -12 -2q-55 -7 -158 -100q-97 -89 -219 -238q-115 -142 -224 -313q-104 -165 -172 -329q-66 -162 -65 -282q2 -122 100 -175q97 -43 251 39q154 84 348 240z" />
    <glyph glyph-name="one" unicode="1" horiz-adv-x="726" 
d="M1411 2168q17 -13 19.5 -31.5t-13.5 -39.5q-110 -123 -467 -640q-356 -514 -852 -1345q-9 -20 -10 -26q-2 -12 -8 -16t-28 -4q-53 0 -3 74q433 712 775 1238q155 239 271 424q33 56 -15 33q-36 -17 -110 -74l-21 -16q-7 -7 -11 -10q-71 -75 -95 -4q-14 44 44 74l49 28
q100 58 208.5 137t161.5 150q0 1 1 2q58 80 104 46z" />
    <glyph glyph-name="two" unicode="2" horiz-adv-x="1204" 
d="M851 459q27 -3 37 -22.5t-3 -47.5q-15 -30 -27 -42t-19 -11.5t-18 6.5q-11 8 -24 9q-108 6 -231 -29q-116 -33 -227 -85t-175 -90q-69 -40 -71 -42q-5 -3 -15 -11q-30 -22 -41 -22h-2q-14 -2 -21 6q-9 6 -10 15t3 17.5t14 25.5l22 33q41 62 130.5 172.5t343 390.5
t610.5 648q235 241 358 400q117 152 112 241q-2 21 -21.5 40.5t-57.5 19.5q-65 0 -131.5 -11t-147.5 -42t-156 -79t-154.5 -128.5t-144.5 -184.5l-10 -18q-9 -18 -16.5 -26.5t-21.5 -11.5t-31 11q-47 28 5 87q90 104 189 186.5t184 131.5t170.5 80.5t148 43.5t115.5 12
q136 0 155 -95q19 -102 -113 -281q-129 -177 -384 -436q-76 -78 -198 -203.5t-153 -157.5q-290 -298 -466 -484q-170 -182 -268 -317q-4 -7 -2 -7.5t11 4.5q41 21 96 51q103 55 167.5 87.5t167.5 79.5t183.5 68.5t137.5 17.5z" />
    <glyph glyph-name="three" unicode="3" horiz-adv-x="1425" 
d="M1404 964q-23 -119 -137 -267q-114 -150 -298 -292q-185 -141 -415 -234q-230 -92 -486 -97q-26 0 -48 11.5t-13 32.5q17 35 33 42t28 -4l12 -4q199 -39 402 26q202 66 378 192q178 129 292 270q116 142 141 258q27 164 -100 240q-129 77 -348 43q-7 0 -10 -1
q-50 -12 -54 15q3 41 56 62q280 130 477 329q197 197 241 377q6 29 -4 52.5t-38 32.5q-62 21 -134 -7t-143 -96q-16 -18 -23 -29q-12 -20 -21 -28.5t-23.5 -5.5t-31.5 27q-12 20 -3.5 46t34.5 47q237 182 388 140q59 -18 84 -70t4 -125q-45 -157 -217 -323t-478 -357h1
q-29 -19 3 -20q10 0 32 1q3 1 9 1q192 10 275 -38q78 -46 113.5 -105t21.5 -142z" />
    <glyph glyph-name="four" unicode="4" horiz-adv-x="754" 
d="M1305 1768q35 -13 38 -42t-19 -56q-10 -11 -27 -20q-22 -10 -41 -31q-564 -736 -1062 -1517q-10 -18 -13 -27q-7 -18 -14 -26t-21 -8q-25 0 -19 22q6 21 24 50q437 717 708 1117q13 20 6.5 22t-20.5 -7q-158 -84 -209 -113q-152 -86 -267 -141q-118 -57 -183 -58
q-101 0 -128 65q-58 146 303 525q318 330 713 617q56 41 94 0q22 -31 14 -58.5t-30 -46t-41 -17.5q-36 0 -178 -98q-133 -92 -304 -230q-157 -128 -262 -236q-166 -175 -225 -286.5t-16 -154.5q30 -35 80 -33q51 3 159 51q107 49 254 124q-5 -2 -10 -5l33 17q-3 -1 -9 -5
l14 8l-2 -1l6 3l24 12l4 2h1q4 3 12 7t13 6q137 71 198 126q63 57 107 123q26 37 67 95t54 77q4 5 14 19l15 21l2 4q24 33 43 61q20 26 48 38t52 5zM598 1145l4 2l4 2zM633 1162l-8 -4l-6 -3q7 3 14 7zM595 1144l2 1l-3 -2z" />
    <glyph glyph-name="five" unicode="5" horiz-adv-x="1480" 
d="M1642 1497q137 -200 -246 -722q-170 -228 -381 -398q-212 -171 -427 -254q-216 -84 -406 -52q-61 11 -105 52t-64 103t-2 150t77 183q18 29 48 42.5t57 6.5q25 -10 25 -34t-30 -35q-47 -15 -82 -60t-46.5 -102.5t-6 -114t42 -100.5t96.5 -56q38 -8 84 -9.5t117 9
t146 34.5t170.5 75.5t190 124t204.5 187.5t215 259q155 218 211 387q56 171 10 240q-52 73 -240 61q-185 -10 -466 -110q-4 -1 -14 -5q-49 -21 -63 -7q-16 22 14 69q89 144 174 265q103 146 151 208l15 20q10 11 -6 6q-7 -2 -25 -4l-6 -1q-52 0 -52 30q1 30 20 53.5t51 31.5
l555 126q31 9 46.5 1.5t6.5 -34.5q-8 -22 -14.5 -30t-10.5 -7t-9 8q-10 14 -24 10l-158 -43q-7 -2 -39 -10q-57 -15 -97 -34q-44 -21 -101 -78t-152 -179q-156 -189 -264 -345q-2 -4 -3 -5l-4 -6h-1q-2 -3 2 -3q5 0 16 4q163 52 332 96q171 45 295 49q128 6 173 -53z" />
    <glyph glyph-name="six" unicode="6" horiz-adv-x="1324" 
d="M1665 2056l-20 -10q-313 -175 -574 -411q-261 -234 -465 -482q-201 -243 -330 -446q-127 -199 -168 -302q-25 -60 -40 -116q-17 -63 -2 -95q2 -4 8 0.5t18 16.5q5 4 16 15q291 270 535 449q49 36 92 65q204 136 352 191t222 21q72 -38 42 -138q-37 -121 -250 -299
q-211 -175 -597 -357q-36 -16 -93 -38q-79 -28 -143.5 -40t-106.5 -8.5t-73 17.5t-47.5 32.5t-25.5 43t-11 43t-1 36.5q8 80 55 191q43 101 185 318q141 216 357 480q221 268 485 513q268 248 569 420q30 14 52.5 4.5t27.5 -36.5q6 -45 -69 -78zM117 202q-2 -1 -6 -5
q-59 -49 3 -83q51 -23 161 -1q113 23 218 70q179 82 332 177.5t251.5 180.5t158.5 157t77 124q8 26 -3 44q-40 55 -172 23q-127 -31 -307 -136q-39 -24 -92 -59l-1 -1q-1 0 -2 -1q-126 -83 -295 -215q-162 -124 -323 -275z" />
    <glyph glyph-name="seven" unicode="7" horiz-adv-x="837" 
d="M1293 1226q-1 -16 -7 -20t-20 -3q-17 0 -34 -4l-103 -21q-102 -21 -249 -54q-69 -16 -90 -45q-206 -285 -396 -549q-105 -144 -306 -424q-10 -15 -15 -29q-13 -32 -32 -32q-11 0 -20 3q-13 6 -13.5 18.5t7 25.5t23.5 34q33 46 286 397q182 253 384 540q9 14 2.5 17
t-22.5 -3q-151 -37 -274 -80q-115 -40 -137 -76q-35 -8 -43.5 -3t-5.5 28q5 65 76 82l320 72q93 21 133 54q41 33 63 70q256 366 401 587q161 247 157 278q-29 20 -137 -38q-105 -56 -245 -153q-128 -89 -244 -185q-108 -90 -135 -135q-10 -19 -40 -24.5t-52.5 11.5
t-14.5 54q10 40 76 83q1 0 8 5q286 196 503 330q146 92 226 124t124 3q67 -38 -49 -226q-24 -41 -179 -258q-45 -63 -101 -142t-132.5 -186t-126.5 -177l-6 -8v-1q-1 0 -1 -1t-1 -2q0 -1 -1 -2q-4 -9 5 -9l12 2h2l362 80q16 4 27 6t19.5 1.5t12 -4.5t3.5 -11z" />
    <glyph glyph-name="eight" unicode="8" horiz-adv-x="1306" 
d="M629 746q103 -29 202 -82q102 -55 163 -122q62 -68 46 -136q-29 -86 -140 -148q-112 -64 -257 -104q-153 -42 -278 -61q-135 -20 -192 -20q-135 0 -157 82q-14 46 17 112t101 144.5t143.5 148t172.5 155.5l1 1q19 15 -16 29q-1 1 -2 1.5t-2 0.5q-2 1 -17 7h1
q-134 67 -190 156q-73 116 -8 265q45 99 163 211q126 120 263 220q157 115 273 190q125 81 196 124q3 2 13 8t14 9q111 70 249 136q135 65 250 81q116 18 168 -46q142 -176 -725 -955q-137 -120 -303 -252q-64 -53 -132 -108q-9 -7 -15 -13.5t-10 -13t-2.5 -12t10.5 -8.5z
M261 1145q-30 -106 4 -174q35 -69 90 -106q51 -34 89 -50l6 -3q33 -17 58 -18q27 -2 63 26q100 83 173 142q159 129 278 235q275 249 426 406q153 159 222 254q68 95 81 138q13 44 2 58q-33 54 -135 43q-98 -10 -232 -64q-130 -53 -245 -126q-9 -6 -29 -18l-22 -14
q-139 -86 -311 -204q-175 -120 -325 -258q-146 -136 -193 -267zM587 174q371 119 366 251q-5 66 -69 115q-65 50 -145 84q-79 33 -137 54q-18 6 -22 8q-43 17 -75 -5q-29 -25 -83 -71q-165 -136 -268 -244q-102 -107 -96 -196q5 -46 87.5 -57.5t200 6t241.5 55.5z" />
    <glyph glyph-name="nine" unicode="9" horiz-adv-x="653" 
d="M46 4q-22 0 -34 13.5t-9 35.5q23 123 177 361q149 230 392 573q65 90 189 268q43 61 132 183q253 352 247 354q-4 -1 -171 -158q-117 -111 -293 -276q-153 -141 -243 -208q-23 -16 -25 -18q-27 -19 -42.5 -29.5t-44 -29t-48 -28t-42 -18t-38.5 -7t-26 11.5
q-18 18 -18.5 49.5t15.5 72t41.5 86.5t61 97t72 99.5t77.5 97.5t75 87.5t66 73.5q231 248 434 375q205 129 349 118q130 -9 129 -129q0 -27 -44 -53q-40 -24 -67.5 -18.5t-27.5 32.5q1 6 1 17q6 22 0.5 38t-27.5 16q-120 0 -319.5 -117.5t-427.5 -343.5q-171 -170 -279 -344
t-71 -216q41 -18 150 60q112 80 246 202q156 142 259 244q165 165 187 188l52 52q29 29 62 56q32 28 50 23q16 -7 24 -14t10 -20t-3 -28t-20 -42t-36 -58.5t-56 -81.5q-50 -71 -163 -225q-63 -86 -138 -189q-50 -69 -191 -259q-154 -204 -285 -388q-140 -197 -218 -337
q-81 -145 -57 -197q26 -41 -19 -51q-5 -1 -15 -1z" />
    <glyph glyph-name="colon" unicode=":" horiz-adv-x="1017" 
d="M470 704q59 0 37 -67q-13 -32 -28.5 -46.5t-42.5 -14.5h-9q-42 -2 -50 13q-13 25 -4 47q12 27 40.5 47.5t56.5 20.5zM206 314q29 0 38.5 -18.5t-2.5 -48.5q-22 -61 -70 -61q-6 0 -9 -1q-43 0 -51 13q-12 26 -3 48q13 26 41 47t56 21z" />
    <glyph glyph-name="semicolon" unicode=";" horiz-adv-x="1029" 
d="M222 312q29 6 44.5 -10.5t9.5 -44.5q-14 -61 -35 -98q-23 -44 -72 -109q-18 -24 -36 -31t-30 7q-3 6 16 30q2 4 8.5 13t10.5 15q20 31 24 52t-0.5 30t-15.5 19q-21 20 -16 45q13 58 92 82zM482 704q29 0 38.5 -18.5t-2.5 -48.5q-22 -61 -70 -61h-9q-43 -2 -51 13
q-12 25 -3 47q12 27 40.5 47.5t56.5 20.5z" />
    <glyph glyph-name="semicolon" unicode="&#x37e;" horiz-adv-x="1029" 
d="M222 312q29 6 44.5 -10.5t9.5 -44.5q-14 -61 -35 -98q-23 -44 -72 -109q-18 -24 -36 -31t-30 7q-3 6 16 30q2 4 8.5 13t10.5 15q20 31 24 52t-0.5 30t-15.5 19q-21 20 -16 45q13 58 92 82zM482 704q29 0 38.5 -18.5t-2.5 -48.5q-22 -61 -70 -61h-9q-43 -2 -51 13
q-12 25 -3 47q12 27 40.5 47.5t56.5 20.5z" />
    <glyph glyph-name="less" unicode="&#x3c;" horiz-adv-x="1241" 
d="M577 -27q-22 17 -70.5 53.5t-71.5 53.5q-267 200 -329 258t-37 96q27 31 184 103q169 77 351 148q222 88 346 134q155 58 169 63q30 10 50 -0.5t21 -36.5q2 -47 -57 -64q-23 -6 -58 -9q-48 -3 -91 -16q-65 -21 -211 -72q-178 -63 -293 -106q-142 -52 -260 -103
q-107 -47 -108 -64q0 -16 73 -80q67 -57 187 -147q101 -76 232 -160q13 -7 26 -10q14 -4 17 -9t-6 -21q-10 -17 -35 -17.5t-29 6.5z" />
    <glyph glyph-name="equal" unicode="=" horiz-adv-x="1250" 
d="M706 485l5 -1q8 0 11 1q19 1 22.5 -3.5t-3.5 -27.5q-5 -14 -20 -8q-7 3 -24 3l-496 1q-35 -1 -80 -13q-34 -8 -44 4t1 36q12 30 24.5 38t30.5 5h11l24 -2q4 -1 14.5 -1.5t15.5 -0.5q74 -7 166 -15q102 -9 198 -15q104 -5 144 -1zM638 238h16q18 1 22 -3.5t-3 -27.5
q-6 -14 -20 -8q-8 4 -25 4h-495q-46 0 -80 -13h-1q-33 -8 -43.5 4t1.5 36q11 30 23 38t32 5h10l24 -1q12 -2 30 -3q74 -7 166 -15q105 -9 199 -15q104 -5 144 -1z" />
    <glyph glyph-name="greater" unicode="&#x3e;" horiz-adv-x="1605" 
d="M797 755h1q23 -19 31 -26q196 -161 238 -206.5t25 -86.5q-19 -34 -168 -100q-135 -60 -343 -139q-145 -55 -350 -128q-165 -58 -188 -65q-1 -1 -3 -1q-8 -6 -24.5 -2t-11.5 23q9 27 74 36q25 5 39 10q1 0 4.5 1t9 3t11.5 4q20 7 86 28t113 36q176 58 298 104
q150 55 276 115q117 56 131 95q6 21 -143 127.5t-211 144.5l-15 9q-36 22 -53 33q-18 13 -72 19q-29 1 -46 10q-35 29 13 79q24 24 52 31t47 -6q2 -2 25 -20.5t64 -52.5t83 -69q3 -2 7 -6z" />
    <glyph glyph-name="question" unicode="?" horiz-adv-x="1342" 
d="M122 -324q-34 0 -41 14.5t5 39.5q117 285 320 558q209 281 433 518q235 248 412 423q137 133 216 219q80 86 77 114q-21 26 -166 -32q-143 -57 -326 -182q-181 -124 -310 -303q-49 -71 -99 -71q-36 2 -41.5 17t8.5 41q0 1 1 2q28 73 135 163q102 88 249 179
q143 89 283 155q136 66 238 91q97 25 114 -11q11 -44 -102 -170q-122 -135 -295 -308q-205 -204 -429 -447q-226 -246 -394 -491q-171 -250 -214 -468q-2 -13 -10.5 -22.5t-18 -15t-20.5 -8.5t-17 -4t-8 -1zM105 -398q58 0 37 -67q-13 -32 -28.5 -46.5t-41.5 -14.5h-10
q-41 -2 -50 13q-12 25 -4 48q13 26 41.5 46.5t55.5 20.5z" />
    <glyph glyph-name="at" unicode="@" horiz-adv-x="1983" 
d="M1863 1411q70 -210 -100 -534q-68 -117 -142 -203q-156 -188 -320 -290q-164 -103 -268 -109q-28 0 -52 11q-24 16 -34 38v1q-18 39 -0.5 101t64.5 158q1 1 1 2t1 2q3 7 7 14q0 1 1 2q9 19 19 38l1 1q0 2 2 4q7 14 9 19q4 19 -5 19q-11 0 -28 -13q-167 -110 -247 -148
t-102 -12q-56 62 135 255q118 118 226 171t169 35q47 -12 24 -80q14 -2 22 -7q16 -10 18.5 -28.5t-9.5 -39.5q-11 -17 -31 -49q-9 -15 -27 -43q-2 -4 -10.5 -17t-12.5 -20q-120 -194 -149 -282q-29 -89 6 -96q17 -7 80 8q64 17 177 86q219 153 352 337q135 186 181 353
q47 168 9 272q-34 89 -142 122.5t-258 8.5t-309 -100q-194 -92 -367 -221t-299.5 -269.5t-216 -285.5t-132.5 -281q-46 -156 -12 -280t134 -180q35 -19 95.5 -20t126 15t130.5 52.5t106 85.5q22 25 50 22q26 -1 37 -24q9 -21 -4.5 -47.5t-41.5 -45.5q-230 -137 -400 -137
q-84 0 -150 33q-115 62 -146 202t28 334q99 309 375 597q278 288 685 489q175 85 328 116t265.5 -3.5t150.5 -138.5zM767 577q7 -7 65 20q60 29 128 74q70 46 115 94q46 49 29 84q-13 11 -82 -26q-70 -36 -147 -111l-32 -32q-89 -89 -76 -103z" />
    <glyph glyph-name="A" unicode="A" horiz-adv-x="2970" 
d="M2831 494q9 7 18.5 -1.5t-6.5 -22.5q-216 -174 -391 -305q-70 -54 -123 -114t-72 -101q-124 -266 -299 -653q-14 -31 -32 -41l-9 -3q-1 -1 -4 -1h-3q-3 -1 -7 0h-4q-7 2 -10 4q-9 8 -4 42q34 218 47 464q0 37 -44 6q-251 -160 -431 -247q-325 -156 -534 -156
q-102 0 -175 37q-49 26 -81 64q-24 22 -54 -8h-1q-208 -183 -318 -243q-107 -61 -181 -61q-45 -4 -79 27q-35 30 -21 113q5 24 24.5 41t43.5 19q26 3 34 -7.5t-3 -41.5q-32 -75 -9 -93q34 -28 87.5 -16.5t143 76t244.5 201.5q54 48 39 76v1q-81 207 51 583q78 215 214 439
q136 220 297 380q163 162 323 205q85 25 174 -17t162 -205v-2l4 -8q0 -1 1.5 -5t2.5 -6q18 -44 30 -83q5 -13 12 -14.5t12 2.5t13 12q345 384 799 900q158 183 238 282q88 107 138 163q61 69 109 108q50 41 89 24q53 -20 14 -126q-40 -110 -166 -363q-63 -129 -68 -139
q-7 -15 -32.5 -69t-84.5 -179t-113 -239q-222 -473 -473 -1013q-8 -18 -7.5 -26.5t8.5 -8t18 5t21 12.5q195 144 428 331zM1978 -95v-1q0 -18 13 -20.5t30 9.5q56 37 125 85q99 71 123 147q283 648 475 1067q218 472 234 505q65 131 98 203q52 110 84 189q33 81 21 89
q-13 5 -59.5 -45t-154.5 -179q-96 -116 -228 -267q-423 -482 -787 -880q-53 -62 -44 -86v-1q88 -353 70 -815zM678 -407q8 -27 40 5q19 18 57 53t52 48q385 361 967 1000q59 67 50 97q-2 7 -6 19.5t-7.5 22.5t-6.5 18q-5 14 -17 42q-11 28 -23 47q-48 83 -116 117.5
t-143 16.5q-119 -35 -276 -187q-154 -149 -301 -368q-142 -212 -226 -437q-33 -87 -57 -226q-23 -141 13 -268zM1873 -201q67 44 65 92q13 463 -66 802q-6 20 -28 -4q-586 -637 -1000 -1023q-68 -65 -103 -95q-40 -38 -24 -58q32 -48 89 -80q53 -32 181 -20q126 10 346 100
q220 89 540 286zM1939 -662v1q112 275 243 583q12 28 6.5 33.5t-15 1.5t-23.5 -14h-1q-99 -69 -108 -76q-69 -48 -69 -93q-15 -230 -44 -436q-2 -8 2 -9t8 7z" />
    <glyph glyph-name="B" unicode="B" horiz-adv-x="2492" 
d="M2325 492q14 5 15 -4q1 -10 -19 -17q-209 -83 -320 -134q-53 -27 -64 -59q-42 -91 -143 -198q-80 -87 -166 -164t-164.5 -134.5t-156 -105.5t-142 -76t-122.5 -46.5t-96.5 -16.5t-64.5 14q-51 35 -6 107h1q80 103 213 202q147 110 327 210q183 102 361 186q77 40 79 65
q23 51 10 88q-23 42 -104 57q-77 15 -188 17q-199 6 -566 -63q-21 -5 -53.5 -12.5t-43.5 -10.5q-27 -6 -51 -12q-25 -6 -61.5 -33.5t-67.5 -71.5l-1 -1q-43 -66 -76 -115q-49 -73 -128 -196q-9 -15 -10 -17q-24 -46 -43 -46q-11 0 -18 4q-12 6 -11.5 10t9.5 13q8 6 20 23
q37 60 86 142q46 76 148 249q5 9 2 17v1q-2 6 -2 12q5 38 40 59q22 13 32 34q146 251 230 399q103 181 120 223q-1 3 -1.5 8.5t-0.5 8.5q-5 23 1 37q13 25 39.5 41t53.5 11q19 -3 26.5 -14.5t9.5 -36.5q4 -23 -26 -82q-24 -47 -109 -181q-79 -125 -225 -348q-18 -27 -14 -39
t34 -4q3 1 11 3q10 3 28 7q461 180 882 477q424 300 610 564q99 145 60 222q-14 34 -80 66q-64 33 -219 44q-154 11 -423 -25q-338 -50 -626 -203q-292 -154 -517 -372q-228 -221 -371 -466q-144 -246 -186 -483q-43 -248 11 -463q56 -215 232 -348q178 -135 500 -139
q20 2 36 9q5 2 8.5 3.5t7 2.5t5.5 0.5t3 -2t1 -4.5t-1 -8q-10 -33 -65 -33q-483 2 -680 289q-187 280 -102 698q52 254 200 515q146 257 375 485q230 227 529 384q303 159 660 211q700 98 806 -119q27 -43 21 -126t-96 -207q-135 -174 -335 -329q-197 -152 -417 -283
q-215 -126 -410 -222q-167 -83 -310 -148q-27 -12 -27 -18q1 -6 29 -2q174 24 285 35.5t243.5 17t215 -12t120.5 -57.5q34 -38 29 -92q-1 -14 7 -15.5t18 4.5q1 0 2.5 0.5t2.5 1.5q1 0 4 1t4 2q208 90 326 135zM1753 159q2 4 3 5q4 4 14 18q2 3 8.5 12t10.5 14q14 18 7.5 21
t-22.5 -5q-3 -2 -7 -3.5t-6 -3t-4.5 -2.5t-4.5 -2q-91 -44 -193 -99q-2 -1 -7 -4t-8 -4q-2 0 -5 -2t-4 -2q-22 -13 -41 -23q-196 -108 -345 -217q-151 -111 -213 -215q-6 -11 -7 -13q-9 -20 -5 -29q44 -26 190 43q147 70 323 204q178 135 316 307z" />
    <glyph glyph-name="C" unicode="C" horiz-adv-x="2312" 
d="M2308 492q14 9 17 -4.5t-13 -25.5q-1034 -768 -1569 -1015q-314 -145 -496 -145q-136 0 -196 81q-40 55 -40 142t29 178t82 198.5t103.5 191.5t108.5 168q431 627 1066 1170q336 282 540 401q206 120 312 129q107 11 146 -41q43 -54 -21 -202q-62 -146 -195 -343
q-130 -194 -293 -392q-11 -15 -9 -16q2 0 12 9q71 62 196 160q92 74 193 143q87 58 112 57q23 -6 30.5 -23.5t-4.5 -39.5q-22 -38 -61 -37q-56 -18 -202 -107q-141 -86 -305 -216q-21 -17 -30 -18h-5q-9 0 -11 7.5t2 14.5q12 25 76 103q8 8 11 13q28 32 41 48v1
q196 239 303 474.5t56 293.5q-12 13 -36 15.5t-62.5 -7.5t-88.5 -33t-117.5 -64t-147 -96t-179.5 -133t-211 -172q-304 -258 -582 -556q-284 -303 -487 -591q-178 -258 -254 -486t-20 -317q52 -64 219 -44q164 19 391 122q276 128 690 388q407 255 899 616z" />
    <glyph glyph-name="D" unicode="D" horiz-adv-x="2448" 
d="M2597 1886q163 -130 -15 -547q-183 -427 -674 -1034q-281 -343 -485 -526q-199 -180 -334 -245q-133 -64 -211 -60q-70 3 -104 26q-92 59 -87 187q4 127 107 266q31 43 66 20q13 -11 -23 -42q-18 -18 -25 -27q-72 -96 -76 -204q-5 -110 76 -165q44 -27 128.5 -4t186.5 89
q147 99 333 290q189 192 389 437q431 534 627 1009q65 154 67 262t-53 149q-50 40 -138 41q-89 3 -213 -58q-165 -86 -367 -251q-199 -161 -423 -374l-8 -8l-3 -3l-3 -3h-1v-1q-73 -68 -145 -111v-1q-1 0 -1 -1l-2 -1q-34 -19 -71 -78q-266 -452 -542 -868
q-207 -319 -340 -487q-153 -187 -215 -185q-13 0 -14 17q-2 13 7.5 19.5t29.5 6.5q10 2 59 57q51 56 159 202q101 136 293 429q234 366 488 835q18 32 12 67q-10 43 21 137q36 107 113 263q79 157 152 284q79 137 148 236q71 108 116 94q31 -6 35 -49q5 -44 -40 -152
q-74 -166 -209 -414q-4 -8 -11.5 -22t-13.5 -26t-12 -23l-1 -1l-3 -6q-3 -5 -5 -10q-68 -129 -138 -251q-12 -20 -5 -23q4 -2 12 5q29 23 101 91l6 6q2 1 5 4q1 0 1 1t1 2h1q185 178 348 315.5t307 238t260 153.5t207.5 61t148.5 -39zM1272 1494q-167 -312 -185 -417
q-6 -29 4 -28q6 1 21 26q101 186 199 373q1 4 4 7q41 84 93 194q46 99 75 168q30 70 23 70q-9 0 -52 -73q-49 -81 -96 -163q-63 -113 -86 -157z" />
    <glyph glyph-name="E" unicode="E" horiz-adv-x="1996" 
d="M1987 492q12 9 18 0.5t-7 -18.5q-126 -94 -188 -141q-368 -277 -648 -479q-293 -212 -512 -341q-388 -224 -534 -224q-35 0 -53 9q-63 25 -54 104q15 84 91 193q75 107 170 210q97 105 156 161q159 154 331 294q31 26 9 26q-2 0 -6 -1q-1 -1 -3 -1q-101 -17 -140 31
q-28 28 -18 101q10 71 107 227q99 157 325 429q405 483 658 690q248 203 350 137q47 -32 48 -108.5t-49 -191.5q-39 -80 -106 -163q-85 -104 -125 -148q-73 -81 -68 -87q8 -8 106 84q76 71 145 128q83 67 140 88q23 6 33 -13.5t3 -45.5q-9 -24 -30 -38.5t-44 -13.5
q-59 3 -126.5 -42t-168.5 -142q-27 -24 -48 -34.5t-32 -9t-15 10.5q-5 20 28 61q69 80 148 183q76 100 110 183q60 158 -1 191q-10 9 -74 -8q-60 -16 -164 -97q-330 -265 -693 -672q-132 -150 -222 -268.5t-131 -190t-55 -122t-7 -72t26 -32.5q50 -26 170.5 23t363.5 222
q15 11 29 30q23 29 49 45q28 16 62 -15l2 -2l2 -2v-2q0 -2 1 -3q12 -37 -36 -64q-438 -271 -832 -651q-205 -200 -323 -359.5t-72 -202.5q19 -25 107 -6q92 20 291 128q209 112 568 353q370 248 938 669z" />
    <glyph glyph-name="F" unicode="F" horiz-adv-x="1836" 
d="M3235 1533q-3 -18 -16 -19q-11 -1 -13 5.5t1 22.5q1 2 1.5 6t0.5 6q15 124 -74 185q-53 42 -188 36q-133 -4 -391 -92t-680 -291h-2l-8 -4q-113 -52 -214 -98q-67 -32 -102 -85q-8 -12 -29 -41t-32 -45q-247 -347 -364 -512q-8 -12 -9 -18.5t3.5 -7.5t12.5 1
q223 59 504 124q3 1 8 2.5t6 1.5q16 5 22.5 3t4.5 -13q0 -7 -12 -7q-7 1 -32 -4q-317 -85 -499 -139q-67 -21 -96 -67q-1 -1 -3 -5q-1 0 -2 -2l-1 -2q-298 -424 -461 -703q-153 -264 -208 -470q-7 -27 -17.5 -41t-32.5 -14q-13 0 -13 3t8 14q10 10 16 30q57 213 201 480
q147 269 441 698q14 20 8.5 25t-27.5 -2q-102 -32 -280 -91q-20 -7 -58 -19q-242 -79 -338 -123q-97 -45 -156 -122q-16 -20 -31.5 -25.5t-40.5 -5.5q-24 0 -33.5 9t-3.5 31q18 74 220 161q118 51 318 106l108 32q142 43 301 87q74 23 112 81q150 217 375 532q9 12 20 28
q8 13 9 20t-3.5 9t-15.5 -2q-105 -44 -183 -71q-628 -220 -683 -20q-22 99 81 240t285 291q178 149 391 278q497 301 610 175q31 -25 29 -96q-1 -68 -73 -219q-71 -150 -246 -413q-11 -16 -6 -21t21 2q90 39 187 83q521 244 837 334.5t437 26.5q81 -48 96 -119t2 -140z
M1257 1184q106 37 227 85q69 33 87 65q103 151 170 266t96 179t35.5 112t1.5 65t-18 38q-16 31 -133 -1q-119 -32 -342 -164q-209 -126 -375 -261q-166 -133 -260 -253q-91 -118 -78 -193q10 -54 154 -46t435 108z" />
    <glyph glyph-name="G" unicode="G" horiz-adv-x="2154" 
d="M2361 1679q24 -8 33.5 -19t1.5 -32q-9 -23 -29.5 -36.5t-42.5 -12.5q-21 -3 -88.5 -57.5t-165.5 -154.5q-1 -2 -4 -4.5t-5 -3.5q-31 -19 -49 -4t-1 53l6 12l1 1q1 1 1 2q2 4 3 5q146 284 36 386q-113 86 -376 -46q-123 -58 -322 -199q-200 -142 -470 -432
q-470 -517 -643 -893q-81 -176 -120 -344q-38 -168 -8 -269q36 -102 119 -146q84 -44 178 -34q218 18 499 227t625 653q6 11 3 14.5t-12 -0.5q-331 -113 -774 -306q-151 -65 -145 -25q5 33 96 107q11 9 22 17q116 88 297 192q186 108 352 179q173 75 261 72q28 -3 46 -11
q12 -5 18 -14l1 -1q0 -1 1 -2t1 -2l1 -1v-1l2 -4q15 -55 -22 -110q-8 -13 -0.5 -17t15.5 1q12 3 186 43q17 3 15 -6q-3 -10 -18 -14v-1q-103 -22 -182 -44q-54 -16 -82 -56q-330 -432 -652 -678q-320 -245 -577 -260h-21q-235 3 -302 214q-70 239 109 636q203 437 658 940
q448 493 821 684q158 81 292 98q131 17 206 -45q134 -115 -53 -443v-1q-11 -19 -8.5 -23t23.5 10q76 67 120 126q40 51 66.5 70.5t56.5 9.5zM721 71q1 -4 22.5 1.5t63.5 21.5q56 21 216 85q281 117 522 197q43 14 58 38v1l1 1q18 23 26 36q9 21 6.5 32.5t-20.5 14t-33.5 1.5
t-31.5 -5q-83 -21 -226 -83q-134 -56 -279 -131q-131 -66 -234 -130q-93 -58 -91 -80z" />
    <glyph glyph-name="H" unicode="H" horiz-adv-x="2259" 
d="M2712 1937q10 -27 -17 -58q0 -1 -1 -2q-23 -32 -46 -33q-172 -105 -419 -460q-229 -328 -548 -870q-17 -26 14 -26q151 4 376 4q12 0 18 1q21 3 29 -1t0 -21q-7 -12 -38 -7q-16 2 -26 2q-218 0 -376 -7q-33 -4 -46 -28q-312 -532 -726 -1283q-6 -11 -9 -23
q-5 -11 -7.5 -16t-8 -9.5t-13.5 -4.5q-4 0 -14 2q-16 6 12 47q5 7 13 21q21 37 55.5 100.5t63 115t53.5 96.5q272 497 527 951q15 26 -12 26q-281 -17 -479 -52q-194 -33 -370 -88q-58 -20 -80 -61q-355 -559 -509 -843l-2 -4q-22 -44 -47 -45h-1q-3 0 -5 1h-5v1h-3
q-1 1 -2 1q-1 1 -2 1q-1 1 -2 1v1q-5 5 11 31q10 13 17 26q74 155 105 304q33 151 -4 219q-14 27 -50 58q-34 30 -93 27q-23 -3 -34 1t-10 21v1q0 12 23 27q7 9 140 76q134 68 397 164q56 20 80 67q286 458 487 797q115 197 157 299q39 95 44 126q0 1 0.5 4t1.5 4l-6 6
q-14 12 -10 26q9 24 39 44q31 20 53 20q18 0 36.5 -8t24.5 -22q12 -29 -33 -123.5t-211 -373.5q-150 -251 -330 -529q-32 -50 -91 -142.5t-76 -119.5q-8 -16 -1.5 -19.5t21.5 3.5q308 87 827 104q39 3 53 29v1l1 1q333 592 582 951q102 145 181.5 245t131.5 149t82.5 69.5
t55.5 27.5q37 10 51 -21zM544 230q9 16 3.5 20t-20.5 -3q-209 -82 -357 -157q-28 -16 -10 -27q29 -16 52 -50q78 -112 10 -339v1q-4 -17 -2 -19q1 -1 12 18q130 250 312 556z" />
    <glyph glyph-name="I" unicode="I" horiz-adv-x="1124" 
d="M1474 1936q8 -13 11.5 -25.5t-2 -59.5t-28.5 -113t-81 -191.5t-146 -288.5q-216 -400 -610 -1024q-21 -32 -14 -50l1 -1l4 -8q4 -9 10 -15q10 -15 -3 -25q-8 -6 -18.5 0t-17.5 18q-7 8 -18 -6q-225 -354 -508 -776q-21 -37 -47 -19q-4 10 -2.5 13.5t13.5 16.5
q0 1 0.5 1.5l1.5 1.5q12 11 23 26q284 425 491 774q25 43 16 63q-65 306 152 792q145 318 359 606q61 85 156 187q92 99 172 128q60 14 85 -25zM1118 1215l20 36q161 305 208 455q51 158 30 167q-32 6 -115 -73q-83 -80 -168 -192q-103 -137 -203 -297q-103 -165 -171 -313
q-72 -157 -120 -355q-48 -199 -24 -363q4 -19 20 7q315 539 523 928z" />
    <glyph glyph-name="J" unicode="J" horiz-adv-x="2118" 
d="M1927 492q19 4 17.5 -4t-16.5 -14q-156 -50 -398 -135q-60 -23 -111 -62q-44 -33 -68 -61h-1q-321 -367 -606 -604q-386 -316 -602 -322q-10 0 -30 2q-56 8 -83.5 44t-15.5 92q13 53 61.5 120t137 147.5t206 163t280.5 170.5t348 166q96 40 216 85q90 36 145 105
q92 111 187 232q133 172 283 395q141 208 235 377q58 119 84 218q25 98 -7 152q-27 39 -103.5 44t-190 -17.5t-283.5 -72.5q-428 -120 -699 -230t-406 -193q-137 -83 -190 -137q-50 -53 -49 -65q-3 -19 1.5 -33t25.5 -30t59.5 -29t107 -25.5t164.5 -23.5q22 -3 76 -5
q9 0 32 -1.5t36 -2.5q8 0 26 -1.5t27 -2.5q246 -17 355 -44q249 -63 247 -233q0 -36 -11 -76l-3 -9q-13 -59 -38 -59q-25 1 -28 13.5t8 30.5q6 14 8 21q29 90 -6 156q-35 68 -165 108q-120 34 -366 42q-43 2 -74 3q-91 3 -151 9q-213 21 -320 53q-104 32 -92 117
q11 68 93.5 143t245.5 170q352 211 1075 439q196 63 333.5 86t228 7t129.5 -76q58 -94 7 -249q-51 -154 -173 -347q-124 -195 -274 -396q-180 -241 -345 -443h-1v-1q-21 -26 -12.5 -31.5t30.5 4.5h1q253 82 402 120zM734 -324q221 191 511 520q23 26 15.5 33t-35.5 -4
q-114 -46 -170 -69q-191 -80 -354.5 -171t-270 -169.5t-184.5 -153.5t-115 -127.5t-46 -88.5q-9 -38 7 -62.5t44 -27.5q138 -12 289 82q153 94 309 238z" />
    <glyph glyph-name="K" unicode="K" horiz-adv-x="2316" 
d="M2310 492q10 10 22 2q13 -9 -7 -31q-248 -254 -481 -459q-237 -210 -420 -326q-159 -97 -321 -127q-161 -30 -258 22q-311 181 -106 816q6 20 1 21q-4 0 -12 -13q-3 -5 -23 -38q-3 -4 -8 -12.5t-6 -10.5q-173 -281 -286 -458q-106 -166 -235 -373q-23 -37 -49 -84
l-24 -51h-3q-12 -26 -16 -37q-1 -1 -1 -3q-15 -51 -54 -51q-37 0 -13 33l2 6q15 42 111 194q4 8 14 23t14 22q75 149 159 350q53 127 81 230t32.5 162.5t-5 105t-20 61.5t-23.5 28q-25 25 -2 64q26 39 67 37q62 -7 120 -36q18 -8 28 -12q24 -12 78 -32q47 -15 76 42
q151 267 317 572q21 37 61 111q55 99 95 184t57 134.5t28.5 91t9.5 54.5t-1 24q-11 7 -11.5 29.5t21.5 46t54 22.5q51 0 72 -43q46 -91 -232 -572l-4 -8q-76 -133 -120 -208q-144 -262 -221 -464q-9 -24 2 -31.5t30 -3.5q74 14 160 56q263 140 545 404q280 262 507 544
q226 280 311 458q12 21 58.5 32t64.5 -1q26 -22 -23 -83q-457 -580 -800 -908q-343 -329 -643 -480q-93 -46 -177 -60q-68 -13 -82 -60q-100 -317 -74 -507q25 -188 136 -252q91 -53 231 -30q142 23 294 107q180 102 421 314q245 218 481 462zM652 399l10 18q24 46 -11 53
q-97 28 -151 54q-18 8 -29 12t-20.5 6.5t-13.5 0.5t-4 -8q57 -113 24 -285q-32 -174 -111 -352q-2 -3 -11.5 -25t-14.5 -33v-1q-3 -7 -2 -8t5 5q0 1 1 2q139 231 235 400q61 105 72 125z" />
    <glyph glyph-name="L" unicode="L" horiz-adv-x="1648" 
d="M1949 -168q20 1 34.5 -0.5t26 -11t6.5 -28.5q-6 -20 -17 -22.5t-22 6.5q-16 9 -30 10q-434 -2 -821 -73q-391 -74 -663 -175q-274 -103 -359 -194q-10 -11 -43.5 -9.5t-42.5 14.5q-18 35 15 58q65 51 211 110q40 17 58 53q241 420 614 975q313 478 545 863
q185 308 176 448v5q-17 7 -7 43q7 23 27.5 39t43.5 16q50 0 68 -42q5 -17 6.5 -38t-11.5 -61t-37.5 -94.5t-72 -140.5t-115.5 -198q-157 -254 -365 -554q-71 -104 -213 -314l-106 -160q-296 -436 -499 -774q-5 -7 -6.5 -12t0.5 -7.5t4 -3t8 0.5t9 2t10 3l1 1q248 83 649 158
q400 73 918 107z" />
    <glyph glyph-name="M" unicode="M" horiz-adv-x="2714" 
d="M3413 2016q28 -36 -37 -146q-49 -85 -166 -237q-185 -241 -503 -591q-127 -148 -152 -185q-213 -322 -355 -559q-262 -450 -403 -780q-139 -328 -114 -522q5 -34 -1 -46t-24 -17q-40 -8 -41 31q0 457 608 1491l1 1q25 43 77 131v-1q16 28 7 25q-6 -2 -25 -21
q-6 -6 -17 -17.5t-16 -17.5l-8 -8q-1 -2 -4 -5l-7 -7q-466 -499 -695 -682q-307 -246 -410 -177q-115 66 76 452q180 364 597 969q195 284 274 423q77 135 61 148q-36 34 -220 -132q-187 -169 -483 -487q-638 -685 -1165 -1393q-5 -6 -16 -26q-27 -56 -46 -56q-12 0 -21 4
q-18 10 -21 30t11 42q581 863 794 1233q190 327 157 373l-1 1q0 1 -1 2q-3 8 -10.5 14t-25.5 8.5t-45 -11.5q-107 -54 -299 -178q-496 -313 -646 -228q-98 50 -59 202q15 46 64 53q35 6 50.5 -12t0.5 -42q-32 -44 -46 -102q-12 -56 32 -85q12 -6 34 -7.5t69 8.5t107.5 32.5
t156.5 72.5t209 122q118 75 202 133q135 94 203 127q77 39 115 4q45 -38 -9 -172q-54 -133 -220 -398q-157 -252 -456 -698q-16 -26 -13 -26t20 19q189 232 485 575q265 306 411 463q72 75 135 144q198 217 341 345q126 111 195 151q69 39 115 23q51 -19 31 -90
q-21 -74 -62 -150q-93 -179 -317 -502q-12 -17 -46 -66t-52 -76q-197 -284 -314 -461q-145 -219 -217 -364q-22 -47 -40 -88t-29 -71.5t-19 -56t-11.5 -43.5t-5.5 -32t-1 -22.5t2 -13.5t2 -8l1 -3q16 -28 68 -22q51 4 164 81q112 75 312 258q207 191 510 512q1 2 5 6l24 24
q6 6 21.5 22t25.5 26q68 73 141 169q75 97 108 149q257 406 475 715q11 18 75 101q58 74 135 155q76 78 132 91q38 5 55 -20zM3283 1808q22 48 13 64q-12 22 -100 -87l-2 -3q-54 -67 -170 -234q-127 -182 -268 -391q-15 -21 -6 -20t20 15q397 434 513 656z" />
    <glyph glyph-name="N" unicode="N" horiz-adv-x="2008" 
d="M2635 1951q69 -13 34 -121q-1 -1 -1 -5q-16 -46 -70 -46q-17 0 -23 7t-6 25q-98 -89 -230 -270q-128 -174 -231 -338q-670 -1074 -1023 -1566q-190 -266 -280 -365q-89 -98 -137 -92q-10 0 -21 3q-40 6 -52 59q-11 54 19 186q34 143 116 377q191 534 419 1089
q31 78 78 193q94 232 168 425q71 186 60 209q-40 6 -164 -154q-134 -172 -366 -497q-363 -504 -684 -1037q-34 -55 -149 -251q-21 -32 -43 -41v-1h-2q-28 -9 -38 5t3 38q11 15 20 21q13 10 23 28q255 431 463 815q201 373 263 596l-1 -1h-2l2 1h-3q-23 0 -34.5 16t-5.5 40
q6 19 36.5 48t40.5 35q22 13 58 16q38 3 63 -18q13 -13 15 -28.5t-16 -62t-44 -99.5t-86 -173q-27 -56 -74 -142q-14 -25 -10 -30q3 -3 18 18l5 7q343 503 548 768q193 243 270 219q21 -8 28 -33q12 -37 -56 -221q-67 -183 -228 -582q-44 -110 -58 -144q-58 -143 -158 -382
q-153 -356 -259 -649q-4 -11 -11 -31.5t-8 -22.5q-89 -245 -121 -356q-31 -108 -22 -180q25 -58 124 59t309 416q218 308 783 1229q135 220 165 268q47 76 122 193q88 134 161 234q99 133 154 196.5t87 84.5t62 15z" />
    <glyph glyph-name="O" unicode="O" horiz-adv-x="2420" 
d="M2215 494h1q8 3 15 0.5t6.5 -11t-11.5 -16.5q-290 -188 -470 -298q-107 -63 -161 -120v-1q-225 -243 -387 -379q-444 -372 -728 -421q-24 -3 -43 -3q-57 2 -88.5 22.5t-39.5 46.5q-26 65 21 179q7 19 -22 19h-6q-48 0 -83 7q-2 0 -5.5 0.5t-5.5 1.5q-8 2 -11 3
q-140 36 -165 172q-32 185 158 523q185 330 561 775q154 182 305 335t284 265t258.5 197t232 135.5t200 74.5t167 21t128.5 -31q188 -96 136 -423q-55 -330 -352 -823q-186 -302 -376 -533v-1q-13 -15 -10.5 -20t20.5 6q225 137 471 297zM395 -382q48 79 128 181
q267 330 478 479q210 148 310 96q68 -41 50 -150q-16 -108 -124 -252q-16 -21 -38.5 -29.5t-42.5 -0.5q-10 6 -18 17q-6 16 -1.5 23t19.5 14q20 8 47 33q55 59 84 141v1q17 47 10.5 82.5t-34.5 46.5q-15 5 -49 -4.5t-97 -44.5t-138 -92t-180.5 -160.5t-215.5 -235.5
q-69 -83 -109 -147q-8 -14 -0.5 -17t19.5 1q163 36 436 156q258 116 570 296q51 31 99 74q50 45 65 64q202 239 404 564q258 434 305 747q46 310 -107 396q-84 41 -226 2q-140 -37 -317 -146q-207 -127 -439 -332t-466 -481q-355 -419 -545 -741q-187 -317 -163 -475
q9 -47 48 -89q38 -42 90 -56q31 -7 83 -6q44 7 64 43q0 1 1 2zM1173 -313q132 111 307 295q16 19 13.5 23t-22.5 -7q-638 -377 -1009 -466q-42 -11 -51 -32q-45 -103 -25 -148q22 -36 98 -26q116 6 287 88q174 81 402 273z" />
    <glyph glyph-name="P" unicode="P" horiz-adv-x="1811" 
d="M2831 1777q-15 -129 -170 -289q-153 -158 -420 -340q-521 -358 -1223 -611l-15 -6h-2l-100 -36q-63 -23 -187 -67q-74 -27 -90 -56l-1 -2q-1 -2 -2 -2q-29 -45 -36 -63q-110 -233 -207 -385q-92 -147 -188 -266q-2 -4 -6 -8q-52 -60 -62 -70l-1 -1q-1 -1 -1 -2l-1 -1
q-29 -30 -53 -40v-1q-38 -16 -59 5q-15 17 6 44q12 16 34 31q4 4 12 13.5t10 11.5v1q11 13 35 50q48 72 87 130q148 219 332 510q12 19 9 29t-21 4q-119 -37 -258 -68q-5 -1 -13 -1q-19 0 -31 11.5t-11 31.5q2 25 20.5 44.5t39.5 14.5q104 -25 253 13q1 0 4 1t5 1t3 1
q61 19 78 78q28 78 52 160q27 107 -6 155q-32 48 -91 65q-48 15 -102 52t-78 99q-36 127 134 330q244 280 681 475q537 233 1158 227q121 -1 211.5 -19t142.5 -44.5t83 -63t40 -71.5t5 -75zM2241 1208q227 159 362 321t145 261q5 84 -111 116q-115 31 -320 33h-37
q-257 0 -500 -42.5t-427 -109t-343 -153t-262 -167.5t-169 -159q-41 -46 -83 -113q-42 -68 -36 -140t109 -127l12 -6q68 -30 108 -71q40 -40 29 -130q-6 -38 -10 -58v-1q-6 -33 6 -25q8 6 19 23l81 123q116 176 217 339q95 152 105 207q6 23 41 33t60 2q20 -8 24 -28t-9 -43
q-74 -119 -215 -325q-24 -36 -313 -452q-12 -16 -14 -26t4 -13t13 -2.5t15 3.5q138 48 261 93q340 122 665 293q326 173 573 344zM354 -55q37 58 74 132q4 9 2.5 9t-8.5 -8q-15 -23 -43 -64.5t-41 -60.5q-75 -112 -170 -248q-7 -10 -19.5 -27.5l-17.5 -24.5q-6 -8 -5 -11
q2 0 7 4q47 45 96 114q52 69 125 185z" />
    <glyph glyph-name="Q" unicode="Q" horiz-adv-x="2170" 
d="M1771 -570q-6 -43 -53 -51q-595 -119 -856 -119q-48 0 -92 3q-306 18 -353 162q-7 18 -32 11h-1q-46 -12 -83 -17q-57 -10 -109 -10q-139 0 -179 73q-13 19 -12 62q2 44 43 109q15 22 38 30.5t43 0.5q21 -10 23.5 -32.5t-17.5 -38.5q-25 -18 -43 -49q-18 -32 -14 -50
q11 -39 62 -58t133 -4q39 8 109 26q33 11 36 36v2h1v2q24 99 132 211l3 3l3 3l3 3q17 19 1 19q-10 0 -40 -10q-1 0 -2 -1l-6 -2q-323 -111 -436 11q-66 82 -12 269q54 188 201 438q152 257 362 528q416 539 838 787q397 223 643 114q113 -51 162 -192q49 -139 -9 -378
q-59 -238 -273 -578q-380 -591 -902 -964q-297 -209 -581 -308q-17 -8 -26 -16t-8 -17q3 -20 20.5 -41t55.5 -43.5t114 -37t178 -14.5q150 2 339 33q193 32 340 70q151 39 188 65q23 17 46 4q24 -12 22 -44zM910 -75q-152 -97 -264 -198q-112 -102 -157 -193
q-6 -13 0.5 -16.5t19.5 1.5q200 66 436 209q238 144 483 389q249 249 481 629q111 184 189 384q80 201 93 346q7 115 -35.5 195t-122.5 117q-53 25 -122 26t-153 -23.5t-178.5 -71.5t-201 -122t-217 -171.5t-231 -222.5t-239.5 -272q-272 -340 -406 -577
q-132 -233 -163 -373q-28 -138 6 -181q31 -43 84 -56.5t115 -3.5t149.5 44t170 75.5t193.5 103.5q7 4 19 15q13 16 30 22q24 8 36 -18v-1q0 -1 1.5 -4.5t2.5 -5.5q0 -4 1 -5q2 -26 -20 -41z" />
    <glyph glyph-name="R" unicode="R" horiz-adv-x="2143" 
d="M2141 494q4 3 10.5 1.5t8.5 -6t-6 -13.5q-381 -362 -699 -573q-318 -213 -530 -217q-57 0 -107 15q-223 61 -228 362v1q0 14 -8 18.5t-21 -14.5q-56 -95 -169 -276q-94 -152 -171 -270q-53 -83 -92 -144q-13 -20 -24 -36q-18 -30 -31 -44t-30 -14q-34 0 -10 39
q13 21 35 40q50 63 273 457q6 11 89 154t132 229q204 356 311 577q111 227 132 286q-2 16 2 27q7 23 28.5 34.5t46.5 7.5q43 -9 44 -42q2 -11 -3 -25q-21 -63 -145 -282q-111 -195 -258 -445q-24 -42 -7 -41q7 0 18 5q457 215 787 417q332 205 577 414q180 156 253 272
q75 119 85 194q14 87 -26 139q-39 53 -96 72q-115 42 -289 42q-173 2 -374 -63q-173 -54 -424 -182q-255 -129 -523 -355q-116 -102 -213 -198.5t-166.5 -177.5t-122 -154.5t-83 -132.5t-44.5 -108.5t-11.5 -86t19.5 -61.5q42 -53 137 -39q94 13 204 84q111 71 195 185
q17 20 41.5 20t38.5 -16q13 -16 8 -38.5t-25 -40.5q-202 -169 -375 -222q-170 -52 -250 32q-33 39 -35.5 98.5t33 149.5t110.5 198.5t209 252t316 303.5q312 269 636 427q323 158 598 204q279 47 453 -14q219 -81 183 -292q-54 -255 -487 -597q-458 -372 -1334 -766
q-51 -23 -60 -70q-20 -185 34 -286q56 -104 121 -129q143 -58 348 20q204 77 450 260q247 183 511 434z" />
    <glyph glyph-name="S" unicode="S" horiz-adv-x="2288" 
d="M2283 494q21 7 19.5 -6t-20.5 -22q-176 -68 -593 -242q-358 -149 -766 -337q-27 -17 -13 -33q116 -144 40 -280q-21 -38 -58.5 -71t-100 -65.5t-164 -53.5t-230.5 -25q-15 -1 -45 -1q-87 0 -139 19t-55 70q-3 57 82 121q89 66 274 164l6 4q112 62 249 126q34 18 11 34
q-77 55 -164 107q-227 145 -327 227q-289 234 -269 451q3 30 11 60q51 191 289 401t679 453q593 325 1044 387q433 52 540 -157q32 -60 10 -159q-21 -99 -125 -264q-95 -153 -253 -305q-159 -152 -418 -339q-472 -341 -701 -388q-121 -25 -135 42q-1 6 -1 12q5 112 145 308
q146 202 349 403q212 211 410 347q23 15 44.5 13t32.5 -19q12 -19 8 -60.5t-26 -47.5q-86 -15 -207 -101q-118 -85 -240 -201q-123 -118 -210 -217q-144 -162 -218 -281q-69 -115 -38 -149q9 -8 30 -9t57.5 7t83 24t110.5 47.5t136 73t163.5 104t188.5 137.5
q131 101 239 197t185 178t134.5 157.5t90.5 137.5t49 116.5t15 95.5t-16 73q-84 157 -449 113q-207 -27 -467 -114q-259 -87 -536 -234q-393 -211 -632 -408q-240 -196 -288 -356q-10 -36 -12.5 -70.5t4 -67.5t15 -61t29 -59t36.5 -54t47 -53t52 -49.5t59.5 -49.5
t60.5 -46.5t64 -47.5l82 -62q11 -8 34 -24q24 -16 124 -86q64 -45 136 -101q28 -23 64 -4h1q376 172 791 338q419 167 592 232zM909 -325q19 72 -49 149q-22 24 -55 6q-157 -76 -282 -144q-186 -101 -251 -160q-1 0 -2 -1q-47 -47 -10 -81q32 -29 159 -20q173 12 311 68
q135 55 179 183z" />
    <glyph glyph-name="T" unicode="T" horiz-adv-x="1505" 
d="M3760 1870q-3 -27 -20 -43t-44 -10q-94 24 -395 9q-290 -14 -705 -53q-435 -40 -805 -82q-57 -6 -73 -37l-4 -8l-1 -1q0 -1 -1 -2v-1q-42 -79 -113 -189q-177 -276 -438 -653q-264 -384 -528 -762q-299 -429 -453 -655q-5 -7 -5 -8q-21 -33 -42 -33q-3 0 -4.5 9t2 24.5
t12.5 28.5q136 196 400 588q184 269 488 723q67 103 75 238q9 135 -49 260q-56 126 -188 209q-131 83 -343 83h-43q-34 1 -73 0q-100 -6 -202 -10q-100 -2 -125 -1q-22 0 -35 1.5t-25.5 9t-16.5 22.5q-6 31 23 62q20 20 72 25t153 -2q34 -2 57 -2q66 -2 122 -7
q347 21 1174 102q44 6 54 45q39 110 26 133h-3q-14 0 -19 11.5t-4.5 22.5t3.5 19q7 24 27 40t44 17h1q68 0 80 -48q12 -50 -46 -185q-7 -19 -4 -28t14 -9h24q180 17 427 42q300 29 1467 140q28 3 46.5 -5t15.5 -30zM1138 876q277 418 394 613q48 84 77 143q10 26 1 32.5
t-32 3.5q-526 -60 -800 -95q-75 -8 -17 -39l-3 1q238 -111 322 -288t45 -366v-2q-2 -11 -0.5 -13t5 0.5t8.5 9.5z" />
    <glyph glyph-name="U" unicode="U" horiz-adv-x="1781" 
d="M2586 2062q14 -33 -19.5 -87.5t-113.5 -143.5q-17 -19 -54.5 -62.5t-56.5 -64.5q-273 -316 -726 -810q-73 -80 -97 -122q-169 -293 -326 -597q-155 -299 -269 -578q-109 -267 -118 -422q0 -8 1 -13q10 -61 -46 -69h-5q-23 3 -32.5 20t-1.5 41q281 773 597 1390
q21 41 7 37q-9 -3 -31 -25q-110 -112 -164 -166q-336 -333 -562 -516q-216 -174 -343 -239q-122 -62 -163 -50q-63 15 -53 111q11 97 63 233q56 141 123 277q74 149 126 244q212 388 370 651q88 147 168 288q53 95 100 192q38 80 59 130q-12 9 -2 33q27 56 72 56
q42 0 57 -34q20 -40 -23 -132q-45 -97 -164 -280q-298 -457 -544 -909q-110 -205 -183 -357t-105 -235.5t-40 -134t0 -64.5t27 -15q59 0 187 86q122 82 279 214q153 127 297 261q145 134 246 234q116 116 209 213q46 49 83 99q39 52 57 84q192 339 336 545q236 338 415 512
q182 177 274 201q65 17 89 -26zM1875 1347q-72 -102 -200 -312q-14 -23 -6 -24t20 15q471 514 692 772q74 83 77 87l3 3q0 1 1 2q8 10 6 19v2q2 0 6 -4q17 30 9 42.5t-33 5.5q-67 -31 -225 -184q-155 -151 -350 -424z" />
    <glyph glyph-name="V" unicode="V" horiz-adv-x="1356" 
d="M2519 2132q14 -17 13.5 -44.5t-22.5 -33.5q-139 -26 -377 -239q-243 -217 -532 -552q-294 -340 -592 -739q-303 -406 -552 -800q-51 -79 -103 -147q-4 -6 -13 -17.5t-13 -16.5q-54 -74 -97 -73q-37 6 -39 44q0 34 14 95q2 9 6 29q13 67 42 208q9 43 30 144.5t32 156.5
q36 171 43 202q153 695 180 1006q13 171 1 234q-6 32 -16.5 47.5t-26.5 14.5q-32 0 -97 -53q-61 -51 -121 -117q-47 -53 -93 -86q-43 -30 -104 -52q-59 -22 -76 9q-10 18 -1 51.5t31 37.5q3 0 9.5 0.5t9.5 1.5q70 8 116 22t85 47q64 58 103 101q60 66 109 102q52 38 103 19
q49 -19 70.5 -86t16.5 -216.5t-54 -419.5t-143 -667q-2 -9 -6.5 -25t-12 -45t-13.5 -52q-54 -202 -89 -343q-46 -189 -57 -274q0 -15 7.5 -14.5t20.5 18.5q42 60 89 129q109 164 313 455q207 293 472 630q279 353 589 685q318 340 666 622q21 17 43.5 17t35.5 -16z" />
    <glyph glyph-name="W" unicode="W" horiz-adv-x="3309" 
d="M3305 494q18 9 23 -4q5 -14 -19 -27q-239 -131 -437 -206q-201 -74 -331 -74q-48 0 -91 8q-31 5 -47 -22h-1q-323 -440 -562 -668q-295 -282 -458 -240q-78 20 -105 111.5t-10 210.5t65 254q73 195 237 448q31 46 58 91q37 60 -18 56q-36 -2 -95 -27q-205 -91 -381 -188
q-68 -39 -99 -82q-238 -333 -478 -623q-343 -411 -484 -420h-4l-1 -1h-2q-65 5 -64 75q6 84 109 229q101 142 275 310q205 199 498 394q64 46 99 95q224 323 429 650q234 377 332 605t98 275q-12 7 -5 38q7 24 27.5 40t44.5 16q22 0 45 -16t30 -36q10 -26 -15 -90.5
t-113 -239.5q-125 -243 -334 -575q-179 -285 -383 -579q-16 -24 -8 -26.5t28 9.5v1q136 76 316 157q80 37 131.5 54.5t87 18t52.5 -19.5q13 -16 13.5 -37t-13 -52.5t-31 -61.5t-50.5 -79q-22 -31 -38 -57q-143 -209 -204 -371q-63 -177 -68 -311q-3 -131 50 -169
q20 -17 83 -6q61 10 177 88q110 74 286 256t411 497q24 35 -5 45q-40 18 -63 35q-147 108 -156 353t120 595q2 12 8 23q2 3 4.5 9t3.5 8l6 18q4 15 13 30q133 313 288 475q155 163 279 197q167 47 249 -72q45 -70 46 -189.5t-46 -291t-172 -414t-317 -522.5
q-28 -41 -152 -215q-19 -27 2 -31q166 -23 379 53q212 75 457 215zM2335 1220q-129 -337 -133 -587q-4 -251 120 -348q30 -22 60 -35q30 -9 53 24q77 105 140 198q168 247 286 488q114 236 172 423q43 144 34 264q-9 117 -54 179q-54 63 -150 32q-51 -16 -115 -61.5
t-137 -120.5t-147 -194.5t-129 -261.5zM877 44q9 14 4.5 16.5t-16.5 -6.5q-299 -201 -493 -402q-180 -183 -254 -304q-69 -113 -74 -169q-2 -13 1 -19q9 -20 41 -13q2 1 6 1q3 1 11 5q36 18 140 116q111 105 260 283q186 229 374 492z" />
    <glyph glyph-name="X" unicode="X" horiz-adv-x="3244" 
d="M3242 493v1q11 8 16 -3q5 -10 -5 -20q-207 -185 -402 -337q-192 -148 -342 -221q-195 -93 -343 -93q-77 0 -143 26q-276 113 -278 683q0 12 -8.5 13.5t-24.5 -9.5q-1336 -1057 -1662 -1149q-10 -3 -20 -3q-20 0 -25 7.5t-2 30.5q3 41 60 42q50 -2 213 88q158 85 507 334
q332 236 930 712q11 8 22 26.5t13 40.5v1q5 104 14 185q37 343 104 641q69 299 100 403q7 24 27.5 40t43.5 16q27 0 54 -21t19 -43q-73 -164 -153 -482q-79 -313 -109 -663q-1 -17 5.5 -21t25.5 10q556 451 1009 862q440 399 546 537q21 24 54 24q32 0 52 -17q17 -17 13 -43
t-27 -48q-101 -95 -563 -486q-474 -399 -1052 -865q-1 -1 -16 -13q-2 -2 -6.5 -5.5t-6.5 -5.5q-40 -31 -41 -75q-7 -252 48 -442q55 -189 200 -263q50 -20 108 -19q158 -4 416 142q258 148 628 482h1z" />
    <glyph glyph-name="Y" unicode="Y" horiz-adv-x="3026" 
d="M3025 496l1 1q13 6 14 -7q0 -15 -17 -27q-299 -167 -593 -309q-290 -141 -639 -275q-2 0 -4 -1l-1 -1q-50 -21 -89 -64l-2 -2q-264 -324 -630 -521q-167 -93 -351 -141q-184 -49 -348 -54q-164 -6 -265 31q-101 38 -101 116q6 67 161 156q153 87 428 157
q587 142 1016 290q50 21 68 45q78 99 154 218q15 25 43.5 69t39.5 62q17 27 7 28t-30 -13v-1q-81 -51 -127 -77q-394 -226 -616 -232q-12 0 -32 2q-64 10 -87 39t-26 52q-11 65 47.5 149t186.5 203q77 73 132.5 129.5t85.5 93.5t46 64t14.5 39.5t-9.5 21.5q-69 43 -196 6
q-125 -37 -235 -120q-109 -83 -122 -173q-4 -20 -38.5 -15.5t-48.5 21.5q-13 17 -7.5 39t26.5 40q120 98 261 172q140 74 256 98t164 -24q51 -55 -13.5 -163.5t-253.5 -285.5q-12 -12 -18 -17q-103 -93 -168 -169q-68 -77 -54 -128q33 -84 257 -19q225 64 574 288q1 1 5 3.5
t6 4.5h1q98 70 149 157h1q428 666 751 1062q367 447 508 447q52 -1 66 -52q13 -73 -66 -223q-82 -154 -227 -342q-149 -193 -340 -387q-307 -309 -569 -505q-27 -21 -35 -28q-49 -41 -121 -150q-22 -35 -64.5 -101t-61.5 -95q-40 -64 -92 -135v-1q-10 -15 -4.5 -20.5
t19.5 -2.5q612 233 1213 577zM1589 -212q8 12 3 14.5t-18 -2.5q-446 -158 -1020 -300q-317 -79 -442 -182q-1 0 -2 -1q-108 -89 -22 -130q6 -4 18 -7l1 -1h1q47 -17 110 -26.5t154 -7.5t189.5 20t221 62t242.5 111q19 10 28 16q5 3 17 9q293 163 519 425zM2191 540
q-18 -26 -7.5 -28.5t26.5 11.5q243 192 503 458q70 70 177 194q112 132 202 256q98 134 156 251q57 117 35 181q-9 4 -122 -89t-290 -302q-293 -357 -680 -932z" />
    <glyph glyph-name="Z" unicode="Z" horiz-adv-x="2760" 
d="M2401 -544q11 -17 4 -39.5t-29 -38.5q-44 -36 -133 -36q-292 0 -780 478q-37 32 -79 -2q-271 -185 -471 -286q-205 -105 -373 -156q-159 -48 -261 -46q-147 0 -208 74q-71 84 -39 221q31 136 157 284q174 198 413 281q273 92 534 -12l10 -4q149 -58 281 -184h1
q36 -32 84 7q4 4 18 14q83 55 271 216q185 158 470 475q363 404 447 689q35 123 26 229q-8 108 -75 166q-100 79 -259 84q-156 4 -335 -47q-173 -49 -332 -136q-158 -87 -252 -185q-95 -100 -92 -192q1 -21 -57.5 -32t-74.5 4q-15 14 -12.5 36t20.5 42q386 389 825 527
q417 122 634 -46q90 -73 115 -188t-20 -263q-56 -174 -169 -351q-110 -175 -311 -397q-314 -342 -515 -503q-200 -161 -276 -201q-51 -35 -19 -62q216 -212 377 -318q160 -106 248 -128q50 -13 89 -1t57 32l13 12q23 14 44 8t34 -25zM122 -562q64 -60 164.5 -67.5t246.5 40
t346 161t451 292.5q56 41 17 72q-124 125 -255 187q-170 67 -341 43q-170 -24 -310 -103q-141 -81 -223 -177q-121 -151 -136 -274t40 -174z" />
    <glyph glyph-name="bracketleft" unicode="[" horiz-adv-x="1420" 
d="M346 -597q-61 -2 -119 -6q-90 -10 -156 -1q-63 9 -68 74q-3 65 85 220l117 202q119 201 348 564q233 367 571 859q228 341 339 426q55 41 132 57q76 18 139 21q65 3 73 2q39 -4 46.5 -21t-9.5 -44q-20 -39 -48 -40q-29 -2 -48 13q-27 19 -75 13.5t-94.5 -21.5t-66.5 -32
q-98 -87 -336 -432q-26 -38 -41 -59q-164 -234 -327 -472q-192 -278 -360 -532q-171 -260 -288 -458q-112 -195 -114 -252q4 -54 106.5 -61t216.5 25q55 16 54 -7q0 -2 -1 -5q-8 -22 -24 -28t-47 -5h-5z" />
    <glyph glyph-name="backslash" unicode="\" horiz-adv-x="1202" 
d="M903 -557q-13 -11 -23 0t-21 40q-4 9 -12 25q-220 427 -631 1279q-395 819 -582 1271q-11 31 -6 60t24 46q33 27 55 -1.5t30 -73.5q53 -225 264 -704q213 -480 459 -990q279 -572 403 -820q18 -38 27 -55q10 -19 14 -45t-1 -32z" />
    <glyph glyph-name="bracketright" unicode="]" horiz-adv-x="1460" 
d="M-103 -580q-86 -29 -256 -19q-132 7 -142 29l1 6q8 14 18 16t22 -3q1 0 7.5 -1.5t10.5 -2.5q20 -4 88 -8q74 -5 149 1q77 6 115 33q110 100 300 379q198 289 408 632q225 367 398 666q187 322 275 482q39 72 -92 93q-101 16 -221 0q-8 -1 -15 -2q-28 -4 -34.5 6t3.5 29
q33 70 95 65q13 -1 37 -3l70.5 -4.5t63 -5t59 -8t48 -11.5t40.5 -16.5t27.5 -23t17 -30.5t1 -39t-12.5 -50t-31 -61q-575 -973 -958 -1532q-388 -568 -492 -617z" />
    <glyph glyph-name="asciicircum" unicode="^" horiz-adv-x="538" 
d="M362 1556q-38 0 -19 37q2 3 4.5 9t4.5 10t4 7q2 4 7 14.5t7 15.5q49 104 61 172q13 67 -20 67q-27 -2 -64.5 -33.5t-143.5 -148.5q-71 -83 -91 -143q-6 -22 -17 -27.5t-55 -5.5q-19 0 -28 6t-8.5 17t4 21t13.5 25t15.5 22t14.5 18q4 4 5 6q4 5 8.5 10.5t5.5 6.5
q7 10 53 59q232 248 321 238h4q17 0 29.5 -12t7 -79t-51.5 -183q-2 -5 -11 -26l-10 -22l-5.5 -11t-5.5 -12q-5 -12 -6 -24q-2 -12 -4 -18t-9 -11t-20 -5z" />
    <glyph glyph-name="underscore" unicode="_" horiz-adv-x="1270" 
d="M728 -176h15q18 1 21.5 -2.5t-2.5 -20.5q-9 -21 -28 -16q-5 1 -19 1l-463 6q-58 0 -80 -5h-1q-71 -17 -57 14q23 49 73 49l23 -1q4 -1 14 -1.5t15 -0.5q104 -8 159 -11q62 -5 192 -11q89 -4 138 -1z" />
    <glyph glyph-name="grave" unicode="`" horiz-adv-x="307" 
d="M202 945q-26 32 -48.5 73t-32.5 65.5t-10 28.5q-11 40 32 68q13 7 29 9t28 -2t11 -14v-1q-1 -5 -6 -20q-7 -17 -8 -27q-9 -62 37 -144q4 -8 11 -14q5 -5 7.5 -8t3 -8t-5.5 -9.5t-19 -9.5t-29 13z" />
    <glyph glyph-name="a" unicode="a" horiz-adv-x="972" 
d="M969 494q9 7 16 2q7 -6 -15 -23l-2 -2q-236 -169 -417 -282q-181 -110 -273 -115q-48 0 -79 21q-84 62 -27 233q7 22 4 26t-8 1.5t-12 -9.5q-94 -85 -155 -125q-138 -90 -202 -61q-19 9 -21.5 27.5t13.5 48.5t23 41t27 39q1 0 1 1l2 1q62 82 177 201q83 87 158 140
q77 54 128 29q45 -27 26 -108q-2 -13 7 -17q20 -14 -5 -59l-1 -1q-86 -170 -106 -257q-18 -82 0 -102q15 -22 48.5 -25t92 16.5t141 63.5t198.5 118t261 177zM188 465q45 70 32 87h-1q-1 1 -2 1v1q-26 2 -93 -49q-63 -46 -140 -120q-74 -71 -115 -125q-1 0 -1 -1t-1 -2
q-9 -12 -13 -18t-11 -18.5t-1.5 -18t22.5 -3.5q57 9 136 60q81 54 153 124q20 24 19 34h1q5 27 15 48z" />
    <glyph glyph-name="b" unicode="b" horiz-adv-x="1272" 
d="M1269 495q11 4 11 -3q-2 -9 -13 -14q-90 -36 -238 -99q-66 -30 -77 -65v-1l-1 -1q-15 -31 -56 -102q-246 -377 -710 -666q-198 -121 -380 -191q-184 -73 -299 -74h-1q-66 1 -91.5 25.5t-25.5 54.5q-6 95 197 257q159 127 601 380q344 194 616 312q44 20 52 44
q21 56 24 107q3 53 -27 75q-21 12 -58.5 13t-92 -12t-120.5 -38t-147.5 -67.5t-169 -97.5t-189.5 -131t-204 -165q-8 -6 -18.5 -11.5t-29 -8.5t-27.5 12q-42 58 74 260q156 274 569 827v1h1q395 508 649 783q100 109 168.5 167.5t95 70.5t50.5 11q44 -3 52 -48
q1 -70 -88 -217q-88 -144 -186 -276q-94 -127 -126 -166q-118 -152 -342 -382q-225 -231 -519 -476v-1q-1 0 -2 -1q-67 -54 -124 -116q-13 -15 -35 -45q-2 -3 -5 -5q-192 -272 -186 -323q0 -4 1.5 -6t7.5 -0.5t16 8.5q220 176 428 304q213 131 380 188q170 58 252 12
q30 -16 53 -61q22 -42 5 -129q-2 -14 3 -17.5t16 2.5q1 1 3.5 2t4.5 1l4 2q171 67 254 97zM809 259q10 16 2.5 19t-18.5 -5q-273 -127 -591 -307q-306 -177 -472 -298q-165 -120 -224 -188q-60 -69 -54 -95q21 -60 132 -43q111 16 276 96q166 80 346 205q175 120 341 283
q159 156 262 333zM156 592q-15 -23 -7 -21q6 1 23 16q286 240 553 534q264 291 437 539q172 247 183 353q-77 -66 -286 -293q-207 -224 -557 -667q-184 -242 -346 -461z" />
    <glyph glyph-name="c" unicode="c" horiz-adv-x="997" 
d="M997 496q8 4 12 -4q4 -7 -8 -15q-375 -217 -595 -318q-223 -101 -339 -101q-84 0 -125 27q-42 28 -55 61q-35 77 16.5 195.5t172.5 246t281 229.5q224 142 356 193q153 60 189 -4q24 -52 -13 -110q-39 -61 -97 -110t-105 -76q-35 -21 -63 -9l-4 2q-7 5 -11 12
q-15 21 10 54q17 17 38.5 29.5t31.5 8.5q28 -15 62 10l2 2h1l14 10l3 3q18 18 21.5 38t-13.5 39q-24 13 -136 -31t-275 -147q-71 -45 -133 -95t-108.5 -97.5t-83.5 -95.5t-59.5 -91.5t-34 -82.5t-10 -70.5t14.5 -53.5q47 -69 252 -23q132 33 345 136q218 106 446 238z" />
    <glyph glyph-name="d" unicode="d" horiz-adv-x="1303" 
d="M1299 494q14 9 19 1q6 -9 -17 -28q-80 -64 -204 -142q-123 -77 -249 -134q-129 -59 -237 -75t-165 38t-35 204q2 14 -2 16.5t-11 -4.5l-2 -2q-6 -4 -9 -7v-1h-1q-253 -200 -386 -275q-135 -74 -188 -70q-43 2 -59 24q-36 44 -6 122t91 160q60 81 118 137q51 49 95.5 80.5
t73.5 43.5t53 13.5t36.5 -2.5t21.5 -12q34 -30 18 -88.5t-78 -131.5q-18 -20 -41 -25.5t-41 6.5q-17 12 -17 34t19 42q10 10 21 16q36 24 18 34q-12 4 -51 -23q-41 -28 -80 -66q-99 -95 -166.5 -186.5t-37.5 -117.5q102 -66 565 312q66 60 80 105q1 2 2 5t1 5q1 1 1.5 3.5
t0.5 3.5q1 1 1 3q1 1 1 3q131 410 310 744q183 338 374 580q194 245 363 378q170 134 269 134q92 0 114 -93q28 -194 -240 -603q-106 -166 -319 -414q-208 -244 -563 -566l-1 -1q-95 -85 -142 -124q-1 0 -1 -1l-2 -1q-3 -3 -5 -4v-1h-1q-1 -1 -22 -19q-29 -23 -61 -70
t-42 -115q-20 -183 140 -176q178 8 532 234q75 48 144 97zM546 571q-3 -9 -3.5 -14.5t1 -7t4.5 -1t7 3.5t7.5 5.5t8.5 6.5q141 126 145 130q9 8 18 17q335 302 545 557q206 250 308 407q129 197 176 348q46 148 34 203q-4 19 -12.5 25t-16.5 4q-224 -87 -423 -300
q-197 -211 -362 -478q-163 -265 -276 -510q-109 -237 -161 -396z" />
    <glyph glyph-name="e" unicode="e" horiz-adv-x="853" 
d="M860 495q7 -5 -8 -17h-1v-1q-258 -161 -488 -257q-232 -96 -355 -86q-80 4 -114 55q-38 74 18 185q18 35 35 58q15 22 30 42q68 78 114 115l8 8q12 10 33 26.5t27 20.5q207 150 303 114q24 -10 35.5 -31t2.5 -48q-24 -65 -156 -115q-123 -46 -231 -69q-40 -7 -89 -56
l-1 -1q-1 -2 -5 -6q-59 -67 -77 -144q0 -52 39.5 -80t99.5 -28q111 0 313 83q193 79 457 232q7 4 10 0zM122 527q-17 -13 -7 -13q2 0 6 1q65 16 129 38q58 19 91.5 39.5t27.5 36.5v1l-1 1v1q-8 10 -28 8q-15 -1 -38 -9h-1v-1q-2 0 -6 -2h-2q-25 -10 -61 -30
q-59 -32 -110 -71z" />
    <glyph glyph-name="f" unicode="f" horiz-adv-x="859" 
d="M-24 90q19 -13 32 -35q105 -169 -261 -678q-61 -88 -214 -276q-175 -215 -323 -387q-160 -186 -256 -282q-120 -117 -191 -145q-1 -1 -3 -1h-1l-4 -2q-37 -10 -53 14q-14 27 10 87.5t91 173.5q33 59 42 74q104 182 217 364q156 247 338 543q12 19 36 59q248 405 579 927
q315 496 742 1117q15 21 37.5 29t44.5 1q58 -22 18 -77q-365 -494 -993 -1434q-10 -19 5 -19q14 0 52 14q290 119 533 203q249 87 403 135q12 4 14 -4q2 -9 -17 -17l-2 -1q-124 -40 -361 -131q-220 -85 -495 -212q-45 -20 -20 -40zM-282 -598q140 200 183 322q42 122 33 184
q-9 61 -23 78q-26 43 -93 36q-48 -2 -92 -68q-277 -419 -503 -776q-229 -361 -364 -598q-134 -234 -117 -260q33 -21 132 69q101 90 230 240q144 167 262 315q125 156 227 290q104 138 125 168z" />
    <glyph glyph-name="g" unicode="g" horiz-adv-x="1468" 
d="M1470 477q-274 -142 -530 -291q-91 -53 -103 -101q-1 -1 -1.5 -3.5t-0.5 -3.5t-0.5 -2.5t-1.5 -2.5l-2 -8v-1l-2 -4t-1 -4l-4 -14q-260 -839 -730 -1365q-398 -433 -786 -516q-54 -10 -108 -10q-117 0 -190 53t-91 152q-27 148 114 375q141 226 487 526q345 300 930 672
q22 13 47 29q21 13 61 37l114 68q59 36 65 68q55 225 41 334q-14 107 -57 129q-118 75 -377 -113q-28 -20 -77 -72q-38 -40 -89 -102q-68 -85 -136 -151q-63 -60 -119 -61h-2q-61 2 -77 75q-18 104 53 210q69 104 179 176q168 107 287 57q13 -7 19 -19q5 -7 31 9
q90 66 193 94q102 27 197 -20q157 -88 66 -470q-3 -16 2 -20.5t11.5 -2t20.5 10.5q265 149 565 301q7 5 11 -3q4 -9 -9 -16zM705 16q5 21 -0.5 25t-17.5 -3q-33 -20 -91 -55.5t-79 -48.5q-1 0 -2 -1l-2 -2q-408 -255 -744 -523q-339 -270 -539 -494q-294 -334 -237 -561
q19 -81 103 -119q82 -37 204 -16q117 19 296 121q176 101 377 308q202 207 392 543q193 340 340 826zM242 455h-1q36 36 14 45q-52 25 -132 -21q-5 -2 -18 -10q-9 -3 -17 -9q-55 -33 -106 -97q-52 -64 -72 -128q-20 -63 28 -82q50 5 111 72q56 62 101 123q3 3 6.5 8t6 8.5
t4.5 5.5q23 30 75 85z" />
    <glyph glyph-name="h" unicode="h" horiz-adv-x="1004" 
d="M1002 494q10 10 16.5 4t-8.5 -22q-467 -475 -668 -432q-22 5 -39.5 18t-29 35.5t-19 40t-13 50.5t-7 45.5t-5.5 45.5q-4 50 -12 61q-37 18 -117 -41q-80 -58 -172 -151q-94 -93 -174 -177q-121 -127 -136 -131h-2q-9 -2 -15.5 0t-10.5 12t9 33q1 2 7 11l20 30l28 42
q175 268 243 373q137 211 280 438q450 723 793 1148q343 426 506 448q69 4 88 -54q33 -124 -191 -465q-223 -340 -669 -798l-1 -1q-255 -252 -539 -480l-1 -1h-1q-31 -24 -91.5 -92.5t-128.5 -165.5q-42 -61 -47 -68q-87 -124 -154 -223q-30 -43 -22 -44q6 1 25 20
q9 9 28 28.5t30 30.5q75 78 122 124t121 110.5t134 96.5t106 32q21 0 32.5 -12.5t10.5 -32.5q-3 -32 0 -99q3 -69 19 -127q17 -60 52 -67q58 -10 206 75q150 86 397 332zM135 600l-1 -1q-19 -26 -13 -26q5 2 20 14q298 245 546 488l1 1q206 212 378 435q171 221 287 407
q106 175 126 275q19 99 -6 96q-33 -2 -182 -136q-149 -133 -416 -469q-265 -334 -642 -933q-43 -69 -98 -151z" />
    <glyph glyph-name="i" unicode="i" horiz-adv-x="627" 
d="M625 494q17 12 18 1.5t-13 -21.5q-111 -76 -246 -165q-149 -98 -265 -167q-130 -77 -223 -117q-95 -41 -124 -16q-17 17 -21 40.5t8.5 59t25.5 64.5t46.5 80t53.5 80.5t63 89.5q2 2 18 25q29 41 34 49q17 21 67 28t62 -11q11 -20 -18 -45q-11 -11 -17 -18l-17 -17
q-40 -42 -100 -110q-65 -72 -114 -147t-36 -117q22 -33 206 63q179 93 592 371zM155 649q-10 1 -12.5 7.5t-0.5 12.5t8 19q6 10 10 23q7 25 24 40.5t40 15.5q12 0 19.5 -0.5t15.5 -4t11 -9.5t3 -17.5t-6 -27.5q-17 -39 -51 -51q-36 -12 -61 -8z" />
    <glyph glyph-name="j" unicode="j" horiz-adv-x="703" 
d="M704 496q9 2 9 -7q1 -10 -16 -18q-2 0 -3 -1q-268 -117 -538 -294q-55 -37 -71 -65q-17 -29 -18 -50q-1 -1 -1 -4l-1 -1q-71 -330 -240 -639q-110 -199 -270 -400q-157 -197 -331 -362q-171 -162 -321 -253t-241 -75q-64 17 -53 100q9 81 59 192q50 109 108 207
q64 107 91 146q96 155 301 394q207 241 547 525h1q78 65 162 126q75 58 84 107q30 178 32 371q1 9 20 20t47 16q3 1 12 1q35 -1 42.5 -13.5t1.5 -40.5q-2 -10 -4 -30v-2q-5 -136 -23 -251q-2 -17 5 -20.5t20 5.5l2 2h1l1 1q298 192 585 313zM-1080 -1523q412 317 667 702.5
t350 818.5q5 27 -20 10q-53 -39 -155 -121l-1 -1q-245 -200 -468 -441q-225 -243 -389 -489q-151 -234 -203 -383q-54 -150 -30 -181q16 -18 47 -18t83.5 26.5t118.5 76.5zM31 650q-25 4 -5 39q1 2 10 23q7 25 24 40.5t40 15.5q12 0 19.5 -0.5t15.5 -4t11 -9.5t3 -17.5
t-6 -27.5q-17 -39 -51 -51q-36 -12 -61 -8z" />
    <glyph glyph-name="k" unicode="k" horiz-adv-x="976" 
d="M977 496q7 4 8.5 -3.5t-11.5 -14.5q-104 -40 -194 -76q-121 -49 -195 -76.5t-175.5 -61t-186 -48.5t-159.5 -15q-128 0 -151 51q-5 15 -22 -9q-258 -371 -487 -690q-7 -9 -12 -20q-12 -22 -22 -23q-16 -2 -23.5 2t-6.5 13.5t6 19.5t14 22q401 557 776 1140
q398 616 647 1028q268 444 317 543q12 31 31 43q3 3 5 4q47 30 74 0q20 -27 19.5 -42.5t-19.5 -42.5q-10 -13 -21 -35q-7 -12 -68 -106q-62 -95 -137 -208q-88 -133 -177 -270q-89 -135 -150 -231q-175 -276 -486 -737q-7 -9 -11.5 -16.5t-6 -13.5t1.5 -7.5t13 2.5t26 15
q150 101 273 157q129 59 160 50q17 -6 23 -32q7 -24 -22 -66q-21 -26 -45 -27q-15 0 -11 15q-71 -6 -192 -65q-120 -59 -233 -141q-113 -83 -168 -157q-56 -74 2 -112q45 -29 151 -22q113 8 311 68q203 61 534 195z" />
    <glyph glyph-name="l" unicode="l" horiz-adv-x="952" 
d="M949 494q9 8 16 0q5 -6 -7 -15q-394 -352 -668 -569q-261 -207 -403 -288q-145 -83 -205 -79q-40 0 -63 18q-119 89 159 572q275 478 910 1382l8 12l21 30q15 22 43.5 64t41.5 61q143 214 254 371q172 253 219 351q-4 6 1.5 22t23 32.5t39.5 22.5q23 5 41.5 -2t25.5 -23
q13 -28 -20 -86q-31 -52 -122 -177q-44 -60 -130 -183q-40 -57 -115 -162q-43 -60 -208 -291q-236 -335 -510 -728q-249 -357 -355 -527q-103 -169 -170.5 -298t-93 -195.5t-31.5 -110.5t-1 -55t14 -18l1 -1q52 -39 200 39q141 73 343 223q206 152 394 309q195 164 347 299z
" />
    <glyph glyph-name="m" unicode="m" horiz-adv-x="1441" 
d="M1441 496v-1q8 5 13 -2q6 -6 -13 -20q-199 -135 -338.5 -219t-256.5 -129.5t-160 -16.5q-76 53 -14 294q3 10 0 10q-1 0 -5 -4q-1 -1 -1 -2l-1 -1h-1l-28 -30q-87 -94 -155 -151q-69 -58 -121 -39q-33 18 -18 101q15 85 61 198q50 125 104 231q5 11 2 11t-8 -7
q-131 -137 -314 -307q-175 -161 -284 -242q-67 -46 -101 -42q-35 5 1 66q15 25 45 73q54 93 152 231q15 21 39.5 28t44.5 -2q24 -11 32.5 -26t-6.5 -35q-62 -62 -112 -119q-68 -76 -99 -118q-9 -11 -8.5 -16.5t19.5 5.5q69 48 250 214q178 164 398 397q17 17 43.5 20.5
t44.5 -10t11 -38.5l-36 -55q-73 -112 -143.5 -249t-91.5 -240v-3q0 -2 -1 -5t-1 -4q-5 -26 11 -38q32 -14 93 47q64 64 128 141q117 138 141 135q31 -9 32 -38.5t-16 -67.5q-8 -20 -11 -31q-4 -14 -9 -30q-64 -199 -29 -219q11 -2 24.5 -4.5t47 6.5t71.5 21.5t98 41.5
t127 66t158 95t191 129z" />
    <glyph glyph-name="n" unicode="n" horiz-adv-x="1212" 
d="M1170 464l40 30q7 7 10 2q2 -5 -4 -11q-295 -245 -507 -359q-208 -112 -314 -60q-69 37 -80.5 129t37.5 223q9 22 20 46q20 39 27 72q1 9 -2 12.5t-10.5 1.5t-13.5 -5t-14 -8q-75 -53 -192 -159q-95 -87 -219 -205q-94 -91 -132 -122q-47 -39 -78 -38q-32 1 -6 53
q2 4 42 72q36 63 99 166q66 107 123 190q30 42 76 21q42 -17 12 -68q-21 -31 -85 -105q-93 -110 -161 -200q-32 -47 -19 -43q8 2 32 23q61 55 152 143q95 90 192 180q90 83 176 149q77 59 108 52q49 -13 41 -64q-7 -48 -70 -172q-33 -69 -49 -140t-5 -124t51 -60
q97 -13 220 43q119 54 252 148q107 75 251 187z" />
    <glyph glyph-name="o" unicode="o" horiz-adv-x="855" 
d="M853 495q4 3 9 1.5t5 -5.5t-7 -9q-123 -79 -281 -135q-160 -56 -294 -56h-35q-26 0 -36 -18l-2 -2v-1q-158 -215 -292 -240q-5 -1 -15 -1q-44 0 -62 34q-28 58 55 177q31 43 77 95q11 12 26 19q11 5 5 11q-58 75 22 182q58 73 142 113q85 42 147 16q116 -59 -61 -340
q-10 -17 2 -17q9 -1 29 -1q88 -1 180 18t168 50.5t127 57.5t91 51zM76 441v-1q-1 -1 -1 -2v-2q-20 -75 94 -105h1q1 -1 5 -1q1 -1 5 -1h1q1 -1 3 -1t3 -1h1q19 -3 29 15q29 50 46 93.5t21 72t0 49.5t-13 31t-21 11q-32 3 -72 -27q-42 -29 -73 -71q-20 -26 -29 -60zM-93 72
q61 -15 135 51q75 69 134 156q13 15 -6 17q-48 5 -78 14h-2q-7 1 -9 -5q-1 -7 -10 -17q-13 -14 -36 -30h-1q-4 -3 -19 -14q-1 0 -2 -1l-2 -2q-10 -8 -15 -13q-44 -36 -76.5 -78.5t-19.5 -69.5q2 -3 7 -8z" />
    <glyph glyph-name="p" unicode="p" horiz-adv-x="1300" 
d="M1290 478q-204 -50 -407 -123q-99 -40 -147 -109l-2 -2v-1h-1q-165 -199 -362 -318q-197 -121 -329 -140q-42 -5 -69 1.5t-35 20t-2 30.5q12 35 76 87q61 49 151 107q108 67 221 128q84 45 128 65q75 32 82 35q75 36 122 108q66 104 89 187q41 161 -18 170
q-68 12 -280 -124q-212 -134 -504 -425q-329 -338 -546 -646q-218 -309 -432 -664q-88 -144 -160 -258q-11 -16 -25 -27t-19 -10q-33 11 -4 60q172 295 558 907q394 623 747 1150q363 544 484 668q20 18 43 20.5t38 -12.5q36 -36 -8 -77q-135 -132 -424 -546
q-296 -422 -599 -885q-35 -56 -33 -59q2 -4 41 41l8 9q154 190 338 384q279 285 495 430q215 145 328 128q130 -16 82 -197q-32 -116 -89 -213q-11 -19 -3.5 -22t20.5 4l1 1h1q234 89 453 135q11 2 10 -5q0 -8 -18 -13zM608 218v1q19 24 3 22q-8 -1 -25 -9l-24 -12l-26 -12
q-3 -1 -20 -11q-1 -1 -4 -1q-1 -1 -5 -3q-205 -102 -395 -234q-23 -15 -46 -33q-18 -13 -24 -19q-102 -80 -38 -86q143 2 305 117q163 116 295 275q0 1 1 2z" />
    <glyph glyph-name="q" unicode="q" horiz-adv-x="1496" 
d="M1491 494q16 7 16 -2.5t-16 -19.5q-435 -247 -817 -505q-127 -88 -189 -173q-447 -578 -668 -893q-221 -317 -292 -496q-18 -46 -53 -50h-4q-19 0 -26 9t-6 29q2 281 167.5 579t479.5 594q3 4 7 7q102 94 245 202q65 51 111.5 100t65.5 77q141 222 173 345q32 120 11 132
q-35 31 -184 -5q-148 -34 -387 -183q-366 -237 -400 -178q-38 59 46 178q67 96 195 227q171 168 315 225q146 57 231 26q107 -41 75 -166q-9 -24 -42 -42q-32 -17 -55 -17t-34 18.5t-4 42.5q18 50 -29 55q-65 2 -168 -53q-103 -54 -212 -137q-109 -84 -182 -168
q-74 -86 -77 -144q26 -8 76 17t140 84q4 2 88 54q586 362 712 225q102 -104 -146 -466q-22 -35 -3 -28q5 2 14 8h1q374 238 825 492zM315 -318q15 21 11 24.5t-22 -9.5q-118 -94 -198 -170q-105 -100 -197.5 -209t-175 -234t-139 -263t-75.5 -270q-3 -17 2 -17q4 0 13 16
q218 386 781 1132z" />
    <glyph glyph-name="r" unicode="r" horiz-adv-x="950" 
d="M946 471v-1q-128 -85 -186 -124q-309 -214 -494 -313q-148 -74 -217 -74q-39 0 -59 23q-26 31 -7 82v2q25 65 110 152q9 9 31 33l6 6q51 56 55 80q2 24 -20 38.5t-66 29.5q-45 14 -79 36t-31 67q9 116 182 212l2 1q24 12 44.5 7.5t28.5 -23.5q8 -23 -3 -57
q-9 -34 -37 -52l-2 -1q-19 -11 -42 -22q-64 -27 -73 -63q-1 -8 17 -21t54 -30q108 -54 105 -131q-4 -44 -47 -93q-39 -46 -89 -93q-95 -88 -89 -117q42 -57 271 70q227 126 634 399h1q10 6 15 -1q6 -8 -15 -22z" />
    <glyph glyph-name="s" unicode="s" horiz-adv-x="934" 
d="M934 496q8 4 13 -3q8 -10 -17 -22v-1q-473 -233 -753 -430q-24 -17 -13 -28l1 -1v-1h1q31 -34 25 -91q-8 -59 -61 -126q-4 -4 -6 -7l-10 -10q-96 -96 -186 -81q-3 1 -7 1q-45 11 -53 53v1l-1 1v1q-3 29 11 60q4 9 14 25q22 34 73 82l1 1h1l3 3q29 28 47 41l4 4
q12 8 24 18q30 22 17 39q-2 2 -6 8t-7 9q-8 10 -24.5 33t-20.5 28q-5 8 -16.5 25t-18.5 27q-91 133 -28 262q79 159 378 268q25 8 43 -0.5t21 -30.5q3 -26 -7 -54t-32 -38q-268 -94 -320 -171q-24 -38 -27 -79.5t12 -78.5t27 -57.5t26 -37.5q2 -3 4 -5q23 -33 48 -62
q18 -21 39 -9q247 166 781 434zM-48 -247q46 -6 101.5 58.5t53.5 107.5q0 23 -8 44q-7 14 -23 4q-33 -27 -66 -56l-3 -3q-1 0 -1 -1l-2 -1l-1 -1q-1 -1 -1 -2q-2 -1 -5 -4v-1l-3 -3h-1v-1l-1 -1q-28 -26 -51 -70q-34 -63 11 -70z" />
    <glyph glyph-name="t" unicode="t" horiz-adv-x="496" 
d="M1138 1850l2 1h1l-1 -1q989 117 1522 139q376 13 574 -3q201 -17 275 -50q77 -35 90 -77q34 -69 -43 -173q-17 -21 -40 -28t-42 3q-37 22 -7 63q20 23 34 33q25 20 26 38q5 31 -71 65q-76 35 -267 56q-185 22 -536 11q-559 -19 -1587 -132q-18 -5 -38 -30v-1
q-48 -60 -168 -208q-60 -74 -228 -283q-372 -527 -586 -838.5t-351 -535.5q-157 -264 -221 -401q-69 -146 -84 -212q-15 -67 -10 -92q6 -49 47 -37q63 23 42 -32q-9 -24 -28.5 -40t-42.5 -16q-35 0 -53.5 15.5t-27.5 52.5q-21 58 27 202q46 143 204 426q159 284 466 757
q292 450 812 1196q31 45 21 50q-7 2 -22 0q-22 -3 -65 -7.5t-64 -6.5q-772 -94 -1069 -83q-187 7 -259 32q-70 25 -71 68q-12 104 190 219q24 14 45 10.5t30 -22.5q8 -20 -1.5 -42t-32.5 -36q-4 -2 -10 -6q-8 -5 -18 -12t-23 -20.5t-20 -27t-5 -30.5t17 -33q42 -42 182 -47
q335 -7 1050 76q98 12 146 17h1q26 3 46 15.5t46 48.5q181 260 391 546q188 258 257 322q26 20 50 21.5t35 -12.5q21 -16 7 -57q-1 -14 -11 -27q-24 -47 -77 -131q-85 -137 -238 -355q-105 -146 -244 -321l-2 -2v-1q-14 -14 1 -16h2q6 0 11 1h4q1 1 4 1h4h2zM1071 1857
q252 342 392 574q-128 -164 -417 -574q-13 -17 -1 -17h1q4 0 5 1q12 3 20 16zM1013 1780q4 4 3 7t-7 2q-14 -1 -23 -16q-78 -113 -153 -219q-8 -9 -6.5 -10t8.5 6q97 122 178 230z" />
    <glyph glyph-name="u" unicode="u" horiz-adv-x="1548" 
d="M1544 494q14 7 17 -3q0 -9 -15 -18q-221 -135 -487 -284q-233 -129 -399 -189q-166 -61 -225 -7q-38 43 -25 107q13 60 52 150q4 9 13.5 34t15.5 39q11 32 3 33q-4 0 -30 -22v-1q-224 -225 -364 -325q-140 -99 -242 -86q-23 4 -39.5 11.5t-33 25.5t-15 54t22.5 88
q84 213 251 465l12 18q52 84 69 114v3q0 33 19 51q22 16 54 16q30 0 44 -20q15 -29 -7 -72q-19 -40 -89 -136q-45 -63 -114 -171q-72 -112 -122 -210q-53 -102 -49 -144q11 -66 111 -23q182 78 604 498q28 26 53 26t12 -43q-27 -82 -60 -166q-40 -96 -60 -172
q-19 -73 10 -101q20 -20 125 10q111 33 320 137q210 104 568 313z" />
    <glyph glyph-name="v" unicode="v" horiz-adv-x="1355" 
d="M1350 494h1q12 7 14 -2q0 -8 -12 -17q-78 -43 -142.5 -60t-110.5 -10.5t-82 33t-58.5 64t-37 88t-21 99.5t-7.5 104q-1 35 -24 7q-123 -155 -287 -353q-164 -197 -326 -370q-164 -174 -299 -279q-135 -104 -205 -82q-25 11 -30 41t10 79.5t45.5 115t79.5 151.5
q47 86 90 197q41 109 49 167q-5 11 -0.5 33.5t29 42.5t55.5 15q42 -6 52 -43q3 -45 -49 -154q-51 -109 -118 -236q-69 -131 -114 -228q-45 -100 -26 -116q96 -9 372 281q275 287 694 855q8 12 23 22l1 1h2v1q40 18 54 -1q2 -3 4 -9q0 -7 -6 -17q-4 -7 -6 -20q-1 -5 -1 -14
v-4q-7 -224 38 -323q45 -97 114 -114q69 -15 134 9t97 44z" />
    <glyph glyph-name="w" unicode="w" horiz-adv-x="1839" 
d="M1837 494q12 9 20 2q8 -8 -12 -23q-3 -3 -10 -8t-10 -7q-89 -69 -216 -156q-129 -88 -258 -143q-132 -56 -233 -34q-29 8 -49 22h-1q-18 18 -33 -14q-32 -73 -35 -78q-123 -223 -262 -367q-136 -140 -262 -151q-4 -1 -11 -1q-27 0 -50 5t-40 12.5t-31 24t-23.5 28.5
t-17.5 37t-12 40t-9 47t-6.5 47.5t-5.5 51.5q-7 80 -26 170q-28 118 -50 173q-13 36 -39 10q-75 -82 -153 -183q-138 -171 -197 -230q-108 -106 -183 -104q-77 0 41 235l69 129q64 115 129 228q74 127 175 307q2 5 4 19q1 12 3 18.5t11.5 15.5t27 7.5t48.5 -6.5
q45 -14 52 -48q8 -35 -8 -58q-86 -124 -177 -249q-115 -153 -214 -304q-90 -136 -99 -212q20 -35 123 79t273 327q47 58 88 109q14 17 25 28t28 18.5t31.5 2t31.5 -29.5t32 -69q14 -43 27 -99.5t22 -107.5t16 -95.5t11 -73.5t4 -30q3 -27 7.5 -49t15.5 -50.5t26.5 -47.5
t42.5 -32.5t62 -12.5q72 0 192 136q119 136 226 337l6 12q0 1 2 4t2 5q6 10 23 51q13 41 -10 72v1q-64 103 -90 245q-24 142 1 258q7 21 26.5 38.5t47.5 22t60 -20.5q74 -79 76 -316v-14q-3 -73 -21 -144q-1 -1 -1 -4q-14 -40 7 -68q42 -44 106 -54q89 -9 207 46
q121 57 232 134q123 85 195 139zM1031 329q6 -11 12.5 -11t10.5 14q12 57 12 115q1 57 -14 117q-13 58 -40 91q-18 14 -26 7.5t-10 -22.5q-3 -50 8 -140q12 -85 47 -171z" />
    <glyph glyph-name="x" unicode="x" horiz-adv-x="1248" 
d="M1243 494h1q20 15 27 3t-15 -31q-300 -245 -531 -379q-235 -136 -395 -136q-78 0 -141 29q-91 44 -133 128q-11 16 -20 17.5t-20 -9.5q-218 -183 -416 -336q-33 -25 -47 -16q-11 8 -10.5 15.5t7 12.5t20.5 13q18 10 27 16q208 163 374 303q60 50 47 76v1
q-27 94 -26.5 217t14 206t29.5 136q7 23 27.5 38t44.5 16q43 0 62 -7t17 -18.5t-8 -24.5q-4 -11 -5 -14q-90 -302 -59 -483q1 -21 26 0q4 3 157 135q278 245 465 383q155 112 247 157q1 0 1 1l2 1q8 4 13 7q72 41 105 41q23 0 32 -23v-2q15 -61 -52 -68q-23 -3 -46 -2
q-20 -5 -45 -15q-136 -62 -366 -242q-233 -183 -487 -398q-43 -38 -30 -66q34 -89 91.5 -130t110.5 -41q152 0 390 132q240 134 515 357z" />
    <glyph glyph-name="y" unicode="y" horiz-adv-x="1317" 
d="M1317 495q8 2 14 -2.5t4 -11.5t-14 -13v-1q-330 -148 -659 -322q-82 -45 -113 -80q-33 -37 -44 -67v-2q-2 -5 -6 -13q0 -2 -1 -3l-1 -1v-1q-312 -718 -721 -1165q-185 -202 -363.5 -320t-332.5 -139q-24 -4 -51 -4q-196 4 -223 179q-18 119 106 321q124 203 421 468
q301 269 804 577h1q7 5 8 5q9 7 20 12q67 40 155 90q80 49 110 90q31 45 41 79l1 1q38 108 54 194t9.5 133.5t-30.5 58.5q-36 10 -121 -57q-86 -66 -190 -163q-76 -68 -118.5 -104.5t-102.5 -83t-99 -63t-61 -6.5q-25 10 -25.5 39t20.5 73.5t64 115.5q84 139 187 269
q29 32 82 23q35 -9 42 -32.5t-12 -44.5q-42 -49 -72 -82q-72 -79 -141 -167q-66 -82 -58 -116q19 -13 87 43q76 65 160 144q182 166 247 215q120 92 167 77q82 -26 84 -147q2 -122 -67 -310v-1q-11 -32 -3.5 -35.5t25.5 8.5l1 1q2 0 2 1h1q334 172 712 340zM-299 -1179
q189 207 360 497q175 294 321 634q13 30 3.5 34.5t-35.5 -11.5q-65 -37 -205 -121q-417 -255 -704 -504q-285 -247 -434 -460q-145 -207 -131 -334q9 -69 60.5 -107.5t140.5 -29.5q127 15 294 120t330 282z" />
    <glyph glyph-name="z" unicode="z" horiz-adv-x="1336" 
d="M1336 495q12 4 20 -6q9 -13 -19 -28l-2 -1l-1 -1q-358 -171 -714 -385q-61 -39 -52 -74q0 -2 1 -7t2 -7v-2q7 -43 -3 -98q-34 -182 -158 -397q-120 -211 -301 -425q-179 -213 -384 -396q-207 -184 -403 -306q-197 -123 -361 -158q-162 -34 -255 48q-76 76 8 242
q82 164 288 385q206 219 495 459q298 246 625 466q106 71 251 163q52 32 32 52q-51 39 -111 52q-60 15 -100 15q-115 -2 -214 -34q-100 -32 -177 -66q-118 -52 -137 -35q-17 20 23 76q43 61 106 135q75 89 121 151q61 82 89 149v2q0 5 -6 11q-15 17 1.5 50.5t54.5 43.5
q68 17 81 -20q16 -52 -39 -136q-54 -84 -137 -173q-82 -88 -151 -157q-38 -38 -52 -53q-26 -23 -20 -29q4 -4 27 7q31 14 53 26q77 38 184 85q99 45 184 59q85 12 172 -4q90 -17 151 -70l2 -2q2 -1 3 -2q29 -31 84 3l1 1h1q355 210 737 391zM-1225 -1695q92 -69 269 -5
q176 63 392 222q218 161 425 379q210 222 368 465q159 242 224 478q8 30 8 54q-2 42 -21.5 49t-49.5 -14q-153 -98 -254 -166q-334 -226 -607 -455t-470 -441q-193 -208 -271 -358q-79 -149 -13 -208z" />
    <glyph glyph-name="braceleft" unicode="{" horiz-adv-x="1480" 
d="M313 -737q-236 0 -281 112q-32 90 28 220q60 131 159 288l7 11q108 179 169 294t88 196.5t19.5 127t-46.5 75.5q-30 23 -11 54q17 17 78 35q42 12 94 35q49 23 82.5 41.5t89.5 61.5t104.5 97t112 145t126.5 207q151 280 278 446q126 165 249 234q125 69 273 69
q63 0 40 -66q-25 -57 -82 -41q-81 22 -179 -20q-98 -41 -224 -188t-287 -438q-127 -227 -252 -352q-120 -122 -230 -182q-106 -58 -185 -84q-12 -4 -17 -6q21 -22 33 -49t16 -54t-2.5 -63.5t-14.5 -67.5t-29 -77t-38.5 -79.5t-49 -87.5t-53.5 -90t-60 -97q-56 -90 -76 -124
l-7 -10q-83 -138 -134 -263q-51 -128 -32 -185q13 -36 77.5 -60.5t180.5 -25.5q20 1 38 11q14 7 17 4.5t-1 -22.5q-5 -16 -13.5 -23.5t-19.5 -8.5t-27 0h-8z" />
    <glyph glyph-name="bar" unicode="|" horiz-adv-x="1130" 
d="M630 2143q-7 -71 -23 -429q-19 -427 -35 -853q-16 -485 -24 -894q-6 -414 10 -554q2 -11 8 -19q10 -22 2 -39q-2 -3 -6 -7q-10 -12 -25 -12q-25 0 -31 15t-5 48v15q8 102 11 506q4 411 3 918q0 381 -2 889q-1 380 -3 415q1 31 9 47.5t32 16.5q28 0 52.5 -18t26.5 -45z
" />
    <glyph glyph-name="braceright" unicode="}" horiz-adv-x="1424" 
d="M-492 -743q-52 0 -111 6q-32 3 -45 12.5t-2 33.5q13 26 41 8q14 -8 31 -12q149 -21 249 -2t178 80q65 55 128 165q67 121 119 229q6 12 17.5 36t17.5 35q72 149 180 335q3 5 17 29.5t21 37.5q26 46 43 74t46 71t52.5 68.5t59 55.5t70 45t79 23.5t92.5 3.5
q-61 103 -19 246q45 147 155 316q61 93 157 251q177 304 138 423q-10 23 -23.5 38.5t-40.5 30.5t-75.5 13.5t-115.5 -21.5q-28 -7 -37.5 13t2.5 49q12 27 38 44.5t53 17.5q38 0 52.5 -0.5t52.5 -3.5t58 -9.5t47.5 -18t45.5 -31t29 -45.5q66 -152 -146 -505
q-76 -127 -155 -250q-1 -1 -2.5 -3.5t-2.5 -3.5q-2 -4 -10.5 -17t-12.5 -20q-118 -174 -156 -280q-37 -102 35 -203l1 -2q1 -2 2 -2q21 -28 5 -54q-22 -35 -73 -35q-35 -1 -64.5 -4t-56 -10.5t-47 -14.5t-41.5 -22.5t-36 -26.5t-33 -34t-29.5 -38t-30 -45.5t-29.5 -49.5
t-32 -57q-26 -46 -40 -70q-105 -184 -181 -342q-78 -164 -161 -291q-79 -125 -197 -196q-117 -69 -307 -71z" />
    <glyph glyph-name="asciitilde" unicode="~" horiz-adv-x="1268" 
d="M746 758q18 1 17 -6t-24 -29q-1 -1 -2 -1q-8 -8 -11 -12q-39 -39 -65 -60.5t-69 -39.5t-91 -18q-32 0 -49.5 22t-31.5 61q-24 65 -57 65q-32 0 -79 -34q-48 -33 -72 -82q-9 -16 -38.5 -21t-45.5 6q-28 22 13 57q75 66 129.5 94t109.5 24q59 -8 99 -96q17 -32 19 -35
q25 -34 90 -14q70 27 125 91q20 27 33 28z" />
    <glyph glyph-name="exclamdown" unicode="&#xa1;" horiz-adv-x="672" 
 />
    <glyph glyph-name="cent" unicode="&#xa2;" horiz-adv-x="1139" 
 />
    <glyph glyph-name="sterling" unicode="&#xa3;" horiz-adv-x="657" 
 />
    <glyph glyph-name="currency" unicode="&#xa4;" horiz-adv-x="657" 
 />
    <glyph glyph-name="yen" unicode="&#xa5;" horiz-adv-x="657" 
 />
    <glyph glyph-name="brokenbar" unicode="&#xa6;" horiz-adv-x="657" 
 />
    <glyph glyph-name="section" unicode="&#xa7;" horiz-adv-x="657" 
 />
    <glyph glyph-name="dieresis" unicode="&#xa8;" horiz-adv-x="657" 
 />
    <glyph glyph-name="copyright" unicode="&#xa9;" horiz-adv-x="657" 
 />
    <glyph glyph-name="ordfeminine" unicode="&#xaa;" horiz-adv-x="648" 
 />
    <glyph glyph-name="guillemotleft" unicode="&#xab;" horiz-adv-x="657" 
 />
    <glyph glyph-name="logicalnot" unicode="&#xac;" horiz-adv-x="657" 
 />
    <glyph glyph-name="registered" unicode="&#xae;" horiz-adv-x="657" 
 />
    <glyph glyph-name="overscore" unicode="&#xaf;" horiz-adv-x="670" 
 />
    <glyph glyph-name="degree" unicode="&#xb0;" horiz-adv-x="657" 
 />
    <glyph glyph-name="plusminus" unicode="&#xb1;" horiz-adv-x="1014" 
 />
    <glyph glyph-name="uni00B2" unicode="&#xb2;" horiz-adv-x="1014" 
 />
    <glyph glyph-name="uni00B3" unicode="&#xb3;" horiz-adv-x="1014" 
 />
    <glyph glyph-name="acute" unicode="&#xb4;" horiz-adv-x="657" 
 />
    <glyph glyph-name="mu" unicode="&#xb5;" horiz-adv-x="1180" 
 />
    <glyph glyph-name="paragraph" unicode="&#xb6;" horiz-adv-x="657" 
 />
    <glyph glyph-name="middot" unicode="&#xb7;" horiz-adv-x="657" 
 />
    <glyph glyph-name="middot" unicode="&#x2219;" horiz-adv-x="657" 
 />
    <glyph glyph-name="cedilla" unicode="&#xb8;" horiz-adv-x="657" 
 />
    <glyph glyph-name="uni00B9" unicode="&#xb9;" horiz-adv-x="1014" 
 />
    <glyph glyph-name="ordmasculine" unicode="&#xba;" horiz-adv-x="718" 
 />
    <glyph glyph-name="guillemotright" unicode="&#xbb;" horiz-adv-x="657" 
 />
    <glyph glyph-name="onequarter" unicode="&#xbc;" horiz-adv-x="1708" 
 />
    <glyph glyph-name="onehalf" unicode="&#xbd;" horiz-adv-x="1964" 
 />
    <glyph glyph-name="threequarters" unicode="&#xbe;" horiz-adv-x="1708" 
 />
    <glyph glyph-name="questiondown" unicode="&#xbf;" horiz-adv-x="748" 
 />
    <glyph glyph-name="Agrave" unicode="&#xc0;" horiz-adv-x="2968" 
d="M2831 497v-1q9 7 18.5 -1.5t-6.5 -22.5q-216 -174 -391 -305q-75 -58 -127 -118q-52 -61 -68 -96q-183 -398 -299 -654q-12 -30 -32 -41l-9 -3q-1 -1 -4 -1h-14q-7 2 -10 4q-9 8 -4 42q34 218 47 464q0 37 -44 6q-251 -160 -431 -247q-325 -156 -533 -156q-103 0 -176 37
q-47 26 -81 64q-23 23 -54 -8q-211 -184 -319 -243q-107 -61 -181 -61q-45 -4 -79 27q-35 30 -21 113q6 24 25 41t43 19q26 3 34 -7.5t-3 -41.5q-32 -75 -9 -93q34 -28 87 -16.5t143.5 76t244.5 201.5q54 50 39 76v1q-81 207 52 583q79 219 213 439q133 218 297 380
q163 162 323 205q87 26 174 -17q89 -42 162 -205v-1q0 -2 2 -5t2 -4t1.5 -5t2.5 -6q18 -44 30 -83l1 1q8 -29 36 -1q352 389 799 900q153 177 239 282q96 118 137 163q68 78 115 112.5t83 20.5q53 -20 14 -127q-40 -110 -166 -363q-63 -129 -68 -139q-7 -15 -32.5 -69
t-84.5 -179t-113 -239q-222 -473 -473 -1013q-15 -34 1.5 -35t38.5 19q175 128 428 331zM2269 129q283 648 475 1067q218 472 234 505q65 131 98 203q52 110 84 189q33 81 21 89q-12 6 -61 -47t-153 -177q-95 -116 -228 -267q-425 -486 -787 -880q-52 -61 -44 -86v-1
q88 -353 70 -814v-1q1 -38 43 -11q19 13 125 84q99 71 123 147zM678 -403q8 -27 40 5q37 33 110 102q394 370 966 999q60 67 50 98q-3 8 -9.5 28t-10.5 31q-6 19 -17 42q-13 31 -23 48q-48 81 -116 116t-143 17q-119 -35 -276 -187q-154 -149 -301 -368q-142 -212 -226 -437
q-33 -87 -57 -226q-23 -141 13 -268zM1873 -197q67 42 65 93q13 466 -66 802q-7 22 -28 -5q-586 -637 -1000 -1023q-68 -65 -103 -95q-38 -35 -24 -58q32 -48 89 -80q53 -32 181 -20q126 10 346 100q220 89 540 286zM3390 2580q5 -8 15 -22q15 -12 13.5 -24t-30.5 -27
q-15 -6 -40 19q-41 48 -76.5 109t-52 99t-15.5 44q-8 29 4.5 56.5t44.5 45.5q28 17 66.5 14.5t35.5 -24.5v-1q-1 -9 -10 -30q-6 -21 -12 -41q-14 -92 57 -218zM2182 -73q15 35 1.5 36.5t-33.5 -16.5h-1q-55 -39 -108 -75q-69 -50 -69 -94q-15 -230 -44 -436q0 -8 3 -8
q3 -1 7 7q0 1 1 2v1q112 275 243 583z" />
    <glyph glyph-name="Aacute" unicode="&#xc1;" horiz-adv-x="2966" 
d="M2830 497v-1q10 7 19.5 -2t-7.5 -22q-196 -159 -391 -305q-75 -60 -126 -118q-53 -60 -69 -96q-135 -292 -298 -654q-14 -31 -32 -41q-1 0 -5 -1t-5 -2t-3 -1h-14q-7 1 -11 4q-10 10 -3 42q32 218 47 464q0 37 -44 6h-1q-248 -159 -430 -247q-325 -156 -534 -156
q-102 0 -175 37q-49 26 -81 64q-23 23 -55 -8q-208 -183 -318 -243q-107 -61 -181 -61q-45 -4 -79 27q-35 30 -21 113q5 24 24 41t44 19q26 3 34 -7.5t-3 -41.5q-32 -75 -9 -93q34 -28 87 -16.5t143.5 76t244.5 201.5q53 51 39 76v1q-81 207 51 583q80 221 214 439
q133 218 297 380q163 162 323 205q86 26 173 -17q89 -42 162 -205l1 -1q0 -2 2 -5t2 -4t1.5 -5t2.5 -6q18 -44 30 -83v1q12 -30 36 -1q332 367 800 900q165 193 238 282q88 107 138 163q68 78 115 112.5t83 20.5q52 -19 13 -127q-35 -100 -166 -363q-16 -33 -67 -139
q-7 -15 -32.5 -69t-84.5 -179t-113 -239q-149 -314 -473 -1013q-18 -37 4 -34q15 1 36 18q182 133 427 331zM2269 129q271 624 474 1067q217 471 235 505q65 131 98 203q52 110 84 189q33 81 21 89q-13 6 -63 -48t-151 -176q-96 -116 -228 -267q-390 -445 -787 -880
q-54 -61 -44 -86v-1q85 -341 70 -814v-1q0 -13 6 -18t15.5 -3t21.5 10q19 13 60 41t64 43q93 67 124 147zM677 -403q9 -27 41 5q38 35 109 102q391 367 967 999q59 67 49 98q-8 25 -20 59q-1 3 -16 42q-9 21 -23 48q-48 81 -116 116t-143 17q-119 -35 -276 -187
q-155 -149 -301 -368q-142 -212 -226 -437q-33 -87 -57 -226q-23 -140 12 -268zM1873 -197q67 44 65 93q13 461 -66 802q-8 19 -28 -5q-591 -640 -1001 -1023q-67 -63 -102 -95q-40 -35 -25 -58q33 -48 89 -80q53 -32 181 -20q127 10 347 100q220 89 540 286zM3636 2877
q43 -42 -8 -101q-11 -15 -85 -88q-80 -79 -189 -161q-40 -26 -54 -20q-13 8 -18.5 14.5t-2.5 13t9.5 12t18.5 12.5q13 8 28 21q139 124 176 215q5 15 10 40q3 21 7 30v1l1 1q11 21 49 24t58 -14zM2182 -73q13 36 0.5 37t-33.5 -17q-55 -39 -108 -75q-71 -51 -69 -94
q-15 -230 -44 -436q-2 -6 2 -8q3 -2 7 7l1 2h1v1q112 275 243 583z" />
    <glyph glyph-name="Acircumflex" unicode="&#xc2;" horiz-adv-x="2967" 
d="M2831 497v-1q10 7 19 -1.5t-7 -22.5q-216 -174 -391 -305q-75 -60 -126 -118q-52 -60 -69 -96q-183 -398 -299 -654q-12 -31 -31 -41q-2 0 -5 -1t-5 -2q-1 -1 -4 -1h-14q-6 2 -10 4q-9 10 -3 42q32 218 47 464q-1 36 -45 6q-249 -160 -430 -247q-326 -156 -534 -156
q-103 0 -176 37q-47 26 -81 64q-23 23 -54 -8q-209 -183 -318 -243q-109 -61 -182 -61q-45 -4 -79 27q-34 29 -20 113q5 24 24 41t43 19q26 3 34 -7.5t-3 -41.5q-30 -75 -9 -93q34 -28 87.5 -16.5t143.5 76t244 201.5q52 47 40 76l-1 1q-80 207 52 583q80 221 214 439
q133 218 297 380q163 162 323 205q86 26 173 -17q89 -42 162 -205l1 -1l3 -9q4 -5 5 -11q18 -44 30 -83v1q4 -10 8 -13.5t9.5 -1.5t9 5t9.5 9q352 389 799 900q153 177 239 282q88 107 138 163q67 77 114 112t84 21q52 -19 13 -127q-40 -110 -166 -363q-16 -33 -67 -139
q-7 -15 -32.5 -69t-84.5 -179t-113 -239q-195 -411 -474 -1013q-15 -34 1.5 -35t38.5 19q175 128 428 331zM2269 129q283 648 475 1067q217 471 235 505q26 53 98 203q53 110 84 189q32 81 21 89q-13 6 -61 -45.5t-154 -178.5q-95 -116 -228 -267q-414 -472 -786 -880
q-54 -60 -45 -86v-1q86 -345 71 -814v-1q0 -38 42 -11q19 13 125 84q99 71 123 147zM678 -403q8 -27 40 5q37 33 110 102q391 367 967 999q59 67 49 98q-3 8 -9.5 28t-10.5 31q-6 19 -17 42q-13 31 -23 48q-48 82 -116 116.5t-143 16.5q-119 -35 -276 -187
q-155 -151 -300 -368q-142 -212 -226 -437q-33 -87 -57 -226q-24 -140 12 -268zM1874 -197q66 43 64 93q15 460 -66 802q-6 21 -27 -5q-591 -640 -1001 -1023q-67 -63 -102 -95q-40 -35 -25 -58q33 -48 89 -80q53 -32 181 -20q126 10 346 100q223 91 541 286zM3519 2574
q-4 -9 -4 -20q0 -10 -1 -14.5t-6 -8.5t-16 -4q-40 0 -28 33q2 13 8 21q1 6 8 25q15 44 26.5 84.5t19 77t5 58t-16.5 20.5q-18 0 -40.5 -26.5t-93.5 -127.5q-47 -72 -62 -101q-19 -40 -40 -59q-19 -19 -68 -25q-24 -4 -31.5 5.5t0 28t15 31t16.5 25.5q0 1 1 1l1 2q1 2 3 4.5
t3 3.5q32 46 77 102q168 204 240 194h2q16 3 27.5 -6.5t9.5 -76.5t-37 -189q-1 -3 -13 -40q-4 -9 -5 -18zM2182 -73q13 27 7 32.5t-14.5 2t-24.5 -14.5q-65 -45 -109 -75q-70 -51 -68 -94q-16 -236 -45 -436q0 -8 4 -8q3 -1 6 7q1 1 1 2l1 1q130 321 242 583z" />
    <glyph glyph-name="Atilde" unicode="&#xc3;" horiz-adv-x="2967" 
d="M2831 497v-1q9 7 18.5 -1.5t-6.5 -22.5q-216 -174 -391 -305q-75 -58 -127 -118q-52 -61 -68 -96q-127 -272 -299 -654q-14 -31 -32 -41l-9 -3q-1 -1 -4 -1h-14q-7 2 -10 4q-9 8 -4 42q34 218 47 464q0 37 -44 6q-251 -160 -431 -247q-325 -156 -534 -156q-102 0 -175 37
q-47 26 -81 64q-23 23 -54 -8h-1q-208 -183 -318 -243q-107 -61 -181 -61q-45 -4 -79 27q-35 30 -21 113q5 24 24.5 41t43.5 19q26 3 34 -7.5t-3 -41.5q-32 -75 -9 -93q34 -28 87 -16.5t143.5 76t244.5 201.5q54 50 39 76v1q-81 207 51 583q78 215 214 439q133 218 297 380
q163 162 323 205q87 26 174 -17q89 -42 162 -205v-1q0 -2 2 -5t2 -4t1.5 -5t2.5 -6q18 -44 30 -83l1 1q8 -29 36 -1q345 384 799 900q165 193 238 282q88 107 138 163q68 78 115 112.5t83 20.5q53 -20 14 -127q-40 -110 -166 -363q-63 -129 -68 -139q-7 -15 -32.5 -69
t-84.5 -179t-113 -239q-222 -473 -473 -1013q-15 -34 1.5 -35t38.5 19q175 128 428 331zM2269 129q283 648 475 1067q218 472 234 505q65 131 98 203q52 110 84 189q33 81 21 89q-13 5 -59.5 -45t-154.5 -179q-96 -116 -228 -267q-390 -445 -787 -880q-52 -61 -44 -86v-1
q88 -353 70 -814v-1q0 -13 6 -18t15.5 -3t21.5 10q19 13 125 84q99 71 123 147zM678 -403q8 -27 40 5q38 35 109 102q401 377 967 999q60 67 50 98q-3 8 -9.5 28t-10.5 31q-6 19 -17 42q-13 31 -23 48q-48 81 -116 116t-143 17q-119 -35 -276 -187q-154 -149 -301 -368
q-142 -212 -226 -437q-33 -87 -57 -226q-23 -141 13 -268zM1873 -197q67 44 65 93q13 461 -66 802q-7 22 -28 -5q-586 -637 -1000 -1023q-68 -65 -103 -95q-38 -35 -24 -58q32 -48 89 -80q53 -32 181 -20q126 10 346 100q220 89 540 286zM3776 2796q32 0 9 -33
q-6 -10 -16 -20q-67 -73 -144 -135q-77 -60 -145 -50q-42 14 -74 103q-12 30 -19.5 45t-20.5 29t-28 14q-10 0 -36.5 -16.5t-57.5 -52t-41 -76.5q-9 -25 -38 -31q-28 -4 -46 9q-16 15 -13.5 38.5t23.5 43.5q17 17 26 25q71 69 120.5 103t101.5 34q18 0 33.5 -11.5t29 -34
t22 -40.5t19.5 -46t21 -48q19 -32 71 -12q75 32 154 120q35 38 49 42zM2182 -73q12 27 6.5 32.5t-15 1.5t-23.5 -14h-1q-55 -39 -108 -75q-69 -50 -69 -94q-15 -230 -44 -436q0 -8 3 -8q3 -1 7 7q0 1 1 2v1q112 275 243 583z" />
    <glyph glyph-name="Adieresis" unicode="&#xc4;" horiz-adv-x="3740" 
d="M2831 497v-1q10 7 19 -1.5t-7 -22.5q-196 -159 -391 -305q-75 -60 -126 -118q-52 -60 -69 -96q-183 -398 -299 -654q-12 -31 -31 -41q-2 0 -5 -1t-5 -2q-1 -1 -3 -1h-14q-7 1 -11 4q-9 10 -3 42q32 218 47 464q0 40 -44 6h-1q-248 -159 -430 -247q-326 -156 -534 -156
q-102 0 -175 37q-49 26 -81 64h-1q-21 23 -54 -8q-209 -183 -318 -243q-107 -61 -182 -61q-44 -5 -79 27q-34 29 -20 113q5 24 24 41t44 19q26 3 34 -7.5t-3 -41.5q-32 -75 -9 -93q34 -28 87 -16.5t143.5 76t244.5 201.5q32 31 39.5 49.5t-0.5 26.5v1q-81 207 51 583
q80 221 214 439q133 218 297 380q163 162 323 205q86 26 173 -17q89 -42 162 -205l1 -1q1 -2 2 -5t2 -4q0 -1 1.5 -5t2.5 -6q18 -44 30 -83v1q4 -10 8 -13.5t9.5 -1.5t9 5t9.5 9q352 389 799 900q153 177 239 282q88 107 138 163q68 78 114.5 112.5t83.5 20.5
q52 -19 13 -127q-35 -100 -166 -363q-16 -33 -67 -139q-7 -15 -32.5 -69t-84.5 -179t-113 -239q-149 -314 -473 -1013q-18 -37 3 -34q14 1 37 18q182 133 427 331zM2269 129q283 648 475 1067q217 471 235 505q26 53 98 203q53 110 84 189q33 81 21 89q-13 6 -61 -45.5
t-154 -178.5q-87 -106 -227 -267q-390 -445 -787 -880q-54 -61 -44 -86v-1q85 -341 70 -814v-1q0 -38 43 -11q19 13 60 41t64 43q99 71 123 147zM678 -403q8 -27 40 5q37 33 110 102q391 367 967 999q59 67 49 98q-8 25 -20 59q-1 3 -16 42q-9 21 -23 48q-48 81 -116 116
t-143 17q-119 -35 -276 -187q-155 -149 -301 -368q-142 -212 -226 -437q-33 -87 -57 -226q-23 -140 12 -268zM1874 -197q71 46 64 93q15 459 -65 802q-8 19 -28 -5q-591 -640 -1001 -1023q-67 -63 -102 -95q-40 -35 -25 -58q33 -48 89 -80q53 -32 181 -20q127 10 347 100
q220 89 540 286zM2182 -73q13 27 7 32.5t-14.5 2t-24.5 -14.5q-65 -45 -109 -75q-70 -51 -68 -94q-15 -230 -44 -436q-2 -6 2 -8q3 -2 7 7l1 2h1v1q130 321 242 583zM3270 2656h-12q-56 -2 -68 17q-20 33 -12 62q12 33 45 60q34 28 71 28q38 0 52.5 -23t5.5 -64
q-10 -41 -29 -60.5t-53 -19.5zM3623 2823q38 0 52.5 -23t4.5 -64t-28.5 -60.5t-53.5 -19.5h-11q-56 -2 -68 17q-20 33 -12 62q12 33 45 60q32 28 71 28z" />
    <glyph glyph-name="Aring" unicode="&#xc5;" horiz-adv-x="3501" 
d="M3429 2482l1 -1q21 -32 8 -75q0 -1 -1 -2v-1l-6 -18q-38 -92 -97 -156q-2 -2 -23 -28q-8 -11 -14 -24q-4 -12 -28 -71q-54 -121 -136 -287q-12 -25 -37 -76t-30 -61q-7 -15 -32.5 -69t-84.5 -179t-113 -239q-222 -473 -473 -1013q-15 -34 1.5 -35t38.5 19
q189 138 428 330q10 7 19 -1.5t-7 -22.5q-216 -174 -391 -305q-75 -60 -126 -118q-52 -60 -69 -96q-183 -398 -299 -654q-12 -30 -32 -41l-9 -3q-1 -1 -4 -1h-14q-7 2 -10 4q-9 9 -4 42q33 213 48 464q-1 36 -45 6q-251 -160 -431 -247q-325 -156 -533 -156q-103 0 -176 37
q-47 26 -81 64q-23 23 -54 -8q-209 -183 -318 -243q-109 -61 -182 -61q-45 -4 -79 27q-35 30 -21 113q6 24 25 41t43 19q26 3 34 -7.5t-3 -41.5q-30 -75 -9 -93q34 -28 87.5 -16.5t143.5 76t244 201.5q52 47 40 76l-1 1q-80 207 52 583q79 219 213 439q133 218 297 380
q163 162 323 205q87 26 174 -17q89 -42 162 -205l1 -1l3 -9q4 -5 5 -11q14 -33 29 -83h1q9 -27 36 0q352 389 799 900q153 177 239 282q61 75 75 91q20 22 36 42q20 26 15 37v1l-3 15q-3 35 15 78v1q1 1 1 2q3 7 11 23q1 1 1 2q14 24 22 36l1 1q1 0 1 1t1 2q47 61 92 97
q42 32 84 45q-2 4 -1 6q1 11 17 13l14 2q68 9 94 -26h1q1 -1 1 -2zM2978 1701q31 62 103 212q52 110 85 193l4 10q5 14 -10 18q-3 0 -10 1.5t-10 1.5l-3 1h-2q-15 -2 -22 -11q-7 -6 -20 -21q-9 -11 -53 -62.5t-74 -86.5q-93 -112 -227 -266q-414 -472 -786 -880
q-54 -60 -45 -86v-1q86 -345 71 -814v-1q0 -38 42 -11q19 13 125 84q99 71 123 147q283 648 475 1067q204 443 234 505zM678 -403q8 -27 40 5q37 33 110 102q394 370 966 999q60 67 50 98q-3 8 -9.5 28t-10.5 31q-6 19 -17 42q-13 31 -23 48q-48 81 -116 116t-143 17
q-119 -35 -276 -187q-154 -149 -301 -368q-144 -214 -225 -437q-34 -85 -58 -226q-23 -141 13 -268zM1874 -197q66 43 64 93q15 460 -66 802q-6 21 -27 -5q-591 -640 -1001 -1023q-68 -65 -103 -95q-38 -35 -24 -58q33 -48 89 -80q53 -32 181 -20q126 10 346 100
q223 91 541 286zM2182 -73q13 27 7 32.5t-14.5 2t-24.5 -14.5q-65 -45 -109 -75q-70 -51 -68 -94q-16 -236 -45 -436q0 -24 11 0v2q14 34 55 133.5t64 154.5q82 196 124 295zM3353 2325q40 68 16 88q-14 11 -34 12q-7 -16 -22 -29q-15 -12 -31 -12h-3q-37 0 -65 -23.5
t-55 -80.5q-11 -20 -12 -39q-7 -37 27 -54q1 -1 3.5 -1.5t3.5 -0.5q59 -7 135 87q27 34 37 53z" />
    <glyph glyph-name="AE" unicode="&#xc6;" horiz-adv-x="3842" 
d="M3605 496h1q14 11 18 -1q3 -8 -7 -17q-37 -27 -103.5 -77t-87.5 -66q-359 -271 -647 -478q-290 -210 -510 -340q-169 -97 -279 -147q-9 -4 -25.5 -11.5t-23.5 -10.5q-5 -1 -13 -5q-21 -7 -39 -15q-105 -35 -155 -35q-34 0 -52 9q-63 26 -54 105q11 67 62 149
q55 87 124 167q-200 -125 -357 -200q-325 -156 -534 -156q-102 0 -175 37q-49 26 -81 64q-23 23 -54 -8h-1q-208 -183 -318 -243q-107 -61 -181 -61q-45 -4 -79 27q-35 30 -21 113q5 24 24.5 41t43.5 19q26 3 34 -7.5t-3 -41.5q-32 -75 -9 -93q34 -28 87 -16.5t143.5 76
t244.5 201.5q54 50 39 76v1q-81 207 51 583q78 215 214 439q133 218 297 380q163 162 323 205q87 26 174 -17q89 -42 162 -205v-1q0 -2 2 -5t2 -4t1.5 -5t2.5 -6q18 -44 30 -83q12 -29 36 0q332 367 800 900q165 193 238 282q88 107 138 163q68 78 115 112.5t83 20.5
q53 -20 14 -127q-40 -110 -166 -363q-63 -129 -68 -139q-11 -23 -133 -281q223 241 374 365q248 203 350 137q48 -32 49 -108t-50 -192q-36 -75 -106 -162q-68 -85 -124 -148q-26 -29 -41 -47q-30 -34 -28 -41q8 -8 106 84q76 71 145 128q82 66 141 88q23 6 33.5 -13.5
t1.5 -45.5q-9 -24 -30 -38.5t-44 -13.5q-3 1 -10 1q-57 0 -121 -44.5t-163 -140.5q-28 -24 -49 -34.5t-31.5 -8.5t-14.5 11q-2 6 0 14q5 20 28 46q4 4 6 7q10 13 11 14q66 78 139 174q70 94 101 171q62 157 -1 191q-10 9 -73 -8q-59 -16 -165 -97q-253 -206 -532 -496
q-79 -83 -161 -176q-4 -6 -7 -9l-16 -18q-125 -143 -210 -256.5t-124 -182.5t-51.5 -118t-5.5 -70t26 -31q21 -13 68 -8q36 5 87 25q117 45 379 228q12 10 28 30q43 51 71 51q18 0 41 -20q0 -1 1 -1l1 -2l1 -1v-3l2 -3q12 -37 -37 -64q-42 -25 -100 -63q-241 -158 -471 -352
q-94 -79 -162 -143q-51 -47 -99 -93l-14 -14q-73 -73 -108 -110q-1 -1 -43 -46q-131 -143 -196 -246q-68 -109 -34 -146q37 -39 195 23q7 3 20 8.5t19 8.5h1q23 10 28 13q9 4 27 13t27 13q192 95 573 345q383 250 1014 720zM678 -403q8 -27 40 5q38 35 109 102
q391 367 967 999q62 69 49 98q-12 40 -19 59q-6 19 -17 42q-13 31 -23 48q-48 81 -116 116t-143 17q-119 -35 -276 -187q-154 -149 -301 -368q-142 -212 -226 -437q-33 -87 -57 -226q-23 -141 13 -268zM806 -563q53 -32 181 -20q126 10 346 100q220 89 540 286q22 14 33 25
q8 8 11 12q21 28 21 56q13 461 -66 802q-4 9 -9 9q-8 0 -19 -14q-586 -637 -1000 -1023q-13 -12 -49 -45.5t-54 -49.5q-40 -35 -25 -58q34 -49 90 -80zM1952 811q-53 -59 -44 -86v-1q88 -353 70 -814v-6q27 28 67 66q129 126 255 232q30 25 76 62h-1q29 26 11 26q-3 0 -8 -1
q-1 0 -2 -1q-14 -2 -40 -4q-70 -1 -101 36q-28 27 -18 100q10 71 107 227q99 157 325 429q43 52 87 102q207 452 242 523q65 131 98 203q52 110 84 189q33 81 21 89q-13 5 -59.5 -45t-154.5 -179q-96 -116 -228 -267q-155 -176 -409 -462q-180 -203 -378 -418z" />
    <glyph glyph-name="Ccedilla" unicode="&#xc7;" horiz-adv-x="2576" 
d="M2394 496q14 9 17 -4t-13 -26q-1034 -768 -1569 -1015q-289 -133 -464 -143v-1q-21 -1 -30 -16q-24 -30 -42 -59q156 40 196 -4q28 -31 19 -85t-60 -136q-61 -93 -165 -160q-106 -68 -193 -71q-22 0 -40 6q-12 3 -23 11.5t-20 26.5t-3 51.5t29 77.5q10 17 27 25t33 4
q13 -6 -16 -42q-9 -11 -19 -24q-13 -27 -18.5 -51.5t5.5 -42.5q57 -35 124 -2q68 32 127 94q59 61 93 116q36 56 58 113q22 52 10 69q-38 32 -203 -35q-4 -1 -12 -5q-25 -13 -34 -5q-8 11 7 36q2 4 3 7q8 16 24 46t23 44q9 13 -2 17q-83 17 -126 74q-40 55 -39.5 142.5
t29 178.5t81.5 198.5t103.5 190.5t108.5 168q431 627 1066 1170q336 282 540 401q206 120 312 129q106 10 146 -40q42 -55 -21 -203q-62 -146 -195 -343q-130 -194 -293 -392q-11 -14 -9 -15q3 0 12 8q71 62 196 160q101 81 193 144q88 59 112 56q23 -6 30.5 -23t-4.5 -40
q-22 -39 -61 -36q-58 -20 -202 -108q-148 -90 -305 -216q-21 -17 -30 -18h-5q-17 1 -10 22q13 25 77 103q8 8 11 13q28 32 41 48v1q132 163 227 329q93 164 128 280q36 119 3 159q-12 13 -35.5 15.5t-61.5 -7.5t-88.5 -33t-118 -64t-147 -96t-179.5 -133t-211 -172
q-304 -258 -582 -556q-283 -301 -487 -590q-177 -255 -254 -486q-76 -228 -20 -318q52 -63 218 -44t392 122q279 131 690 389q403 252 899 615z" />
    <glyph glyph-name="Egrave" unicode="&#xc8;" horiz-adv-x="1991" 
d="M1987 496q12 9 18 0.5t-7 -18.5q-126 -94 -188 -141q-368 -277 -648 -479q-293 -212 -512 -341q-388 -224 -534 -224q-35 0 -53 9q-63 26 -54 105q15 84 91 193q76 108 170 209q97 105 156 161q159 154 331 294q31 26 9 26q-2 0 -6 -1h-3q-103 -17 -140 31
q-28 27 -18 100q10 71 107 227q99 157 325 429q405 483 658 690q248 203 350 137q47 -32 48 -108t-49 -192q-40 -80 -106 -162q-72 -89 -125 -148q-72 -82 -68 -88q8 -8 106 84q76 71 145 128q83 67 140 88q23 6 33 -13t3 -46q-9 -24 -30 -38.5t-44 -13.5q-59 3 -126.5 -42
t-168.5 -142q-27 -24 -48 -34.5t-32 -9t-15 10.5q-4 21 28 61q72 84 148 184t110 182q61 161 -1 191q-10 9 -74 -8q-60 -16 -164 -97q-334 -269 -693 -672q-132 -149 -222 -267.5t-131 -190t-55 -122t-7 -72.5t26 -33q50 -26 170.5 23.5t363.5 221.5q15 11 29 30
q23 29 49 45q29 17 62 -14l3 -4l1 -1v-2q0 -2 1 -3q12 -37 -36 -64q-438 -271 -832 -651q-205 -200 -323 -359.5t-72 -202.5q19 -25 107 -6q92 20 291 128q209 112 568 353q370 248 938 669zM2090 2180q5 -8 15 -22q15 -12 13.5 -24t-30.5 -27q-15 -6 -40 19
q-41 48 -76.5 109t-52 99t-15.5 44q-8 29 4.5 56.5t44.5 45.5q28 17 66.5 14.5t35.5 -24.5v-1q-1 -9 -10 -30q-6 -21 -12 -41q-14 -92 57 -218z" />
    <glyph glyph-name="Eacute" unicode="&#xc9;" horiz-adv-x="1991" 
d="M1987 496q12 9 18 0.5t-7 -18.5q-126 -94 -188 -141q-368 -277 -648 -479q-293 -212 -512 -341q-388 -224 -534 -224q-34 0 -53 9q-63 26 -54 105q15 84 91 193q76 108 170 209q97 105 156 161q159 154 331 294q31 26 9 26q-2 0 -6 -1h-3q-101 -17 -140 31
q-28 27 -18 100q10 71 107 227q99 157 325 429q405 483 658 690q248 203 350 137q47 -32 48 -108t-49 -192q-40 -80 -106 -162q-72 -89 -125 -148q-71 -81 -68 -88q8 -8 106 84q76 71 145 128q83 67 140 88q23 6 33 -13t3 -46q-9 -24 -30 -38.5t-44 -13.5q-59 3 -126.5 -42
t-168.5 -142q-27 -24 -48 -34.5t-31.5 -9t-15.5 10.5q-4 21 28 61q72 84 148 184t110 182q61 161 -1 191q-10 9 -74 -8q-60 -16 -164 -97q-339 -275 -693 -672q-132 -149 -222 -267.5t-131 -190t-55 -122t-7 -72.5t26 -33q50 -26 170.5 23.5t363.5 221.5q15 11 29 30
q23 29 49 45q29 17 62 -14l3 -4l1 -1v-2q0 -2 1 -3q12 -37 -36 -64q-438 -271 -832 -651q-205 -200 -323 -359.5t-72 -202.5q19 -25 107 -6q92 20 291 128q209 112 568 353q370 248 938 669zM2296 2477q43 -42 -8 -101q-11 -15 -85 -88q-80 -79 -189 -161q-40 -26 -54 -20
q-13 8 -18.5 14.5t-2.5 13t9.5 12t18.5 12.5q13 8 28 21q139 124 176 215q5 15 10 40q3 21 7 30v1l1 1q11 21 49 24t58 -14z" />
    <glyph glyph-name="Ecircumflex" unicode="&#xca;" horiz-adv-x="1991" 
d="M1987 496q16 11 20 -1q3 -8 -9 -17q-126 -94 -188 -141q-368 -277 -648 -479q-290 -211 -511 -341q-390 -224 -535 -224q-34 0 -53 9q-63 26 -53 105q13 83 90 193q76 108 170 209q97 105 156 161q159 154 331 294q31 26 9 26q-2 0 -6 -1h-3q-101 -17 -140 31
q-28 27 -18 100q10 71 107 227q99 157 325 429q405 483 658 690q248 203 350 137q47 -32 48 -108t-49 -192q-40 -80 -106 -162q-72 -89 -125 -148q-71 -81 -68 -88q8 -8 106 84q76 71 145 128q82 66 141 88q23 6 32.5 -13t2.5 -46q-9 -24 -30 -38.5t-44 -13.5
q-59 3 -126.5 -42t-168.5 -142q-27 -24 -48 -34.5t-31.5 -9t-15.5 10.5q-4 21 28 61q72 84 148 184t110 182q61 161 -1 191q-10 9 -74 -8q-60 -16 -164 -97q-339 -275 -693 -672q-132 -149 -222 -267.5t-131 -190t-55 -122.5t-7 -72.5t26 -32.5q50 -26 170.5 23.5
t363.5 221.5q15 11 29 30q23 29 49 45q29 17 62 -14l3 -4l1 -1v-2q0 -2 1 -3q13 -37 -36 -64q-438 -271 -832 -651q-205 -200 -323 -359.5t-72 -202.5q19 -25 107 -6q92 20 291 128q209 112 568 353q370 248 938 669zM2149 2174q-4 -9 -4 -20q0 -10 -1 -14.5t-6 -8.5t-16 -4
q-40 0 -28 33q2 13 8 21q1 6 8 25q15 44 26.5 84.5t19 77t5 58t-16.5 20.5q-18 0 -40.5 -26.5t-93.5 -127.5q-47 -72 -62 -101q-19 -40 -40 -59q-19 -19 -68 -25q-24 -4 -31.5 5.5t0 28t15 31t16.5 25.5q0 1 1 1l1 2q1 2 3 4t3 4q32 46 77 102q168 204 240 194h2
q16 3 27.5 -6.5t9.5 -76.5t-37 -189q-1 -3 -13 -40q-4 -9 -5 -18z" />
    <glyph glyph-name="Edieresis" unicode="&#xcb;" horiz-adv-x="2420" 
d="M1987 496q16 11 20 -1q3 -8 -9 -17q-126 -94 -188 -141q-368 -277 -648 -479q-290 -211 -511 -341q-390 -224 -535 -224q-34 0 -53 9q-63 26 -53 105q13 83 90 193q76 108 170 209q97 105 156 161q159 154 331 294q31 26 9 26q-2 0 -6 -1h-2q-102 -17 -141 31
q-28 27 -18 100q10 71 107 227q99 157 325 429q405 483 658 690q248 203 350 137q47 -32 48 -108t-49 -192q-40 -80 -106 -162q-72 -89 -125 -148q-71 -81 -68 -88q8 -8 106 84q76 71 145 128q82 66 141 88q23 6 33.5 -13.5t1.5 -45.5q-9 -24 -30 -38.5t-44 -13.5
q-59 3 -126.5 -42t-168.5 -142q-27 -24 -48 -34.5t-31.5 -9t-15.5 10.5q-4 21 28 61q72 84 148 184t110 182q61 161 -1 191q-10 9 -74 -8q-60 -16 -164 -97q-339 -275 -693 -672q-132 -149 -222 -267.5t-131 -190t-55 -122.5t-7 -72.5t26 -32.5q50 -26 170.5 23.5
t363.5 221.5q15 11 29 30q23 29 49 45q29 17 62 -14l4 -4v-1l1 -2v-3q13 -37 -36 -64q-438 -271 -832 -651q-205 -200 -323 -359.5t-72 -202.5q19 -25 107 -6q92 20 291 128q214 115 569 353q375 251 937 669zM1950 2200h-12q-52 -6 -68 16q-20 34 -12 63q12 31 45 60
q34 28 71 28q39 0 53 -23.5t5 -64.5q-10 -41 -29 -60t-53 -19zM2279 2200h-12q-52 -6 -68 16q-19 34 -12 63q12 31 45 60q32 28 71 28q38 0 52.5 -23.5t5.5 -64.5q-12 -41 -30 -60t-52 -19z" />
    <glyph glyph-name="Igrave" unicode="&#xcc;" horiz-adv-x="1121" 
d="M1389 1965q58 13 85 -25q72 -85 -246 -678q-219 -405 -611 -1024q-21 -35 -13 -49q0 -1 1 -2q1 -4 4 -8q5 -9 9 -15q11 -15 -2 -25q-19 -12 -37 18q-6 11 -17 -6q-245 -383 -508 -776q-13 -19 -21.5 -23.5t-25.5 4.5q-12 12 13 33q10 9 22 26q282 425 492 775
q23 40 16 62v1q-36 172 11.5 379.5t140.5 411.5q146 320 359 607q61 83 155 186q91 99 173 128zM1138 1256q160 302 208 454q51 158 30 168q-32 5 -115 -74q-85 -82 -168 -191q-104 -137 -204 -298q-103 -165 -171 -313q-71 -157 -120 -355q-48 -199 -24 -363q3 -10 8 -7
t13 14q315 539 523 928q19 35 20 37zM1590 2280q5 -8 15 -22q15 -12 13.5 -24t-30.5 -27q-15 -6 -40 19q-41 48 -76.5 109t-52 99t-15.5 44q-8 29 4.5 56.5t44.5 45.5q28 17 66.5 14.5t35.5 -24.5v-1q-1 -9 -10 -30q-6 -21 -12 -41q-14 -92 57 -218z" />
    <glyph glyph-name="Iacute" unicode="&#xcd;" horiz-adv-x="1121" 
d="M1389 1965q58 13 85 -25q72 -85 -246 -678q-219 -405 -611 -1024q-20 -33 -13 -49q1 -1 1 -2l4 -8q5 -9 9 -15q11 -15 -2 -25q-9 -6 -19.5 0t-16.5 18q-8 10 -18 -6q-245 -383 -508 -776q-21 -37 -47 -19q-10 10 13 33q12 11 23 26q287 431 491 775q23 40 16 62v1
q-36 172 11.5 379.5t140.5 411.5q146 320 359 607q63 85 156 186q92 99 172 128zM1138 1256q160 302 208 454q51 158 30 168q-32 5 -115 -74q-85 -82 -168 -191q-106 -142 -203 -298q-103 -165 -171 -313q-72 -157 -120 -355t-25 -363q4 -10 9 -7t12 14q315 539 523 928
q1 2 20 37zM1796 2577q43 -42 -8 -101q-11 -15 -85 -88q-80 -79 -189 -161q-40 -26 -54 -20q-13 8 -18.5 14.5t-2.5 13t9.5 12t18.5 12.5q13 8 28 21q139 124 176 215q5 15 10 40q3 21 7 30v1l1 1q11 21 49 24t58 -14z" />
    <glyph glyph-name="Icircumflex" unicode="&#xce;" horiz-adv-x="1868" 
d="M1390 1965q59 14 84 -25q8 -13 11.5 -25t-2 -59.5t-28.5 -113t-81 -191t-146 -289.5q-225 -416 -610 -1024q-21 -33 -14 -49q1 -1 1 -2l4 -8q3 -5 10 -15q11 -15 -2 -25q-9 -6 -20 0t-17 18q-8 14 -17 -6q-252 -392 -508 -776q-12 -19 -21.5 -23.5t-25.5 4.5q-12 9 12 33
q12 11 23 26q282 425 492 775q23 42 16 62v1q-67 308 152 791q148 325 359 607q60 83 155 186q91 99 173 128zM1118 1218l20 38q159 300 209 454q51 158 29 168q-32 5 -115 -74q-85 -82 -168 -191q-106 -142 -203 -298q-103 -165 -171 -313q-72 -157 -120 -355
q-48 -199 -24 -363q4 -19 20 7q313 532 523 927zM1751 2277q-3 -12 -3 -23q0 -10 -1.5 -16t-7.5 -10.5t-17 -4.5q-42 0 -33 37q2 5 4.5 13t4.5 12q3 7 10 28q38 106 51.5 183t-12.5 87q-21 0 -45 -28.5t-106 -144.5q-49 -71 -70 -115q-22 -43 -46 -66q-23 -22 -76 -29
q-18 -2 -28 2.5t-10 15t2 20.5t11 25l13.5 22.5t11.5 17.5q0 1 1 1l1 2q6 9 7 10q33 48 87 114q187 229 269 219h4q87 0 0 -307q-5 -19 -15 -45q-6 -17 -7 -20z" />
    <glyph glyph-name="Idieresis" unicode="&#xcf;" horiz-adv-x="1915" 
d="M1389 1965q58 13 85 -25q72 -87 -247 -678q-225 -416 -610 -1024q-21 -35 -13 -49v-2l4 -8l10 -15q11 -15 -2 -25q-19 -12 -37 18q-8 14 -17 -6q-245 -383 -508 -776q-12 -19 -21.5 -23.5t-25.5 4.5q-12 12 13 33q13 13 22 26q282 425 492 775q23 40 16 62v1
q-36 172 11.5 379.5t140.5 411.5q148 325 359 607q61 83 155 186q91 99 173 128zM1117 1218l20 38q161 300 209 454q51 158 29 168q-31 5 -114 -74q-85 -80 -169 -191q-106 -142 -203 -298q-103 -165 -171 -313q-71 -157 -120 -355q-48 -199 -24 -363q3 -10 8 -7t13 14
q317 541 522 927zM1446 2200h-12q-52 -6 -68 16q-20 34 -12 63q12 31 45 60q32 28 71 28q38 0 52.5 -23.5t5.5 -64.5q-12 -41 -30 -60t-52 -19zM1798 2367q39 0 53 -23.5t5 -64.5q-10 -41 -28.5 -60t-53.5 -19h-12q-51 -6 -68 16q-20 35 -11 63q12 31 45 60q32 28 70 28z
" />
    <glyph glyph-name="Eth" unicode="&#xd0;" horiz-adv-x="2732" 
d="M2597 1890q163 -130 -15 -547q-186 -429 -675 -1033q-283 -346 -485 -527q-199 -180 -334 -245q-132 -64 -211 -59q-68 1 -103 25q-92 60 -87 188q5 129 106 266q33 42 66 19q2 -5 4 -7.5t-3.5 -10t-9.5 -11.5l-13 -13q-19 -17 -26 -26q-72 -97 -76 -205q-5 -110 76 -165
q43 -26 129 -3.5t186 88.5q145 98 334 290t389 437q430 536 627 1009q64 154 66.5 262.5t-53.5 148.5q-48 41 -138 42q-90 2 -213 -59q-163 -85 -367 -250q-203 -164 -423 -375l-3 -3q-2 -3 -5 -5q0 -1 -1 -1t-2 -1q0 -1 -1 -2l-2 -2h-1q-71 -68 -145 -112q0 -1 -1 -1t-2 -1
q-34 -20 -71 -79q-82 -141 -189 -314v-1q-7 -14 -3 -21t15 -8q176 -14 269 -19q136 -7 201 -3h19q22 2 27.5 -3.5t-4.5 -30.5q-8 -20 -16 -24t-21 -1q-14 2 -24 2l-492 7q-36 0 -50 -26q-141 -225 -273 -426q-205 -314 -340 -486q-85 -104 -138 -146q-52 -41 -78 -40
q-10 0 -14 17q-2 13 7.5 19.5t29.5 6.5q10 3 59 58q50 53 160 202q98 132 293 428q113 176 224 366q9 13 4.5 19t-10 7.5t-15.5 1.5q-41 -2 -59 -6h-1q-91 -25 -72 21q33 73 96 73l30 -1l36 -4q11 0 16 -1q39 -4 54 28q77 134 185 331q17 31 12 67v1q-11 43 20 136
q34 104 114 264q75 150 152 283q84 146 147 236q35 52 62.5 76.5t54.5 18.5q30 -8 34 -50q5 -44 -40 -151q-70 -159 -208 -415q-7 -13 -20.5 -38t-17.5 -33v-1q0 -1 -1.5 -3t-2.5 -4q0 -1 -5 -8v-1q-68 -129 -138 -251q-13 -22 -4 -23l12 5q29 23 100 91h1l1 1l1 1q0 2 1 2
q1 1 4 3l2 2t1 2t1 1t2 1q475 454 801.5 647t470.5 82zM1111 1079q81 150 199 374l4 6q41 84 93 194q55 117 76 168q15 37 20.5 53.5t1.5 16.5q-9 0 -52 -72q-49 -81 -96 -163q-63 -113 -86 -157q-165 -309 -185 -418v-5q-1 -22 4 -23t21 26z" />
    <glyph glyph-name="Ntilde" unicode="&#xd1;" horiz-adv-x="2734" 
d="M2635 1956q69 -15 34 -121q-1 -2 -1 -6q-13 -45 -70 -45q-18 0 -23.5 6.5t-5.5 24.5q-100 -91 -230 -269q-131 -178 -231 -339q-670 -1074 -1023 -1566q-190 -266 -280 -365q-88 -96 -137 -92q-11 0 -20 3q-43 11 -53.5 60t20.5 185t115 377q191 534 419 1089
q44 111 78 194q95 232 168 425q70 186 60 208q-39 7 -164 -154q-134 -172 -366 -497q-366 -510 -684 -1036q-26 -44 -149 -252q-17 -30 -43 -41q-1 -1 -2 -1q-28 -9 -38 5t3 38q7 12 20 22q11 7 23 27q255 431 463 815q199 368 262 595h-2l1 1h-2q-23 0 -34.5 16t-5.5 40
q8 25 77 84q23 12 58 15q38 3 63 -18q13 -13 15 -29t-15 -61t-44 -100.5t-87 -172.5q-29 -57 -74 -141q-16 -33 -8 -31q5 1 21 25q343 505 548 768q186 235 266 220q26 -5 32 -33q12 -37 -56 -221q-67 -183 -228 -582q-33 -83 -58 -145q-85 -211 -157 -381
q-152 -353 -260 -650q-4 -11 -11 -31.5t-8 -22.5q-89 -245 -121 -356q-31 -108 -22 -180q25 -54 133 71q70 80 282 378q11 15 19 26q223 318 782 1229q135 220 165 268q30 50 122 193q88 134 161 234q142 191 200.5 247.5t102.5 49.5zM1880 2315q-15 16 -12.5 39t22.5 43
q5 5 13.5 13t12.5 12q37 35 58.5 54t52 41t57.5 32t55 10q18 0 33.5 -11.5t29 -34t22 -40.5t19.5 -46q11 -29 21 -48q16 -30 71 -12q67 29 154 120q35 38 49 42q30 1 11 -29q-7 -11 -19 -23q-68 -76 -143 -136q-77 -60 -146 -50q-41 14 -73 103q-12 30 -19.5 45.5t-20.5 29
t-28 13.5q-21 0 -69.5 -43t-65.5 -102q-9 -24 -38 -30q-27 -6 -47 8z" />
    <glyph glyph-name="Ograve" unicode="&#xd2;" horiz-adv-x="2416" 
d="M2215 496q7 3 15 0t8 -11.5t-12 -15.5q-274 -178 -471 -298q-108 -64 -160 -120l-1 -1q-223 -243 -387 -379q-444 -372 -728 -421q-22 -3 -43 -3q-57 2 -88 22.5t-39 46.5q-26 65 21 179q3 9 -3 14t-19 5h-6q-48 0 -83 7l-12 2l-10 2q-141 37 -166 173q-31 184 159 523
q185 330 561 775q153 182 304 335t284.5 265t258.5 197t231.5 135.5t200 74.5t167 21t128.5 -31q189 -96 136 -423q-55 -332 -352 -823q-189 -306 -375 -533l-1 -1q-6 -7 -8.5 -12t-2 -7.5t6 -1t15.5 6.5q225 137 471 297zM1663 192q204 241 403 564q260 438 305 747
q46 310 -107 396q-84 41 -226 2q-140 -37 -317 -146q-207 -127 -439 -332q-227 -201 -466 -481q-355 -421 -544 -741q-187 -317 -164 -475q9 -48 48 -90q39 -43 91 -55q31 -7 82 -6q44 7 64 43q1 1 1 2h1q51 85 127 181q265 327 478 479q210 149 311 96q68 -41 50 -150
q-16 -108 -124 -252q-18 -21 -40.5 -30t-40.5 0q-12 7 -19 17q-11 24 19 37q19 7 46 33q57 59 84 141v1q18 47 11.5 82.5t-35.5 46.5q-14 5 -48.5 -4.5t-97 -44.5t-138 -92t-181 -160.5t-215.5 -235.5q-69 -83 -109 -147q-8 -13 0.5 -17t19.5 1q161 36 435 156
q263 118 571 296q51 31 99 74q50 45 65 64zM1479 -16q30 36 -3 19q-2 -2 -5 -3q-640 -377 -1010 -466q-45 -14 -51 -32q-44 -104 -24 -148q13 -21 43 -25q26 -4 55 -2q116 8 286 89q173 80 403 273q134 113 306 295zM2380 2290q5 -8 15 -22q15 -12 13.5 -24t-30.5 -27
q-15 -6 -40 19q-41 48 -76.5 109t-52 99t-15.5 44q-8 29 4.5 56.5t44.5 45.5q28 17 66.5 14.5t35.5 -24.5v-1q-1 -9 -10 -30q-6 -21 -12 -41q-14 -92 57 -218z" />
    <glyph glyph-name="Oacute" unicode="&#xd3;" horiz-adv-x="2416" 
d="M2215 496q12 6 20 -4q9 -11 -10 -23q-290 -188 -470 -298q-108 -64 -160 -120l-1 -1q-223 -243 -387 -379q-444 -372 -728 -421q-22 -3 -43 -3q-62 1 -92 25q-29 23 -36 44q-25 64 22 179h-1q4 9 -2 14t-19 5h-6q-48 0 -83 7l-12 2l-10 2q-141 37 -166 173
q-31 184 159 523q185 330 561 775q153 182 304 335t284.5 265t258.5 197t231.5 135.5t200 74.5t167 21t128.5 -31q189 -96 136 -423q-55 -332 -352 -823q-189 -306 -375 -533h-1v-1q-6 -7 -8.5 -12t-2 -7.5t6 -1t15.5 6.5q225 137 471 297zM1663 192q204 241 403 564
q260 438 305 747q46 310 -107 396q-84 41 -226 2q-140 -37 -317 -146q-207 -127 -439 -332q-227 -201 -466 -481q-355 -421 -544 -741q-187 -317 -164 -475q9 -48 48 -90q38 -43 90 -55q32 -8 83 -6q44 7 64 43q1 1 1 2h1q51 85 127 181q267 330 478 479q210 149 311 96
q68 -41 50 -150q-16 -108 -124 -252q-18 -22 -40 -30.5t-42 0.5q-10 6 -18 17q-11 24 19 37q19 7 46 33q56 59 84 141v1q18 47 11.5 82.5t-35.5 46.5q-15 5 -49 -4.5t-96.5 -44.5t-138 -92t-180.5 -160.5t-216 -235.5q-69 -83 -109 -147q-8 -14 0 -17t20 1q161 36 435 156
q258 116 570 296q51 30 100 74q50 45 65 64zM1479 -16q30 36 -3 19q-2 -2 -5 -3q-640 -377 -1010 -466q-45 -14 -51 -32q-44 -104 -24 -148q12 -20 42 -25q26 -4 55 -2q117 8 287 89q173 80 403 273q133 113 306 295zM2496 2577q43 -42 -8 -101q-11 -15 -85 -88
q-80 -79 -189 -161q-40 -26 -54 -20q-13 8 -18.5 14.5t-2.5 13t9.5 12t18.5 12.5q13 8 28 21q139 124 176 215q5 15 10 40q3 21 7 30v1l1 1q11 21 49 24t58 -14z" />
    <glyph glyph-name="Ocircumflex" unicode="&#xd4;" horiz-adv-x="2417" 
d="M2216 496q12 6 20 -4q9 -11 -10 -23q-290 -188 -470 -298q-108 -64 -160 -120l-1 -1q-223 -243 -387 -379q-444 -372 -728 -421q-22 -3 -43 -3q-62 1 -92 25q-29 23 -36 44q-26 65 21 179q7 19 -22 19h-5q-48 0 -83 7l-12 2l-10 2q-141 37 -166 173q-31 184 159 523
q184 328 560 775q154 182 305 335t284 265t258.5 197t232 135.5t200 74.5t167 21t128.5 -31q28 -15 51 -35t46.5 -54.5t34.5 -80t15 -109.5t-11 -144q-55 -332 -352 -823q-189 -306 -375 -533h-1v-1q-12 -15 -10 -19.5t20 5.5q217 132 472 297zM1663 192q207 245 404 564
q258 434 305 747q46 310 -107 396q-84 41 -226 2q-140 -37 -317 -146q-207 -127 -439 -332q-227 -201 -466 -481q-355 -421 -544 -741q-187 -317 -164 -475q9 -48 48 -90q38 -43 90 -55q32 -8 83 -6q44 7 64 43q1 1 1 2q48 79 128 181q267 330 478 479q210 149 311 96
q67 -40 50 -150q-16 -108 -124 -252q-18 -22 -40 -30.5t-42 0.5q-10 6 -18 17q-11 24 19 37q19 7 46 33q55 59 84 141v1q17 47 10.5 82.5t-34.5 46.5q-15 5 -49 -4.5t-96.5 -44.5t-138 -92t-180.5 -160.5t-216 -235.5q-69 -83 -109 -147q-8 -14 0 -17t20 1q160 36 435 156
q258 116 570 296q51 30 100 74q51 46 64 64zM1480 -16q30 36 -3 19q-2 -2 -5 -3q-640 -377 -1010 -466q-47 -14 -51 -32q-44 -104 -24 -148q12 -20 42 -25q26 -4 55 -2q117 8 287 89q174 81 402 273q132 111 307 295zM2429 2274q-4 -9 -4 -20q0 -10 -1 -14.5t-6 -8.5t-16 -4
q-40 0 -28 33q2 13 8 21q1 6 8 25q15 44 26.5 84.5t19 77t5 58t-16.5 20.5q-18 0 -40.5 -26.5t-93.5 -127.5q-47 -72 -62 -101q-19 -40 -40 -59q-19 -19 -68 -25q-24 -4 -31.5 5.5t0 28t15 31t16.5 25.5q0 1 1 1l1 2q1 1 3 3.5t3 4.5q32 46 77 102q168 204 240 194h2
q16 3 27.5 -6.5t9.5 -76.5t-37 -189q-1 -3 -13 -40q-4 -9 -5 -18z" />
    <glyph glyph-name="Otilde" unicode="&#xd5;" horiz-adv-x="2417" 
d="M2216 496q8 3 15.5 0.5t7 -11t-12.5 -16.5q-290 -188 -470 -298q-108 -64 -160 -120l-1 -1q-223 -243 -387 -379q-444 -372 -728 -421q-24 -3 -43 -3q-62 1 -92 25q-29 23 -36 44q-26 65 21 179q7 19 -22 19h-5q-49 0 -84 7q-2 1 -5.5 1.5t-5.5 0.5t-5 0.5t-5 1.5
q-141 37 -166 173q-31 184 159 523q184 328 560 775q154 182 305 335t284 265t258.5 197t232 135.5t200 74.5t167 21t128.5 -31q28 -15 51 -35t46.5 -54.5t34.5 -80t15 -109.5t-11 -144q-55 -332 -352 -823q-189 -306 -375 -533h-1v-1q-12 -15 -10 -19.5t20 5.5
q217 132 472 297zM1663 192q207 245 404 564q258 434 305 747q46 310 -107 396q-84 41 -226 2q-140 -37 -317 -146q-207 -127 -439 -332q-227 -201 -466 -481q-359 -425 -545 -741q-187 -317 -163 -475q9 -48 48 -90q38 -43 90 -55q32 -8 83 -6q44 7 64 43q1 1 1 2
q48 79 128 181q267 330 478 479q210 148 310 96q68 -41 50 -150q-17 -110 -123 -252q-18 -22 -40 -30.5t-42 0.5q-10 6 -18 17q-11 24 19 37q19 7 46 33q55 59 84 141v1q17 47 10.5 82.5t-34.5 46.5q-15 5 -49 -4.5t-96.5 -44.5t-138 -92t-180.5 -160.5t-216 -235.5
q-69 -83 -109 -147q-8 -13 0 -17t19 1q163 36 436 156q258 116 570 296q51 30 100 74q46 42 64 64zM1480 -16q30 36 -3 19q-2 -2 -5 -3h-1q-638 -377 -1009 -466q-47 -14 -51 -32q-44 -104 -24 -148q12 -20 42 -25q26 -4 55 -2q117 8 287 89q174 81 402 273q132 111 307 295
zM2748 2466q37 0 4 -41l-11 -12q-67 -73 -144 -135q-74 -61 -145 -50q-38 13 -74 103q-15 42 -30.5 65t-37.5 23q-10 0 -36 -16.5t-57 -52t-42 -76.5q-9 -25 -38 -31q-28 -4 -46 9q-16 15 -13 38.5t23 43.5q9 8 26 25q50 47 77 70.5t68 45t77 21.5q24 0 45.5 -23t33 -47
t26.5 -63q9 -25 21 -47q12 -34 70 -12q72 30 154 119q33 38 49 43z" />
    <glyph glyph-name="Odieresis" unicode="&#xd6;" horiz-adv-x="2723" 
d="M2216 496q8 3 15.5 0.5t7 -11t-12.5 -16.5q-290 -188 -470 -298q-108 -64 -160 -120l-1 -1q-225 -243 -387 -379q-444 -372 -728 -421q-24 -3 -43 -3q-62 1 -92 25q-29 23 -36 44q-26 65 21 179q7 19 -22 19h-5q-49 0 -84 7q-2 0 -5.5 0.5t-5.5 1.5q-2 0 -5.5 0.5
t-5.5 1.5q-140 38 -165 173q-32 185 158 523q185 330 561 775q154 182 305 335t284 265t258.5 197t232 135.5t200 74.5t167 21t128.5 -31q28 -15 51 -35t46.5 -54.5t34.5 -80t15 -109.5t-11 -144q-55 -332 -352 -823q-190 -309 -376 -533v-1q-13 -15 -10.5 -20t20.5 6
q217 132 472 297zM1663 192q207 245 404 564q258 434 305 747q46 310 -107 396q-84 41 -226 2q-140 -37 -317 -146q-207 -127 -439 -332q-227 -201 -466 -481q-359 -425 -545 -741q-187 -317 -163 -475q9 -48 48 -90q38 -43 90 -55q31 -7 83 -6q44 7 64 43q0 1 1 2
q48 79 128 181q267 330 478 479q210 148 310 96q68 -41 50 -150q-17 -110 -123 -252q-18 -22 -40 -30.5t-42 0.5q-10 6 -18 17q-6 16 -1.5 23t19.5 14q20 8 47 33q55 59 84 141v1q17 47 10.5 82.5t-34.5 46.5q-15 5 -49 -4.5t-96.5 -44.5t-138 -92t-180.5 -160.5
t-216 -235.5q-69 -83 -109 -147q-8 -13 0 -17t19 1q163 36 436 156q258 116 570 296q51 31 99 74q50 45 65 64zM1480 -16q30 36 -3 19q-2 -2 -5 -3h-1q-638 -377 -1009 -466q-47 -14 -51 -32q-45 -104 -24 -148q12 -20 42 -25q26 -4 55 -2q117 8 287 89q174 81 402 273
q132 111 307 295zM2254 2256h-12q-56 -2 -68 17q-20 33 -12 62q12 33 45 60q32 28 71 28q38 0 52.5 -23t5.5 -64q-12 -42 -30 -61t-52 -19zM2582 2256h-11q-56 -2 -69 17q-19 32 -11 62q12 33 45 60q32 28 71 28q38 0 52 -23t5 -64q-10 -41 -28.5 -60.5t-53.5 -19.5z" />
    <glyph glyph-name="multiply" unicode="&#xd7;" horiz-adv-x="1321" 
d="M913 700q7 -13 4 -19t-19 -16q-6 -4 -10 -8q-102 -73 -304 -227q-2 -2 -15.5 -12.5t-21.5 -15.5q-25 -19 -19 -42l6 -36q16 -119 57 -250q5 -11 17 -19q17 -11 2 -24q-7 -5 -8 -5q-22 -12 -32.5 -9t-16.5 21q-50 146 -86 279q-6 22 -27 3q-18 -13 -52 -41
q-11 -9 -29.5 -23.5t-26.5 -20.5q-78 -59 -97 -76q-31 -28 -51 -53v-1l-13 -13q-1 0 -1 -1l-2 -1q-13 -13 -21 -18.5t-16 -4t-16 12.5q-26 35 25 73q2 1 8.5 5.5t20 14t26.5 18.5q17 12 57.5 40.5t82.5 58t83 59.5q36 24 28 43q-49 182 -58 213q-4 9 -4 12q-3 19 10.5 39
t36.5 31q24 10 45 0.5t17 -30.5q-12 -59 12 -159q3 -19 11 -61q5 -20 22 -7q36 25 100 71t91 65q85 60 133 94q18 13 31 27q17 17 20 13z" />
    <glyph glyph-name="Oslash" unicode="&#xd8;" horiz-adv-x="1614" 
 />
    <glyph glyph-name="Ugrave" unicode="&#xd9;" horiz-adv-x="1779" 
d="M2586 2064q14 -33 -19.5 -87.5t-113.5 -143.5q-17 -19 -54.5 -62.5t-56.5 -64.5q-273 -316 -726 -810q-73 -80 -97 -122q-169 -293 -326 -597q-155 -299 -269 -578q-109 -267 -118 -422q0 -8 1 -13q10 -61 -46 -69h-5q-23 3 -32.5 20t-1.5 41q281 773 597 1390
q21 41 7 37q-9 -3 -31 -25q-110 -112 -164 -166q-336 -333 -562 -516q-216 -174 -343 -239q-122 -62 -163 -50q-63 15 -53 111q11 97 63 233q56 141 123 277q74 149 126 244q214 393 370 650q94 157 168 289q53 95 100 192q38 80 59 130q-12 9 -2 33q27 56 72 56
q42 0 57 -34q20 -40 -23 -132q-45 -97 -164 -280q-298 -457 -544 -909q-110 -205 -183 -357t-105 -235.5t-40 -134t0 -64.5t27 -15q59 0 187 86q122 82 279 214q153 127 297 261q145 134 246 234q116 116 209 213q46 49 83 99q39 52 57 84q192 339 336 545q236 338 415 512
q182 177 274 201q65 17 89 -26zM2474 1909q17 30 9 42.5t-33 5.5q-67 -31 -225 -184q-155 -151 -350 -424q-79 -113 -201 -312q-13 -23 -5.5 -24t20.5 15q471 514 692 772q74 83 77 87l3 3q0 1 1 2q8 10 6 19v2q2 0 6 -4zM1880 2300q5 -8 15 -22q15 -12 13.5 -24t-30.5 -27
q-15 -6 -40 19q-41 48 -76.5 109t-52 99t-15.5 44q-8 29 4.5 56.5t44.5 45.5q28 17 66.5 14.5t35.5 -24.5v-1q-1 -9 -10 -30q-6 -21 -12 -41q-14 -92 57 -218z" />
    <glyph glyph-name="Uacute" unicode="&#xda;" horiz-adv-x="1779" 
d="M2586 2064q14 -33 -19 -87t-113 -144q-60 -67 -112 -127q-273 -316 -726 -810q-73 -80 -97 -122q-169 -293 -326 -597q-155 -299 -269 -578q-107 -267 -118 -422q0 -8 1 -13q10 -61 -46 -69h-5q-22 3 -32 20t-2 41q281 773 597 1390q21 41 7 37q-9 -3 -31 -25
q-81 -84 -163 -166q-338 -335 -563 -516q-216 -174 -343 -239q-122 -62 -163 -50q-63 15 -53 111q11 97 63 233q56 141 123 277q74 149 126 244q214 393 370 650q94 157 168 289q53 95 100 192q46 96 59 130q-11 11 -2 33q27 56 72 56q42 0 57 -34q20 -40 -23 -132
q-40 -89 -164 -280q-298 -457 -544 -909q-110 -205 -183 -357.5t-105 -235.5t-40 -133.5t0 -64.5t27 -15q59 0 187 86q119 80 280 214q153 127 297 261q133 122 245 234q112 111 209 213q46 49 83 99q41 52 57 84q192 339 336 545q238 338 415 512q182 177 275 201
q65 17 88 -26zM2468 1914l6 -5q17 30 9.5 42.5t-33.5 5.5q-65 -31 -225 -184q-155 -151 -350 -424q-72 -102 -200 -312q-15 -24 -5 -24q7 1 20 15q478 524 691 772q74 83 77 87l3 3q0 1 1 2q8 10 6 19v3zM2076 2587q43 -42 -8 -101q-11 -15 -85 -88q-80 -79 -189 -161
q-40 -26 -54 -20q-13 8 -18.5 14.5t-2.5 13t9.5 12t18.5 12.5q13 8 28 21q139 124 176 215q5 15 10 40q3 21 7 30v1l1 1q11 21 49 24t58 -14z" />
    <glyph glyph-name="Ucircumflex" unicode="&#xdb;" horiz-adv-x="2651" 
d="M2585 2064q15 -33 -18 -87.5t-114 -143.5q-60 -67 -112 -127q-273 -316 -726 -810q-73 -80 -97 -122q-169 -293 -326 -597q-155 -299 -269 -578q-107 -267 -118 -422q0 -8 1 -13q16 -60 -46 -69h-4q-23 3 -33 20t-2 41q291 792 597 1390q21 41 7 37q-9 -3 -31 -25
q-81 -84 -163 -166q-336 -333 -562 -516q-216 -174 -343 -239q-122 -62 -164 -50q-62 15 -53 111q11 97 63 233q56 141 123 277q74 149 126 244q214 393 370 650q94 157 168 289q52 91 101 192q42 87 58 130q-11 11 -1 33q10 24 29.5 40t41.5 16q42 0 58 -34
q20 -39 -24 -132q-40 -89 -164 -280q-298 -457 -544 -909q-110 -205 -182.5 -357t-105 -236t-40.5 -134t0.5 -64.5t27.5 -14.5q59 0 187 86q122 82 279 214q153 127 297 261q145 134 246 234q116 116 209 213q41 44 82 99q40 52 57 84q194 342 337 545q235 336 414 512
q182 177 275 201q65 17 88 -26zM2467 1914l6 -5q18 30 10 42.5t-34 5.5q-65 -31 -225 -184q-155 -151 -350 -424q-72 -102 -200 -312q-13 -23 -6 -24t21 15q478 524 691 772q46 52 78 87q0 1 1 1l1 2q1 1 1 2q8 10 6 19v3zM1739 2296q-43 -6 -38 28q4 30 38 74q1 0 1 1t1 2
q6 9 7 10q37 54 87 115q187 229 269 219h4q88 0 0 -307q-5 -19 -15 -45q-6 -16 -7 -20q-3 -12 -3 -23q0 -10 -1.5 -16t-7.5 -10.5t-17 -4.5q-22 0 -30 10.5t-2 26.5q4 13 8 25q1 3 10 27q38 107 51.5 184t-12.5 87q-21 0 -45 -28.5t-106 -144.5q-49 -71 -70 -115
q-22 -43 -46 -66q-23 -22 -76 -29z" />
    <glyph glyph-name="Udieresis" unicode="&#xdc;" horiz-adv-x="2651" 
d="M2585 2064q15 -33 -18 -87.5t-114 -143.5q-17 -19 -54.5 -62.5t-56.5 -64.5q-283 -326 -727 -810q-69 -79 -97 -122q-169 -293 -326 -597q-155 -299 -269 -578q-108 -269 -117 -422q0 -8 1 -13q10 -60 -47 -69h-4q-23 3 -32.5 20t-1.5 41q283 780 596 1390q15 28 12.5 34
t-12 -0.5t-23.5 -21.5h-1q-81 -84 -163 -166q-336 -333 -562 -516q-216 -174 -343 -239q-122 -62 -164 -50q-62 15 -53 111q11 97 63 233q56 141 123 277q79 157 126 244q214 393 370 650q83 139 169 289q53 95 100 192q42 87 58 130q-11 11 -1 33q10 24 29.5 40t41.5 16
q42 0 58 -34q20 -39 -24 -132q-40 -89 -164 -280q-299 -458 -543 -909q-110 -204 -183.5 -356.5t-105 -236t-40 -134t0 -65t27.5 -14.5q59 0 187 86q122 82 279 214q153 127 297 261q145 134 246 234q116 116 209 213q41 44 82 99q40 52 57 84q194 342 337 545
q236 338 415 512q182 177 274 201q65 17 88 -26zM2467 1914l6 -5q18 30 10 42.5t-34 5.5q-65 -31 -225 -184q-155 -151 -350 -424q-82 -118 -200 -312q-13 -23 -6 -24t21 15q471 514 692 772q11 13 27.5 31.5t28.5 32t21 23.5q0 1 1 1l1 2l2 2q7 12 5 19v3zM1807 2296h-12
q-52 -6 -68 16q-19 33 -12 63q12 32 45 59q32 28 71 28q38 0 52.5 -23t5.5 -64q-12 -42 -30 -60.5t-52 -18.5zM2135 2296h-12q-51 -6 -68 16q-20 34 -11 63q12 32 45 59q32 28 70 28q39 0 53 -23t5 -64q-10 -41 -28.5 -60t-53.5 -19z" />
    <glyph glyph-name="Yacute" unicode="&#xdd;" horiz-adv-x="3028" 
d="M3025 495l1 1q13 6 14 -7q0 -15 -17 -27q-299 -167 -593 -309q-290 -141 -639 -275q-3 0 -4 -1l-1 -1q-50 -21 -89 -64l-2 -2q-264 -324 -630 -521q-167 -93 -351 -141q-184 -50 -348 -54q-164 -6 -265 31q-101 38 -101 116q6 67 161 156q153 87 428 157
q573 137 1016 290q50 21 68 45q78 99 154 218q15 25 43.5 69t39.5 62q17 27 7 28t-30 -13v-1q-81 -51 -127 -77q-394 -226 -616 -232q-12 0 -32 2q-64 9 -87 38t-26 53q-11 65 47.5 149t186.5 203q77 73 132.5 129.5t85.5 93.5t46 64t14.5 39.5t-9.5 21.5q-69 43 -196 6
q-125 -37 -235 -120q-109 -83 -122 -173q-4 -21 -38.5 -16t-48.5 22q-13 17 -7.5 39t26.5 40q120 98 261 172q137 72 256 97q116 25 164 -23q51 -55 -13.5 -163.5t-253.5 -285.5q-12 -12 -18 -17q-103 -93 -168 -169q-68 -77 -54 -128q33 -84 257 -19q225 64 574 288
q1 1 5 3.5t6 4.5h1q98 70 149 157h1q428 666 751 1062q104 127 191.5 218.5t137 134t92.5 66t56 25.5t31 3q52 -1 66 -52q13 -73 -66 -223q-82 -154 -227 -342q-149 -193 -340 -387q-307 -309 -569 -505q-27 -21 -35 -28q-49 -41 -121 -150q-22 -35 -64.5 -101t-61.5 -95
q-40 -64 -92 -135v-1q-10 -15 -4.5 -20.5t19.5 -2.5q612 231 1213 577zM1589 -213q8 12 3 14.5t-18 -2.5q-446 -157 -1020 -300q-317 -79 -442 -182q-1 0 -2 -1q-108 -89 -22 -130q6 -4 18 -7h1l1 -1q47 -17 110 -26.5t154 -7.5t189.5 20t221 62t242.5 111q19 10 28 16
q5 3 17 9q293 163 519 425zM2191 539q-18 -26 -7.5 -28.5t26.5 11.5q243 192 503 458q70 70 177 194q111 130 202 255q98 134 156 251q57 118 35 182q-9 4 -122 -89t-290 -302q-293 -357 -680 -932zM2676 2287q43 -42 -8 -101q-11 -15 -85 -88q-80 -79 -189 -161
q-40 -26 -54 -20q-13 8 -18.5 14.5t-2.5 13t9.5 12t18.5 12.5q13 8 28 21q139 124 176 215q5 15 10 40q3 21 7 30v1l1 1q11 21 49 24t58 -14z" />
    <glyph glyph-name="Thorn" unicode="&#xde;" horiz-adv-x="1120" 
 />
    <glyph glyph-name="germandbls" unicode="&#xdf;" horiz-adv-x="1251" 
 />
    <glyph glyph-name="agrave" unicode="&#xe0;" horiz-adv-x="972" 
d="M970 494q10 7 16 2q7 -6 -15 -23l-2 -2q-235 -169 -417 -282q-181 -111 -272 -115q-49 0 -80 21q-84 61 -27 233q7 22 4 26t-8 1.5t-12 -9.5q-94 -85 -155 -125q-138 -90 -202 -62q-59 29 43 156l1 1q0 2 1 2q61 82 177 201q83 87 158 140q77 54 128 29q45 -27 26 -108
q-2 -13 7 -18q20 -12 -5 -58q0 -1 -1 -2q-86 -171 -106 -256q-18 -82 0 -102q15 -23 48.5 -25.5t92 17t141 63t198.5 118t261 177.5zM189 465q46 72 32 87q-1 1 -3 1q-26 3 -93 -48q-68 -51 -139 -121q-73 -69 -115 -124h-1q0 -1 -2 -3q-9 -12 -13 -18t-11 -18.5t-1.5 -18
t22.5 -3.5q57 9 136 60q81 54 153 124q20 23 20 34q4 27 15 48zM347 891q-50 64 -91 167q-11 39 33 68q19 11 43.5 9t24.5 -16v-1h-1q-1 -5 -6 -20q-7 -17 -8 -27q-9 -61 38 -144q6 -10 11 -14q12 -9 10.5 -17t-24.5 -18q-14 -5 -30 13z" />
    <glyph glyph-name="aacute" unicode="&#xe1;" horiz-adv-x="972" 
d="M970 494q6 6 14 2q12 -5 -15 -25q-235 -169 -417 -282q-181 -110 -273 -115q-48 0 -79 21q-84 61 -27 233h-1q9 22 5.5 26t-9 1t-11.5 -9q-100 -89 -155 -125q-138 -90 -203 -62q-54 27 43 156q0 1 1 1l1 2q58 78 178 201q85 90 157 140q77 54 129 29q45 -27 26 -108
q-2 -13 7 -18q20 -13 -5 -58q-1 -1 -1 -2q-86 -171 -106 -256q-18 -82 0 -102q15 -23 48.5 -25.5t92 17t141 63t198.5 118t261 177.5zM189 465q43 72 32 87h-1q-1 1 -2 1h-1q-25 3 -92 -48q-65 -49 -140 -121q-73 -69 -115 -124l-1 -1q-1 -1 -1 -2q-39 -44 -23 -56
q6 -4 20 -2q57 9 136 60q81 54 153 124q20 24 19 34q4 24 16 48zM324 878q-9 5 -12.5 9.5t-1 9t6.5 8t12 8.5q7 4 19 14q92 82 118 144q3 9 7 27l4 20h1v1q7 15 33 16.5t39 -9.5q14 -13 12 -31.5t-17 -36.5q-1 -2 -58 -59q-54 -53 -127 -108q-24 -18 -36 -13z" />
    <glyph glyph-name="acircumflex" unicode="&#xe2;" horiz-adv-x="972" 
d="M970 494q6 6 14 2q12 -5 -15 -25q-235 -169 -417 -282q-181 -110 -273 -115q-48 0 -79 21q-83 61 -28 233q10 22 6 26t-9 1.5t-13 -9.5q-94 -85 -154 -125q-139 -89 -203 -62q-54 27 43 156q0 1 1 1l1 2q58 78 178 201q85 90 157 140q77 54 129 29q45 -28 26 -108
q-5 -11 7 -18q19 -12 -6 -58v-2q-86 -171 -106 -256q-18 -82 -1 -102q15 -23 48.5 -25.5t92.5 17t141.5 63t198 118t261.5 177.5zM189 465q44 73 31 87q-1 1 -2 1h-1q-25 3 -93 -48t-139 -121q-73 -69 -115 -124l-3 -3q-9 -11 -13 -18t-10.5 -19t-1 -17.5t22.5 -3.5
q57 9 136 60q81 54 153 124q19 22 19 34q5 28 16 48zM246 893q-49 -5 -19 46v1l4 4q11 19 38 55q88 113 141 106h3q5 -1 12 0t15 -7t15 -20.5t11.5 -40.5t4.5 -67q0 -7 -2 -21q0 -5 -1 -9q0 -6 1 -9q0 -13 -10 -16q-31 -4 -29 16q0 7 1 10q0 8 1 13q4 46 0 82q-4 38 -24 39
q-30 2 -81 -82q-23 -40 -28 -54q-9 -23 -19.5 -32.5t-33.5 -13.5z" />
    <glyph glyph-name="atilde" unicode="&#xe3;" horiz-adv-x="972" 
d="M970 494q9 7 16 1q8 -6 -17 -24q-235 -169 -417 -282q-181 -111 -272 -115q-48 0 -79 21q-83 61 -28 233q9 23 4.5 26.5t-8 1.5t-12.5 -10q-94 -85 -154 -125q-139 -89 -203 -62q-59 29 43 156l1 1q0 2 1 2q61 82 177 201q83 87 158 140q77 54 128 29q45 -27 26 -108
q-2 -13 8 -18q19 -12 -6 -58q0 -1 -1 -2q-86 -173 -105 -256q-18 -82 -1 -102q16 -23 49.5 -25.5t91.5 16.5t140.5 63t198 118t261.5 178zM189 465q46 72 32 87q-1 1 -3 1q-26 3 -93 -48q-68 -51 -139 -121q-73 -69 -115 -124l-3 -3q-9 -12 -13 -18t-10.5 -18.5t-1 -18
t22.5 -3.5q57 9 136 60q82 54 152 124q20 23 20 34q4 27 15 48zM148 899q-26 26 8 63q3 3 9.5 9t10.5 10q52 51 90 77t79 26q29 0 47 -32q17 -28 32 -69q12 -28 16 -36q12 -14 25 -14q12 0 29 6q57 23 117 90q27 30 38 32q17 2 13 -11t-19 -28q-56 -61 -109 -103
q-56 -46 -111 -38q-32 11 -56 79q-24 67 -52 67q-16 0 -52.5 -33t-49.5 -78q-7 -18 -29 -23.5t-36 6.5z" />
    <glyph glyph-name="adieresis" unicode="&#xe4;" horiz-adv-x="972" 
d="M970 494q10 7 16 2q7 -6 -15 -23l-2 -2q-235 -169 -417 -282q-181 -110 -273 -115q-48 0 -79 21q-84 61 -27 233q7 22 4 26t-8 1.5t-12 -9.5q-94 -85 -155 -125q-138 -90 -203 -62q-54 27 43 156l3 3q61 82 177 201q83 87 158 140q77 54 128 29q45 -27 26 -108
q-2 -13 7 -18q20 -13 -5 -58q-1 -1 -1 -2q-86 -171 -106 -256q-18 -82 0 -102q15 -23 48.5 -25.5t92 17t141 63t198.5 118t261 177.5zM189 465q45 70 32 87h-1q-1 1 -2 1q-26 3 -93 -48q-65 -49 -140 -121q-73 -69 -115 -124l-1 -1q-1 -1 -1 -2q-9 -12 -13 -18t-11 -18.5
t-1.5 -18t22.5 -3.5q57 9 136 60q81 54 153 124q20 24 19 34h1q4 27 15 48zM259 878h-7q-31 -2 -38 9q-11 20 -7 35q7 20 26 35t40 15t29.5 -13.5t2.5 -35.5q-10 -45 -46 -45zM445 878h-7q-31 -2 -38 9q-11 19 -7 35q7 20 26 35t40 15t29 -13.5t3 -35.5q-6 -24 -16 -34.5
t-30 -10.5z" />
    <glyph glyph-name="aring" unicode="&#xe5;" horiz-adv-x="972" 
d="M970 494q6 6 14 2q12 -5 -15 -25q-235 -169 -417 -282q-181 -110 -273 -115q-48 0 -79 21q-84 61 -28 233q4 10 5 17t0 9.5t-3 2.5q-6 0 -17 -11q-97 -86 -155 -125q-138 -90 -203 -62q-18 9 -20.5 27t11 45t21.5 39.5t27 39.5q3 4 4 6l2 2q58 78 178 201q22 23 66 65
q2 3 7 7.5t8 6.5l2 2q20 17 50 42q-10 31 9 76q0 2 1 3q2 5 8 17q0 1 1 2q5 9 17 27l1 1q0 2 1 2q35 46 72 76q29 23 64 35q-1 1 -1 4q1 10 14 10l10 2q53 8 74 -20q0 -1 1 -2v-1h1q16 -25 6 -58l-1 -1v-1q-1 -3 -5 -14q-35 -87 -95 -142q1 -1 1 -2t0.5 -1.5t0.5 -1.5
q7 -30 0 -69l-1 -1v-3q-2 -13 7 -18q20 -13 -5 -58l-1 -1q-86 -170 -106 -257q-18 -82 0 -102q15 -23 48.5 -25.5t92 17t141 63t198.5 118t261 177.5zM189 465q43 72 32 87h-1q-1 1 -2 1h-1q-25 3 -92 -48q-65 -49 -140 -121q-73 -69 -115 -124q-2 -2 -3 -4q-37 -43 -22 -54
q6 -5 20 -3q57 9 136 60q81 54 153 124q20 24 19 34q4 24 16 48zM313 684q38 38 55 70q32 53 12 68q-11 8 -26 9q-5 -10 -17 -22q-11 -10 -24 -10h-2q-56 0 -93 -80q-11 -24 -10 -43q2 -20 21 -29q34 -11 84 37z" />
    <glyph glyph-name="ae" unicode="&#xe6;" horiz-adv-x="1123" 
d="M1138 494q5 -6 -9 -17v-1q-325 -204 -597 -298q-84 -30 -159 -41q-53 -8 -87 -4q-32 3 -58 12q-36 10 -56 43q-21 37 -13 89q2 13 13 51q1 4 3 10q5 19 -1 19q-3 0 -18 -11q-94 -85 -154 -125q-139 -89 -203 -62q-54 27 43 156q0 1 1 1l1 2q58 78 178 201q85 90 157 140
q77 54 129 29q45 -28 26 -108q-5 -12 6 -17q19 17 29 25l8 8q20 17 60 47q207 150 303 114q24 -10 35 -31t3 -48q-26 -65 -157 -116q-124 -46 -230 -68q-40 -7 -88 -54l-2 -2v-1q-1 -2 -5 -6q-28 -31 -48 -68q-47 -85 -10 -138q36 -46 119 -46q71 0 178 33q55 17 124 45
q202 82 469 237q7 4 10 0zM189 465q44 73 31 87q-1 1 -3 1q-25 3 -93 -48t-139 -121q-73 -69 -115 -124q-2 -2 -3 -4q-41 -48 -19 -56q6 -2 17 -1q57 9 136 60q81 54 153 124q19 22 19 34q5 28 16 48zM400 526q-19 -13 -7 -13q2 0 6 1q52 11 129 38q51 18 89 38q36 21 30 38
q0 1 -1 2v1h-1q-7 8 -28 7q-19 -2 -38 -8v-1h-1q-1 0 -5 -2h-2q-25 -10 -61 -30q-59 -32 -110 -71z" />
    <glyph glyph-name="ccedilla" unicode="&#xe7;" horiz-adv-x="999" 
d="M997 495q9 4 13 -4q4 -7 -9 -15q-612 -357 -846 -408q-23 -5 -32 -19q-10 -14 -13 -20q104 27 129 -3q40 -39 -26 -146q-41 -62 -110 -106q-70 -46 -128 -47q-15 0 -27 4q-11 3 -20 11.5t-10 35t19 63.5q15 27 40 20q9 -4 -11 -28q-9 -10 -12 -16q-9 -15 -12 -34t4 -28
q29 -16 60.5 -9.5t65 33.5t59 56t43.5 58q62 101 44 120q-24 21 -134 -23q-2 0 -4 -1l-4 -2q-17 -9 -22 -3q-6 6 4 23q1 1 1 2t0.5 1.5t0.5 1.5l14 26q6 10 4.5 15t-12.5 4h-3q-141 4 -176 88q-34 76 17 194.5t172.5 247t281.5 229.5q225 143 355 193q155 60 189 -4
q24 -52 -13 -110q-39 -61 -97 -110q-57 -50 -105 -76q-35 -21 -62 -9q-1 0 -2.5 0.5t-2.5 1.5q-5 4 -10 12q-16 20 10 54q15 16 37 29t32 9q25 -16 63 10l2 2l14 10l3 3q18 17 21.5 37t-13.5 39q-24 13 -136 -30q-112 -44 -275 -147q-71 -45 -132.5 -95t-108 -97.5
t-83.5 -95.5t-59.5 -91.5t-34 -82.5t-10 -70.5t14.5 -53.5q47 -69 251 -23q132 33 345 136q218 106 446 238z" />
    <glyph glyph-name="egrave" unicode="&#xe8;" horiz-adv-x="853" 
d="M860 495q7 -5 -8 -17h-1v-1q-258 -161 -488 -257q-232 -96 -355 -86q-80 4 -114 55q-38 74 18 185q18 35 35 58q15 22 30 42q68 78 114 115l8 8q12 10 33 26.5t27 20.5q207 150 303 114q24 -10 35.5 -31t2.5 -48q-24 -65 -156 -115q-123 -46 -231 -69q-40 -7 -89 -56
l-1 -1q-1 -2 -5 -6q-59 -67 -77 -144q0 -52 39.5 -80t99.5 -28q111 0 313 83q193 79 457 232q7 4 10 0zM122 527q-17 -13 -7 -13q2 0 6 1q65 16 129 38q58 19 91.5 39.5t27.5 36.5v1l-1 1v1q-8 10 -28 8q-15 -1 -38 -9h-1v-1q-2 0 -6 -2h-2q-25 -10 -61 -30
q-59 -32 -110 -71zM450 945q-26 32 -48.5 73t-32.5 65.5t-10 28.5q-11 40 32 68q13 7 29 9t28 -2t11 -14v-1q-1 -5 -6 -20q-7 -17 -8 -27q-9 -62 37 -144q5 -7 11 -14q5 -5 7.5 -8t3 -8t-5.5 -9.5t-19 -9.5t-29 13z" />
    <glyph glyph-name="eacute" unicode="&#xe9;" horiz-adv-x="853" 
d="M324 878q-9 5 -12.5 9.5t-1 9t6.5 8t12 8.5q7 4 19 14q92 82 118 144q3 9 7 27l4 20h1v1q7 15 33 16.5t39 -9.5q14 -13 12 -31.5t-17 -36.5q-1 -2 -58 -59q-54 -53 -127 -108q-24 -18 -36 -13zM860 495q7 -5 -8 -17h-1v-1q-258 -161 -488 -257q-232 -96 -355 -86
q-80 4 -114 55q-38 74 18 185q18 35 35 58q15 22 30 42q68 78 114 115l8 8q12 10 33 26.5t27 20.5q207 150 303 114q24 -10 35.5 -31t2.5 -48q-24 -65 -156 -115q-123 -46 -231 -69q-40 -7 -89 -56l-1 -1q-1 -2 -5 -6q-59 -67 -77 -144q0 -52 39.5 -80t99.5 -28
q111 0 313 83q193 79 457 232q7 4 10 0zM122 527q-17 -13 -7 -13q2 0 6 1q65 16 129 38q58 19 91.5 39.5t27.5 36.5v1l-1 1v1q-8 10 -28 8q-15 -1 -38 -9h-1v-1q-2 0 -6 -2h-2q-25 -10 -61 -30q-59 -32 -110 -71z" />
    <glyph glyph-name="ecircumflex" unicode="&#xea;" horiz-adv-x="853" 
d="M860 495q7 -5 -8 -17h-1v-1q-258 -161 -488 -257q-232 -96 -355 -86q-80 4 -114 55q-38 74 18 185q18 35 35 58q15 22 30 42q68 78 114 115l8 8q12 10 33 26.5t27 20.5q207 150 303 114q24 -10 35.5 -31t2.5 -48q-24 -65 -156 -115q-123 -46 -231 -69q-40 -7 -89 -56
l-1 -1q-1 -2 -5 -6q-59 -67 -77 -144q0 -52 39.5 -80t99.5 -28q111 0 313 83q193 79 457 232q7 4 10 0zM122 527q-17 -13 -7 -13q2 0 6 1q65 16 129 38q58 19 91.5 39.5t27.5 36.5v1l-1 1v1q-8 10 -28 8q-15 -1 -38 -9h-1v-1q-2 0 -6 -2h-2q-25 -10 -61 -30
q-59 -32 -110 -71zM276 913q-49 -5 -19 46v1l4 4q11 20 38 55q88 113 141 106h3q5 -1 12 0t15 -7t15 -20.5t11.5 -40.5t4.5 -67q0 -7 -2 -21q0 -5 -1 -9q0 -6 1 -9q0 -13 -10 -16q-31 -4 -29 16q0 7 1 10q0 8 1 13q4 46 0 82q-4 38 -24 39q-30 2 -81 -82q-23 -40 -28 -54
q-9 -23 -19.5 -32.5t-33.5 -13.5z" />
    <glyph glyph-name="edieresis" unicode="&#xeb;" horiz-adv-x="772" 
d="M777 494q6 -6 -8 -17l-1 -1q-258 -161 -488 -257q-231 -96 -355 -86q-81 5 -114 55q-37 73 19 184q17 35 34 59q15 23 30 42q68 78 114 115l8 8q12 10 33 26.5t27 20.5q207 150 303 114q25 -10 36 -31t2 -48q-23 -62 -156 -116q-126 -46 -231 -68q-40 -7 -89 -57l-6 -6
q-60 -67 -76 -144q-1 -54 40 -82q41 -26 98 -26q111 0 313 83q193 79 457 232q7 4 10 0zM39 526q-17 -13 -7 -13q2 0 6 1q52 11 129 38q58 19 91.5 39.5t27.5 36.5q0 1 -1 2v1q-7 9 -28 7q-19 -2 -38 -8l-1 -1q-2 0 -6 -2h-2q-25 -10 -61 -30q-59 -32 -110 -71zM309 932h-7
q-29 -2 -38 9q-11 20 -7 35q7 19 26.5 34.5t39.5 15.5q21 0 29.5 -13.5t3.5 -35.5q-6 -24 -16.5 -34.5t-30.5 -10.5zM495 932h-7q-29 -2 -38 9q-11 20 -7 35q7 20 26 35t40 15t29.5 -13.5t2.5 -35.5q-10 -45 -46 -45z" />
    <glyph glyph-name="igrave" unicode="&#xec;" horiz-adv-x="627" 
d="M625 494q17 12 18 1.5t-13 -21.5q-111 -76 -246 -165q-149 -98 -265 -167q-130 -77 -223 -117q-95 -41 -124 -16q-17 17 -21 40.5t8.5 59t25.5 64.5t46.5 80t53.5 80.5t63 89.5q2 2 18 25q29 41 34 49q17 21 67 28t62 -11q11 -20 -18 -45q-11 -11 -17 -18l-17 -17
q-40 -42 -100 -110q-65 -72 -114 -147t-36 -117q22 -33 206 63q179 93 592 371zM155 649q-10 1 -12.5 7.5t-0.5 12.5t8 19q6 10 10 23q7 25 24 40.5t40 15.5q12 0 19.5 -0.5t15.5 -4t11 -9.5t3 -17.5t-6 -27.5q-17 -39 -51 -51q-36 -12 -61 -8zM347 891q-50 64 -91 167
q-11 39 33 68q19 11 43.5 9t24.5 -16v-1h-1q-1 -5 -6 -20q-7 -17 -8 -27q-9 -61 38 -144q6 -10 11 -14q12 -9 10.5 -17t-24.5 -18q-14 -5 -30 13z" />
    <glyph glyph-name="iacute" unicode="&#xed;" horiz-adv-x="627" 
d="M625 494q17 12 18 1.5t-13 -21.5q-111 -76 -246 -165q-149 -98 -265 -167q-130 -77 -223 -117q-95 -41 -124 -16q-17 17 -21 40.5t8.5 59t25.5 64.5t46.5 80t53.5 80.5t63 89.5q2 2 18 25q29 41 34 49q17 21 67 28t62 -11q11 -20 -18 -45q-11 -11 -17 -18l-17 -17
q-40 -42 -100 -110q-65 -72 -114 -147t-36 -117q22 -33 206 63q179 93 592 371zM155 649q-10 1 -12.5 7.5t-0.5 12.5t8 19q6 10 10 23q7 25 24 40.5t40 15.5q12 0 19.5 -0.5t15.5 -4t11 -9.5t3 -17.5t-6 -27.5q-17 -39 -51 -51q-36 -12 -61 -8zM324 878q-9 5 -12.5 9.5t-1 9
t6.5 8t12 8.5q7 4 19 14q92 82 118 144q3 9 7 27l4 20h1v1q7 15 33 16.5t39 -9.5q14 -13 12 -31.5t-17 -36.5q-1 -2 -58 -59q-54 -53 -127 -108q-24 -18 -36 -13z" />
    <glyph glyph-name="icircumflex" unicode="&#xee;" horiz-adv-x="672" 
d="M659 494q20 11 19 -1q-1 -9 -14 -19q-102 -71 -245 -165q-149 -98 -265 -167q-130 -77 -223 -117q-95 -41 -124 -16q-17 17 -21 40.5t8.5 59t25.5 64.5t46.5 80t53.5 80.5t63 89.5q11 13 18 24q23 33 34 50q17 21 67 28t62 -11q10 -19 -18 -45q-10 -9 -17 -18l-17 -17
q-52 -54 -101 -110q-66 -74 -113 -147q-50 -75 -36 -117q22 -33 206 63q181 94 591 371zM189 749q-15 -2 -22 2.5t-6 12.5t4 14.5t7 11.5l1 1l2 4q17 26 34 49q80 102 127 95h3q4 -1 10.5 0t13.5 -6t13.5 -18.5t10.5 -36.5t4 -60q0 -5 -2 -19v-8q-1 -4 0 -8q0 -13 -9 -14
q-13 -2 -20 2t-6 11v5q0 4 1 5q0 7 1 12q5 41 0 74q-4 33 -22 34q-25 2 -72 -73q-17 -30 -25 -49q-9 -21 -18.5 -29.5t-29.5 -11.5z" />
    <glyph glyph-name="idieresis" unicode="&#xef;" horiz-adv-x="673" 
d="M660 494q17 11 18 1t-13 -21q-111 -76 -246 -165q-149 -98 -265 -167q-130 -77 -223 -117q-95 -41 -124 -16q-17 17 -21 40.5t8.5 59t25.5 64.5t46.5 80t53.5 80.5t63 89.5q2 2 18 25q19 26 34 49q17 21 67 28t62 -11q11 -20 -18 -45q-11 -11 -17 -18l-17 -17
q-52 -54 -101 -110q-61 -68 -113 -147q-50 -75 -36 -117q22 -33 206 63q179 93 592 371zM324 695h-7q-31 -2 -39 9q-10 19 -6 35q7 20 26 35t39 15q45 0 33 -49q-6 -24 -16 -34.5t-30 -10.5zM138 695h-7q-31 -2 -38 9q-11 19 -7 35q7 20 26 35t39 15q45 0 33 -49
q-6 -24 -16 -34.5t-30 -10.5z" />
    <glyph glyph-name="eth" unicode="&#xf0;" horiz-adv-x="1139" 
 />
    <glyph glyph-name="ntilde" unicode="&#xf1;" horiz-adv-x="1211" 
d="M1170 464l40 30q8 8 11 2q3 -5 -5 -11q-295 -245 -507 -359q-208 -112 -314 -60q-69 37 -80 129t38 223q15 37 19 46q21 43 28 72q1 9 -3 12.5t-10.5 1.5t-12.5 -5t-14 -8q-74 -51 -193 -159q-95 -87 -219 -205q-89 -86 -131 -122q-51 -41 -81 -38q-29 2 -4 53q2 4 42 72
q84 140 100 166q60 100 122 190q14 20 36 25.5t40 -4.5q42 -17 12 -68q-20 -29 -84 -105q-91 -106 -161 -200q-31 -42 -21 -43q8 2 33 23q61 55 152 143q95 90 192 180q90 83 176 149q79 59 108 52q49 -13 41 -64q-7 -48 -70 -172q-33 -68 -48.5 -139.5t-5 -124.5t50.5 -60
q97 -13 220 43q119 54 252 148q107 75 251 187zM235 782q-9 9 -7.5 22.5t12.5 24.5q3 2 8 6.5t7 7.5q40 39 68 58t58 19q32 0 59 -74q5 -15 12 -28q8 -19 39 -6q43 18 88 67q19 23 27 24q21 1 3 -21q-3 -4 -7 -8q-39 -44 -81 -77q-43 -34 -82 -28q-21 7 -42 58
q-20 50 -38 50q-12 0 -39 -24.5t-38 -57.5q-5 -14 -21 -18t-26 5z" />
    <glyph glyph-name="ograve" unicode="&#xf2;" horiz-adv-x="858" 
d="M854 494q4 3 9 1.5t5 -5.5t-7 -9q-123 -79 -281 -135q-160 -56 -294 -56h-35q-26 0 -36 -18v-1l-2 -2q-156 -215 -291 -240q-5 -1 -15 -1q-44 0 -63 34q-28 58 56 177q36 49 76 95q11 11 27 19q10 5 4 11q-58 75 22 182q60 74 143 113q86 42 147 15q114 -59 -62 -339
q-10 -17 2 -17q9 -1 29 -1q88 -1 180 18t168 50.5t127 57.5t91 51zM219 341q29 50 45.5 93.5t20 72t0 49.5t-12.5 31t-21 11q-31 3 -72 -27q-42 -29 -73 -71q-18 -23 -29 -60v-1q0 -1 -1 -2v-2q-21 -75 95 -105q2 -1 5 -1q2 -1 5 -1h1q1 -1 3 -1t3 -1h1q20 -3 30 15z
M178 277q10 17 -6 17l-1 1q-48 5 -78 14h-2q-7 1 -9 -5q-1 -7 -10 -17q-14 -13 -36 -30h-1l-18 -14h-1l-3 -3q-15 -12 -16 -13q-45 -38 -78 -80t-17 -68q2 -5 6 -8q62 -15 135 51q75 69 135 155zM317 825q-51 66 -92 167q-11 39 33 68q20 11 44 9.5t24 -15.5v-2q0 -1 -7 -19
q-7 -19 -8 -28q-9 -61 38 -144q5 -8 11 -14q11 -8 10 -16t-24 -18q-13 -6 -29 12z" />
    <glyph glyph-name="oacute" unicode="&#xf3;" horiz-adv-x="858" 
d="M854 494q4 3 9 1.5t5 -5.5t-7 -9q-123 -79 -281 -135q-160 -56 -294 -56h-35q-26 0 -36 -18l-2 -2v-1h-1q-156 -215 -291 -240q-5 -1 -15 -1q-44 0 -62 34q-28 58 55 177q31 43 77 95q10 10 26 19q11 5 5 11q-58 75 22 182q58 73 142 113q85 42 147 15q31 -15 41.5 -48
t-12.5 -108t-90 -183q-10 -17 1 -17q10 -1 30 -1q88 -1 180 18t168 50.5t127 57.5t91 51zM218 341q29 50 46 93.5t21 72t0 49.5t-13 31t-21 11q-31 3 -72 -27q-42 -29 -73 -71q-20 -26 -29 -60v-1q-1 -1 -1 -2v-2q-20 -75 94 -105h1q1 -1 5 -1q1 -1 5 -1h1q1 -1 3 -1t3 -1h1
q19 -3 29 15zM177 277q7 11 5 14t-11 3v1q-50 5 -78 14h-2q-7 1 -9 -5q-1 -7 -10 -17q-11 -11 -37 -30q-4 -3 -19 -14q0 -1 -1 -1t-2 -1l-1 -1q-10 -8 -15 -13q-44 -36 -76.5 -78.5t-19.5 -69.5q4 -6 7 -8q62 -15 135 51q77 70 134 155zM299 813q-29 16 5 34q7 4 19 14
q92 82 118 144q4 10 7 28q1 5 2 12l2 7v1h1v1q7 14 33 15.5t39 -9.5q29 -26 -6 -68q-3 -4 -57 -58q-52 -52 -127 -109q-26 -18 -36 -12z" />
    <glyph glyph-name="ocircumflex" unicode="&#xf4;" horiz-adv-x="859" 
d="M855 494q8 6 13 -1q2 -6 -6 -12q-123 -79 -281 -135q-162 -56 -294 -56h-35q-26 0 -36 -18l-1 -1q-1 -1 -1 -2h-1q-156 -215 -291 -240q-5 -1 -15 -1q-44 0 -62 34q-29 59 55 177q37 51 77 95q9 11 26 19q11 5 5 11q-59 75 21 182q60 74 143 113q86 42 147 15
q31 -15 41.5 -48t-12.5 -108t-90 -183q-12 -17 1 -17q9 -1 29 -1q89 -1 181 18t168.5 50.5t126 57t91.5 51.5zM219 341q29 50 46 93.5t20.5 72t-0.5 49.5t-13 31t-21 11q-29 3 -70 -25.5t-75 -72.5q-18 -23 -29 -60v-3q-1 -1 -1 -2q-21 -75 95 -105q2 -1 6 -1q1 -1 4 -1h1
q1 -1 3 -1t3 -1h2q19 -4 29 15zM178 277q6 11 4.5 14t-10.5 3v1q-49 5 -79 14h-1q-9 1 -9 -5q-4 -10 -10 -17q-11 -11 -37 -30q-4 -3 -19 -14q-1 -1 -4 -3q-15 -12 -16 -13q-43 -35 -75.5 -78t-19.5 -70q1 -4 7 -8q61 -15 135 51q77 70 134 155zM231 848q-49 -5 -19 46v1
l4 4q11 19 38 55q88 113 141 106h3q5 -1 12 0t15 -7t15 -20.5t11.5 -40.5t4.5 -67q0 -7 -2 -21q0 -5 -1 -9q0 -6 1 -9q0 -13 -10 -16q-31 -4 -29 16q0 7 1 10q0 8 1 13q4 46 0 82q-5 37 -24 39q-30 2 -81 -82q-23 -40 -28 -54q-9 -23 -19.5 -32.5t-33.5 -13.5z" />
    <glyph glyph-name="otilde" unicode="&#xf5;" horiz-adv-x="858" 
d="M854 494q4 3 9 1.5t5 -5.5t-7 -9q-123 -79 -281 -135q-160 -56 -294 -56h-35q-26 0 -36 -18v-1l-2 -2q-156 -215 -291 -240q-5 -1 -15 -1q-44 0 -63 34q-28 58 56 177q36 49 76 95q11 11 27 19q10 5 4 11q-58 75 22 182q60 74 143 113q86 42 147 15q114 -59 -62 -339
q-10 -17 2 -17q9 -1 29 -1q88 -1 180 18t168 50.5t127 57.5t91 51zM218 341q29 50 46 93.5t21 72t0 49.5t-13 31t-21 11q-31 3 -72 -27q-42 -29 -73 -71q-18 -23 -29 -60v-1q0 -2 -1 -3v-1q-21 -75 95 -105q1 -1 5 -1h1q1 -1 4 -1h1q1 -1 3 -1t3 -1h1q21 -4 29 15zM178 277
q6 11 4 14t-11 3v1q-48 5 -78 14h-2q-7 1 -9 -5q-1 -7 -10 -17q-14 -13 -36 -30h-1l-18 -14h-1l-3 -3q-15 -12 -16 -13q-45 -38 -78 -80t-17 -68q2 -5 6 -8q62 -15 135 51q75 69 135 155zM148 899q-26 26 8 63q3 3 9.5 9t10.5 10q52 51 90 77t79 26q29 0 47 -32
q17 -28 32 -69q12 -28 16 -36q12 -14 25 -14q12 0 29 6q57 23 117 90q27 30 38 32q17 2 13 -11t-19 -28q-56 -61 -109 -103q-56 -46 -111 -38q-32 11 -56 79q-24 67 -52 67q-16 0 -52.5 -33t-49.5 -78q-7 -18 -29 -23.5t-36 6.5z" />
    <glyph glyph-name="odieresis" unicode="&#xf6;" horiz-adv-x="858" 
d="M854 494q4 3 9 1.5t5 -5.5t-7 -9q-123 -79 -281 -135q-160 -56 -294 -56h-35q-26 0 -36 -18l-2 -2v-1h-1q-156 -215 -291 -240q-5 -1 -15 -1q-44 0 -62 34q-28 58 55 177q31 43 77 95q10 10 26 19q11 5 5 11q-58 75 22 182q58 73 142 113q85 42 147 15q31 -15 41.5 -48
t-12.5 -108t-90 -183q-10 -17 1 -17q9 -1 30 -1q88 -1 180 18t168 50.5t127 57.5t91 51zM218 341q29 50 46 93.5t21 72t0 49.5t-13 31t-21 11q-31 3 -72 -27q-42 -29 -73 -71q-20 -26 -29 -60v-1q-1 -1 -1 -2v-2q-20 -75 94 -105h1q1 -1 5 -1q1 -1 5 -1h1q1 -1 3 -1t3 -1h1
q19 -3 29 15zM177 277q7 11 5 14t-11 3v1q-49 5 -79 14h-1q-7 1 -9 -5q-1 -7 -10 -17q-11 -11 -37 -30q-4 -3 -19 -14l-2 -2q-1 -1 -2 -1q-10 -8 -15 -13q-44 -36 -76.5 -78.5t-19.5 -69.5q4 -6 7 -8q62 -15 135 51q77 70 134 155zM140 866h-6q-31 -2 -39 10q-11 19 -7 35
q7 19 26.5 34.5t39.5 15.5q44 0 33 -50q-12 -45 -47 -45zM326 866h-7q-30 -2 -38 10q-11 19 -7 35q7 19 26.5 34.5t39.5 15.5q44 0 33 -50q-12 -45 -47 -45z" />
    <glyph glyph-name="divide" unicode="&#xf7;" horiz-adv-x="1170" 
d="M635 507h13q14 1 17 -2t-2 -19q-10 -20 -25 -16q-8 2 -15 2l-394 5q-52 0 -68 -4q-56 -15 -50 9l1 4q22 46 63 46l20 -1q4 -1 12.5 -1.5t12.5 -0.5q326 -29 415 -22zM504 613h-8q-35 -2 -44 11q-10 22 -3 42q12 23 36.5 40.5t48.5 17.5q50 0 31 -58q-10 -27 -24 -40
t-37 -13zM305 386q50 0 31 -58q-10 -27 -24 -40t-37 -13h-8q-35 -2 -44 11q-10 21 -2 42q10 22 35 40t49 18z" />
    <glyph glyph-name="oslash" unicode="&#xf8;" horiz-adv-x="859" 
d="M855 494q8 6 13 -1q2 -6 -6 -12q-123 -79 -281 -135q-162 -56 -294 -56h-35q-26 0 -36 -18l-3 -3q-151 -207 -285 -239l-45 -69q-19 -26 -35 -28q-17 -2 3 31l3 4q3 5 17.5 27t22.5 34q-36 5 -49 33q-29 59 55 177q37 51 77 95q9 11 26 19q11 5 5 11q-59 75 21 182
q60 74 143 113q86 42 147 15q3 -1 9 -5q57 79 89 122q26 31 56 22q15 -6 15.5 -18.5t-7.5 -23.5t-20 -20q-42 -41 -105 -118q37 -82 -98 -298q-12 -17 1 -17q9 -1 29 -1q89 -1 181 18t168.5 50.5t126 57t91.5 51.5zM77 440v-3q-1 -1 -1 -2q-11 -48 35 -81q62 92 159 233
q-7 9 -19 11q-29 3 -70 -25.5t-75 -72.5q-18 -23 -29 -60zM178 277q6 11 4.5 14t-10.5 3v1q-25 2 -57 8q-66 -94 -159 -232q56 17 114 76q61 61 108 130zM219 341q75 130 68 202q-64 -85 -147 -203q9 -4 31 -10q2 -1 6 -1q1 -1 4 -1h1q1 -1 3 -1t3 -1h2q19 -4 29 15zM-91 71
q3 -1 11 -3q45 69 135 203q-3 -2 -9.5 -7t-9.5 -7h-1q-4 -4 -18 -14l-2 -2q-1 -1 -2 -1q-15 -12 -16 -13q-43 -35 -75.5 -78t-19.5 -70q1 -4 7 -8z" />
    <glyph glyph-name="ugrave" unicode="&#xf9;" horiz-adv-x="1549" 
d="M1544 494q14 7 16 -3q1 -9 -13 -18q-226 -137 -488 -284q-233 -129 -399 -189q-166 -61 -225 -7q-38 43 -25 107q12 58 52 149q9 23 29 73q10 27 5.5 31.5t-12.5 -2t-19 -18.5h-1q-224 -225 -364 -325q-139 -99 -242 -87q-19 4 -31.5 8t-28.5 16.5t-22 30.5t-3 50t20 75
q87 217 251 465l12 18q54 84 69 114v3q0 35 19 50q24 18 55 17.5t43 -20.5q15 -29 -7 -72q-18 -38 -89 -137q-42 -58 -114 -170q-66 -104 -121 -210q-53 -101 -50 -144q5 -29 36 -38t107 30q78 40 215 153q133 109 358 329q21 23 48 26.5t16 -42.5q-27 -82 -60 -166
q-41 -100 -60 -172t10 -101q22 -20 125 10q111 33 320 137q202 99 568 313zM562 903q-26 32 -48.5 73t-32.5 65.5t-10 28.5q-11 39 33 68q7 4 16.5 6.5t18.5 3t16.5 -0.5t12 -5t3.5 -10v-2q-1 -5 -6 -20q-7 -17 -8 -27q-9 -62 37 -144q5 -8 12 -14q7 -7 9 -11t-3 -10.5
t-20 -13.5q-14 -5 -30 13z" />
    <glyph glyph-name="uacute" unicode="&#xfa;" horiz-adv-x="1548" 
d="M1543 494q15 7 17 -3q-1 -9 -14 -18q-226 -137 -488 -284q-232 -129 -399 -189q-165 -61 -224 -7q-39 44 -26 107q12 58 52 149q9 23 29 73q11 27 7 31.5t-13.5 -2t-19.5 -18.5q-227 -226 -365 -325q-139 -99 -241 -87q-19 4 -32 8t-29 16.5t-22 30.5t-3 50t20 75
q89 221 252 465q8 12 11 18q54 84 69 114v3q2 36 20 50q23 17 54 17t43 -20q17 -28 -6 -72q-21 -40 -90 -137q-42 -58 -114 -170q-66 -104 -121 -210q-53 -101 -50 -144q5 -29 36 -38t107 30q77 39 216 153q137 112 357 329q9 9 22 16.5t25.5 10t18 -7.5t-0.5 -35
q-30 -89 -61 -166q-41 -100 -60 -172t11 -101q20 -20 124 10q111 33 320 137q202 99 568 313zM509 890q-16 13 -13.5 19t18.5 16q7 4 19 14q92 82 118 144q4 10 7 28q1 9 5 19v2q7 14 33.5 15.5t38.5 -9.5q14 -13 12 -31.5t-17 -36.5l-58 -58q-52 -52 -127 -109
q-24 -18 -36 -13z" />
    <glyph glyph-name="ucircumflex" unicode="&#xfb;" horiz-adv-x="1548" 
d="M1543 494q15 7 17 -3q0 -9 -14 -18q-239 -145 -487 -284q-233 -129 -399 -189q-166 -61 -225 -7q-38 43 -25 107q13 63 51 149q10 23 30 73q5 15 6 23.5t-1.5 10t-8 -2t-11 -8.5t-12.5 -12q-224 -225 -364 -325q-139 -99 -242 -87q-25 5 -40 12t-32 25t-15.5 54t21.5 89
q89 221 252 465l12 18q55 88 68 114q1 1 1 3q0 35 19 50q23 17 54 17t43 -20q17 -28 -6 -72q-21 -40 -90 -137q-45 -64 -113 -170q-72 -112 -122 -210q-53 -102 -49 -144q3 -29 35 -38q31 -9 107 30q77 39 216 153q137 112 357 329q23 23 48.5 26.5t16.5 -42.5
q-30 -89 -61 -166q-41 -100 -60 -172t11 -101q20 -20 124 10q111 33 320 137q202 99 568 313zM485 945q-16 -3 -22.5 1.5t-5.5 12.5t4.5 15t6.5 11v1l1 2q1 2 2 2q13 23 34 49q75 96 127 96h3q7 0 11 -0.5t12.5 -7t14 -18t10 -36.5t4.5 -60q0 -3 -0.5 -9t-1.5 -9q0 -6 -1 -9
q0 -5 1 -7q0 -14 -10 -15q-26 -4 -26 14q1 2 1 5t1 5q0 6 1 11q5 41 0 74q-4 34 -22 35q-27 0 -72 -73q-21 -36 -26 -50q-7 -20 -16.5 -28.5t-30.5 -11.5z" />
    <glyph glyph-name="udieresis" unicode="&#xfc;" horiz-adv-x="1545" 
d="M1544 494q14 7 17 -3q0 -9 -15 -18q-221 -135 -487 -284q-233 -129 -399 -189q-166 -61 -225 -7q-38 43 -25 107q12 58 52 149q9 23 29 73q11 28 6 31.5t-12.5 -2t-20.5 -18.5q-224 -225 -364 -325q-139 -99 -242 -87q-19 4 -31.5 8t-28.5 16.5t-22 30.5t-3 50t20 75
q84 213 251 465l12 18q52 84 69 114v3q0 35 19 50q23 17 54 17q30 0 44 -20q15 -29 -7 -72q-18 -38 -89 -137q-42 -58 -114 -170t-122 -210q-53 -102 -49 -144q3 -29 35 -38q31 -9 107 30q77 39 216 153q137 112 357 329q24 24 49 27q29 2 16 -43q-27 -82 -60 -166
q-41 -100 -60 -172q-19 -73 10 -101q20 -20 125 10q111 33 320 137q210 104 568 313zM449 890h-7q-29 -2 -38 9q-12 19 -7 36q7 19 26 34t40 15t29 -13.5t3 -35.5q-6 -24 -16 -34.5t-30 -10.5zM635 890h-7q-29 -2 -38 9q-12 19 -7 36q7 19 26 34t39 15q45 0 33 -49
q-6 -24 -16 -34.5t-30 -10.5z" />
    <glyph glyph-name="yacute" unicode="&#xfd;" horiz-adv-x="1317" 
d="M324 878q-9 5 -12.5 9.5t-1 9t6.5 8t12 8.5q7 4 19 14q92 82 118 144q3 9 7 27l4 20h1v1q7 15 33 16.5t39 -9.5q14 -13 12 -31.5t-17 -36.5q-1 -2 -58 -59q-54 -53 -127 -108q-24 -18 -36 -13zM1317 495q8 2 14 -2.5t4 -11.5t-14 -13v-1q-330 -148 -659 -322
q-82 -45 -113 -80q-33 -37 -44 -67v-2q-2 -5 -6 -13q0 -2 -1 -3l-1 -1v-1q-312 -718 -721 -1165q-185 -202 -363.5 -320t-332.5 -139q-24 -4 -51 -4q-196 4 -223 179q-18 119 106 321q124 203 421 468q301 269 804 577h1q7 5 8 5q9 7 20 12q67 40 155 90q80 49 110 90
q31 45 41 79l1 1q38 108 54 194t9.5 133.5t-30.5 58.5q-36 10 -121 -57q-86 -66 -190 -163q-76 -68 -118.5 -104.5t-102.5 -83t-99 -63t-61 -6.5q-25 10 -25.5 39t20.5 73.5t64 115.5q84 139 187 269q29 32 82 23q35 -9 42 -32.5t-12 -44.5q-42 -49 -72 -82
q-72 -79 -141 -167q-66 -82 -58 -116q19 -13 87 43q76 65 160 144q182 166 247 215q120 92 167 77q82 -26 84 -147q2 -122 -67 -310v-1q-11 -32 -3.5 -35.5t25.5 8.5l1 1q2 0 2 1h1q334 172 712 340zM-299 -1179q189 207 360 497q175 294 321 634q13 30 3.5 34.5
t-35.5 -11.5q-65 -37 -205 -121q-417 -255 -704 -504q-285 -247 -434 -460q-145 -207 -131 -334q9 -69 60.5 -107.5t140.5 -29.5q127 15 294 120t330 282z" />
    <glyph glyph-name="thorn" unicode="&#xfe;" horiz-adv-x="1010" 
 />
    <glyph glyph-name="ydieresis" unicode="&#xff;" horiz-adv-x="1321" 
d="M1320 495q14 5 17 -7q3 -11 -13 -20h-1q-348 -158 -659 -322q-83 -45 -112 -80q-32 -37 -44 -68q-1 -1 -1 -3q-4 -8 -5 -11l-2 -4v-1q-313 -720 -722 -1165q-185 -201 -363.5 -319.5t-331.5 -139.5q-24 -4 -52 -4q-194 4 -223 179q-17 119 106 321q124 203 421 468
q303 270 805 577q6 4 9 5q9 7 20 12q67 40 155 90q79 47 109 90q30 44 42 79v1q61 166 64 269q5 100 -30 117q-36 10 -121 -57q-86 -68 -190 -163q-184 -164 -255 -212q-90 -61 -127 -45q-24 10 -24 39t20 73.5t63 115.5q81 135 187 268q30 35 82 23q36 -8 43 -31.5
t-13 -44.5q-42 -49 -71 -82q-72 -79 -141 -167q-66 -82 -58 -116q19 -13 87 43q55 46 160 143q189 174 264 229q105 77 150 64q82 -26 83 -147q3 -121 -66 -310v-1l-1 -1q-11 -30 -2.5 -34t25.5 8q1 1 2 1l1 1q344 176 713 339zM385 -47q12 30 2.5 34.5t-34.5 -11.5
q-68 -38 -206 -121q-414 -252 -703 -504q-285 -247 -434 -460q-145 -207 -131 -334q9 -69 60 -107.5t140 -29.5q128 15 295 120q166 105 330 282q189 209 359 497q173 291 322 634zM370 891h-7q-29 -2 -39 9q-10 20 -6 36q6 19 25.5 34t39.5 15q45 0 33 -49
q-6 -24 -16 -34.5t-30 -10.5zM555 891h-6q-29 -2 -39 9q-10 20 -6 36q6 19 25.5 34t39.5 15q21 0 29.5 -13.5t3.5 -35.5q-6 -24 -16.5 -34.5t-30.5 -10.5z" />
    <glyph glyph-name="Abreve" unicode="&#x102;" horiz-adv-x="2970" 
d="M3711 2764q13 3 28 -4.5t14 -18.5q0 -14 -22 -41q-9 -8 -34 -34t-52 -48q-61 -50 -114 -82.5t-94 -44.5t-59.5 -15.5t-44.5 -4.5h-5q-40 -4 -82 21q-56 39 -71 166q-2 6 -0.5 28t0.5 26v4.5v5t1 4t3 3.5t5.5 2.5t9.5 1.5q21 4 37 -3.5t16 -17.5q2 -8 -3 -14v-19
q-1 -61 21 -112q23 -51 72 -54q72 -7 205 112q46 48 63 75q15 30 33 45q17 14 73 19zM2831 494q9 7 18.5 -1.5t-6.5 -22.5q-216 -174 -391 -305q-70 -54 -123 -114t-72 -101q-124 -266 -299 -653q-14 -31 -32 -41l-9 -3q-1 -1 -4 -1h-3q-3 -1 -7 0h-4q-7 2 -10 4q-9 8 -4 42
q34 218 47 464q0 37 -44 6q-251 -160 -431 -247q-325 -156 -534 -156q-102 0 -175 37q-49 26 -81 64q-24 22 -54 -8h-1q-208 -183 -318 -243q-107 -61 -181 -61q-45 -4 -79 27q-35 30 -21 113q5 24 24.5 41t43.5 19q26 3 34 -7.5t-3 -41.5q-32 -75 -9 -93q34 -28 87.5 -16.5
t143 76t244.5 201.5q54 48 39 76v1q-81 207 51 583q78 215 214 439q136 220 297 380q163 162 323 205q85 25 174 -17t162 -205v-2l4 -8q0 -1 1.5 -5t2.5 -6q18 -44 30 -83q5 -13 12 -14.5t12 2.5t13 12q345 384 799 900q158 183 238 282q88 107 138 163q61 69 109 108
q50 41 89 24q53 -20 14 -126q-40 -110 -166 -363q-63 -129 -68 -139q-7 -15 -32.5 -69t-84.5 -179t-113 -239q-222 -473 -473 -1013q-8 -18 -7.5 -26.5t8.5 -8t18 5t21 12.5q195 144 428 331zM1978 -95v-1q0 -18 13 -20.5t30 9.5q56 37 125 85q99 71 123 147
q283 648 475 1067q218 472 234 505q65 131 98 203q52 110 84 189q33 81 21 89q-13 5 -59.5 -45t-154.5 -179q-96 -116 -228 -267q-423 -482 -787 -880q-53 -62 -44 -86v-1q88 -353 70 -815zM678 -407q8 -27 40 5q19 18 57 53t52 48q385 361 967 1000q59 67 50 97
q-2 7 -6 19.5t-7.5 22.5t-6.5 18q-5 14 -17 42q-11 28 -23 47q-48 83 -116 117.5t-143 16.5q-119 -35 -276 -187q-154 -149 -301 -368q-142 -212 -226 -437q-33 -87 -57 -226q-23 -141 13 -268zM1873 -201q67 44 65 92q13 463 -66 802q-6 20 -28 -4q-586 -637 -1000 -1023
q-68 -65 -103 -95q-40 -38 -24 -58q32 -48 89 -80q53 -32 181 -20q126 10 346 100q220 89 540 286zM1939 -662v1q112 275 243 583q12 28 6.5 33.5t-15 1.5t-23.5 -14h-1q-99 -69 -108 -76q-69 -48 -69 -93q-15 -230 -44 -436q-2 -8 2 -9t8 7z" />
    <glyph glyph-name="abreve" unicode="&#x103;" horiz-adv-x="971" 
d="M513 1000q8 1 17 -3.5t8 -10.5q0 -12 -13 -25q-41 -41 -53 -51q-114 -95 -190 -89h-3q-11 -1 -21.5 1.5t-28 11.5t-29.5 35t-15 66q-1 4 -0.5 17.5t0.5 15.5v3v3.5t1 2.5t4 3t7 1q12 2 22 -2.5t10 -10.5q1 -3 -1 -9v-11q-1 -41 13.5 -70.5t42.5 -31.5q45 -2 126 69
q24 24 38 46q10 20 22 28t43 11zM969 494q9 7 16 2q7 -6 -15 -23l-2 -2q-236 -169 -417 -282q-181 -110 -273 -115q-48 0 -79 21q-84 62 -27 233q7 22 4 26t-8 1.5t-12 -9.5q-94 -85 -155 -125q-138 -90 -202 -61q-19 9 -21.5 27.5t13.5 48.5t23 41t27 39q1 0 1 1l2 1
q62 82 177 201q83 87 158 140q77 54 128 29q45 -27 26 -108q-2 -13 7 -17q20 -14 -5 -59l-1 -1q-86 -170 -106 -257q-18 -82 0 -102q15 -22 48.5 -25t92 16.5t141 63.5t198.5 118t261 177zM188 465q45 70 32 87h-1q-1 1 -2 1v1q-26 2 -93 -49q-63 -46 -140 -120
q-74 -71 -115 -125q-1 0 -1 -1t-1 -2q-9 -12 -13 -18t-11 -18.5t-1.5 -18t22.5 -3.5q57 9 136 60q81 54 153 124q20 24 19 34h1q5 27 15 48z" />
    <glyph glyph-name="Dcroat" unicode="&#x110;" horiz-adv-x="2448" 
d="M2597 1886q163 -130 -15 -547q-183 -427 -674 -1034q-281 -343 -485 -526q-199 -180 -334 -245q-133 -64 -211 -60q-70 3 -104 26q-92 59 -87 187q4 127 107 266q31 43 66 20q13 -11 -23 -42q-18 -18 -25 -27q-72 -96 -76 -204q-5 -110 76 -165q44 -27 128.5 -4t186.5 89
q147 99 333 290q189 192 389 437q431 534 627 1009q65 154 67 262t-53 149q-50 40 -138 41q-89 3 -213 -58q-165 -86 -367 -251q-199 -161 -423 -374l-8 -8l-3 -3l-3 -3h-1v-1q-73 -68 -145 -111v-1q-1 0 -1 -1l-2 -1q-34 -19 -71 -78q-67 -113 -173 -288q76 -6 150 -9
q106 -5 147 -1h16q18 1 21.5 -3t-2.5 -26q-8 -16 -15.5 -20.5t-16.5 0.5q-5 1 -20 1l-312 5q-180 -291 -337 -527q-207 -319 -340 -487q-153 -187 -215 -185q-13 0 -14 17q-2 13 7.5 19.5t29.5 6.5q10 2 59 57q51 56 159 202q101 136 293 429q152 238 283 469l-106 2
q-59 0 -85 -6h-1q-62 -16 -63 5q0 5 3 12q28 62 80 62l25 -2q5 -1 15 -1.5t15 -0.5q35 -3 151 -13q93 161 171 308q18 32 12 67q-10 43 21 137q36 107 113 263q79 157 152 284q79 137 148 236q71 108 116 94q31 -6 35 -49q5 -44 -40 -152q-74 -166 -209 -414
q-4 -8 -11.5 -22t-13.5 -26t-12 -23l-1 -1l-3 -6q-3 -5 -5 -10q-68 -129 -138 -251q-12 -20 -5 -23q4 -2 12 5q29 23 101 91l6 6q2 1 5 4q1 0 1 1t1 2h1q185 178 348 315.5t307 238t260 153.5t207.5 61t148.5 -39zM1272 1494q-167 -312 -185 -417q-6 -29 4 -28q6 1 21 26
q101 186 199 373q1 4 4 7q41 84 93 194q46 99 75 168q30 70 23 70q-9 0 -52 -73q-49 -81 -96 -163q-63 -113 -86 -157z" />
    <glyph glyph-name="dcroat" unicode="&#x111;" horiz-adv-x="1303" 
d="M1299 494q14 9 19 1q6 -9 -17 -28q-80 -64 -204 -142q-123 -77 -249 -134q-129 -59 -237 -75t-165 38t-35 204q2 14 -2 16.5t-11 -4.5l-2 -2q-6 -4 -9 -7v-1h-1q-253 -200 -386 -275q-135 -74 -188 -70q-43 2 -59 24q-36 44 -6 122t91 160q60 81 118 137q51 49 95.5 80.5
t73.5 43.5t53 13.5t36.5 -2.5t21.5 -12q34 -30 18 -88.5t-78 -131.5q-18 -20 -41 -25.5t-41 6.5q-17 12 -17 34t19 42q10 10 21 16q36 24 18 34q-12 4 -51 -23q-41 -28 -80 -66q-99 -95 -166.5 -186.5t-37.5 -117.5q102 -66 565 312q66 60 80 105q1 2 2 5t1 5q1 1 1.5 3.5
t0.5 3.5q1 1 1 3q1 1 1 3q75 238 171 458l-127 2q-50 0 -68 -5h-1q-60 -15 -48 14q23 49 64 49l20 -1q4 -1 12 -1.5t12 -0.5q70 -6 136 -12l20 -2q53 121 119 243q183 338 374 580q194 245 363 378q170 134 269 134q92 0 114 -93q28 -194 -240 -603q-106 -166 -319 -414
q-208 -244 -563 -566l-1 -1q-95 -85 -142 -124q-1 0 -1 -1l-2 -1q-3 -3 -5 -4v-1h-1q-1 -1 -22 -19q-29 -23 -61 -70t-42 -115q-20 -183 140 -176q178 8 532 234q75 48 144 97zM546 571q-3 -9 -3.5 -14.5t1 -7t4.5 -1t7 3.5t7.5 5.5t8.5 6.5q141 126 145 130q9 8 18 17
q335 302 545 557q206 250 308 407q129 197 176 348q46 148 34 203q-4 19 -12.5 25t-16.5 4q-224 -87 -423 -300q-197 -211 -362 -478q-146 -238 -255 -466l57 -3q76 -4 117 -1h13q14 1 17 -2.5t-2 -20.5q-9 -22 -25 -16q-4 1 -16 1l-180 2q-1 -1 -1 -2q0 -2 -1 -2
q-109 -237 -161 -396z" />
    <glyph glyph-name="Itilde" unicode="&#x128;" horiz-adv-x="1124" 
d="M2006 2466q32 0 9 -33q-6 -10 -16 -20q-67 -73 -144 -135q-77 -60 -145 -50q-42 14 -74 103q-12 30 -19.5 45t-20.5 29t-28 14q-10 0 -36.5 -16.5t-57.5 -52t-41 -76.5q-9 -25 -38 -31q-28 -4 -46 9q-16 15 -13.5 38.5t23.5 43.5q17 17 26 25q71 69 120.5 103t101.5 34
q18 0 33.5 -11.5t29 -34t22 -40.5t19.5 -46t21 -48q19 -32 71 -12q75 32 154 120q35 38 49 42zM1474 1936q8 -13 11.5 -25.5t-2 -59.5t-28.5 -113t-81 -191.5t-146 -288.5q-216 -400 -610 -1024q-21 -32 -14 -50l1 -1l4 -8q4 -9 10 -15q10 -15 -3 -25q-8 -6 -18.5 0
t-17.5 18q-7 8 -18 -6q-225 -354 -508 -776q-21 -37 -47 -19q-4 10 -2.5 13.5t13.5 16.5q0 1 0.5 1.5l1.5 1.5q12 11 23 26q284 425 491 774q25 43 16 63q-65 306 152 792q145 318 359 606q61 85 156 187q92 99 172 128q60 14 85 -25zM1118 1215l20 36q161 305 208 455
q51 158 30 167q-32 6 -115 -73q-83 -80 -168 -192q-103 -137 -203 -297q-103 -165 -171 -313q-72 -157 -120 -355q-48 -199 -24 -363q4 -19 20 7q315 539 523 928z" />
    <glyph glyph-name="itilde" unicode="&#x129;" horiz-adv-x="627" 
d="M625 494q17 12 18 1.5t-13 -21.5q-111 -76 -246 -165q-149 -98 -265 -167q-130 -77 -223 -117q-95 -41 -124 -16q-17 17 -21 40.5t8.5 59t25.5 64.5t46.5 80t53.5 80.5t63 89.5q2 2 18 25q29 41 34 49q17 21 67 28t62 -11q11 -20 -18 -45q-11 -11 -17 -18l-17 -17
q-40 -42 -100 -110q-65 -72 -114 -147t-36 -117q22 -33 206 63q179 93 592 371zM48 899q-26 26 8 63q3 3 9.5 9t10.5 10q52 51 90 77t79 26q29 0 47 -32q17 -28 32 -69q12 -28 16 -36q12 -14 25 -14q12 0 29 6q57 23 117 90q27 30 38 32q17 2 13 -11t-19 -28
q-56 -61 -109 -103q-56 -46 -111 -38q-32 11 -56 79q-24 67 -52 67q-16 0 -52.5 -33t-49.5 -78q-7 -18 -29 -23.5t-36 6.5zM155 649q-10 1 -12.5 7.5t-0.5 12.5t8 19q6 10 10 23q7 25 24 40.5t40 15.5q12 0 19.5 -0.5t15.5 -4t11 -9.5t3 -17.5t-6 -27.5q-17 -39 -51 -51
q-36 -12 -61 -8z" />
    <glyph glyph-name="dotlessi" unicode="&#x131;" horiz-adv-x="514" 
 />
    <glyph glyph-name="OE" unicode="&#x152;" 
 />
    <glyph glyph-name="oe" unicode="&#x153;" 
 />
    <glyph glyph-name="Utilde" unicode="&#x168;" horiz-adv-x="1781" 
d="M2166 2466q32 0 9 -33q-6 -10 -16 -20q-67 -73 -144 -135q-77 -60 -145 -50q-42 14 -74 103q-12 30 -19.5 45t-20.5 29t-28 14q-20 0 -70.5 -43.5t-64.5 -101.5q-9 -25 -38 -31q-28 -4 -46 9q-16 15 -13.5 38.5t23.5 43.5q17 17 26 25q71 69 120.5 103t101.5 34
q18 0 33.5 -11.5t29 -34t22 -40.5t19.5 -46t21 -48q19 -32 71 -12q75 32 154 120q35 38 49 42zM2586 2062q14 -33 -19.5 -87.5t-113.5 -143.5q-17 -19 -54.5 -62.5t-56.5 -64.5q-273 -316 -726 -810q-73 -80 -97 -122q-169 -293 -326 -597q-155 -299 -269 -578
q-109 -267 -118 -422q0 -8 1 -13q10 -61 -46 -69h-5q-23 3 -32.5 20t-1.5 41q281 773 597 1390q21 41 7 37q-9 -3 -31 -25q-110 -112 -164 -166q-336 -333 -562 -516q-216 -174 -343 -239q-122 -62 -163 -50q-63 15 -53 111q11 97 63 233q56 141 123 277q74 149 126 244
q212 388 370 651q88 147 168 288q53 95 100 192q38 80 59 130q-12 9 -2 33q27 56 72 56q42 0 57 -34q20 -40 -23 -132q-45 -97 -164 -280q-298 -457 -544 -909q-110 -205 -183 -357t-105 -235.5t-40 -134t0 -64.5t27 -15q59 0 187 86q122 82 279 214q153 127 297 261
q145 134 246 234q116 116 209 213q46 49 83 99q39 52 57 84q192 339 336 545q236 338 415 512q182 177 274 201q65 17 89 -26zM1875 1347q-72 -102 -200 -312q-14 -23 -6 -24t20 15q471 514 692 772q74 83 77 87l3 3q0 1 1 2q8 10 6 19v2q2 0 6 -4q17 30 9 42.5t-33 5.5
q-67 -31 -225 -184q-155 -151 -350 -424z" />
    <glyph glyph-name="utilde" unicode="&#x169;" horiz-adv-x="1548" 
d="M248 919q-26 26 8 63q3 3 9.5 9t10.5 10q52 51 90 77t79 26q29 0 47 -32q17 -28 32 -69q12 -28 16 -36q12 -14 25 -14q12 0 29 6q57 23 117 90q27 30 38 32q17 2 13 -11t-19 -28q-56 -61 -109 -103q-56 -46 -111 -38q-32 11 -56 79q-24 67 -52 67q-16 0 -52.5 -33
t-49.5 -78q-7 -18 -29 -23.5t-36 6.5zM1544 494q14 7 17 -3q0 -9 -15 -18q-221 -135 -487 -284q-233 -129 -399 -189q-166 -61 -225 -7q-38 43 -25 107q13 60 52 150q4 9 13.5 34t15.5 39q11 32 3 33q-4 0 -30 -22v-1q-224 -225 -364 -325q-140 -99 -242 -86
q-23 4 -39.5 11.5t-33 25.5t-15 54t22.5 88q84 213 251 465l12 18q52 84 69 114v3q0 33 19 51q22 16 54 16q30 0 44 -20q15 -29 -7 -72q-19 -40 -89 -136q-45 -63 -114 -171q-72 -112 -122 -210q-53 -102 -49 -144q11 -66 111 -23q182 78 604 498q28 26 53 26t12 -43
q-27 -82 -60 -166q-40 -96 -60 -172q-19 -73 10 -101q20 -20 125 10q111 33 320 137q210 104 568 313z" />
    <glyph glyph-name="Ydieresis" unicode="&#x178;" 
 />
    <glyph glyph-name="Ohorn" unicode="&#x1a0;" horiz-adv-x="2420" 
d="M2709 2215q51 17 80 -18t20 -81q-18 -96 -51.5 -159.5t-98.5 -125.5q-84 -80 -187 -115q2 -68 -10 -148q-55 -330 -352 -823q-186 -302 -376 -533v-1q-13 -15 -10.5 -20t20.5 6q225 137 471 297h1q8 3 15 0.5t6.5 -11t-11.5 -16.5q-290 -188 -470 -298
q-107 -63 -161 -120v-1q-225 -243 -387 -379q-444 -372 -728 -421q-24 -3 -43 -3q-57 2 -88.5 22.5t-39.5 46.5q-26 65 21 179q7 19 -22 19h-6q-48 0 -83 7q-2 0 -5.5 0.5t-5.5 1.5q-8 2 -11 3q-140 36 -165 172q-32 185 158 523q185 330 561 775q154 182 305 335t284 265
t258.5 197t232 135.5t200 74.5t167 21t128.5 -31q109 -52 139 -203q5 -23 6 -47q96 40 166 123q88 107 19 168q-14 13 -22.5 37t-2.5 48q10 44 27.5 65.5t50.5 32.5zM395 -382q48 79 128 181q267 330 478 479q210 148 310 96q68 -41 50 -150q-16 -108 -124 -252
q-16 -21 -38.5 -29.5t-42.5 -0.5q-10 6 -18 17q-6 16 -1.5 23t19.5 14q20 8 47 33q55 59 84 141v1q17 47 10.5 82.5t-34.5 46.5q-15 5 -49 -4.5t-97 -44.5t-138 -92t-180.5 -160.5t-215.5 -235.5q-69 -83 -109 -147q-8 -14 -0.5 -17t19.5 1q163 36 436 156q258 116 570 296
q51 31 99 74q50 45 65 64q202 239 404 564q258 434 305 747q46 310 -107 396q-84 41 -226 2q-140 -37 -317 -146q-207 -127 -439 -332t-466 -481q-355 -419 -545 -741q-187 -317 -163 -475q9 -47 48 -89q38 -42 90 -56q31 -7 83 -6q44 7 64 43q0 1 1 2zM1173 -313
q132 111 307 295q16 19 13.5 23t-22.5 -7q-638 -377 -1009 -466q-42 -11 -51 -32q-45 -103 -25 -148q22 -36 98 -26q116 6 287 88q174 81 402 273z" />
    <glyph glyph-name="ohorn" unicode="&#x1a1;" horiz-adv-x="855" 
d="M853 495q4 3 9 1.5t5 -5.5t-7 -9q-123 -79 -281 -135q-160 -56 -294 -56h-35q-26 0 -36 -18l-2 -2v-1q-158 -215 -292 -240q-5 -1 -15 -1q-44 0 -62 34q-28 58 55 177q31 43 77 95q11 12 26 19q11 5 5 11q-58 75 22 182q58 73 142 113q85 42 147 16q70 -31 31 -156
q-1 -5 -5 -15q59 23 105 77q53 63 8 103q-23 21 -16 55q13 57 62 72q35 11 56.5 -12t15.5 -53q-12 -50 -33 -88q-29 -56 -72 -99q-67 -66 -140 -91q-29 -62 -73 -133q-10 -17 2 -17q9 -1 29 -1q88 -1 180 18t168 50.5t127 57.5t91 51zM76 441v-1q-1 -1 -1 -2v-2
q-20 -75 94 -105h1q1 -1 5 -1q1 -1 5 -1h1q1 -1 3 -1t3 -1h1q19 -3 29 15q29 50 46 93.5t21 72t0 49.5t-13 31t-21 11q-32 3 -72 -27q-42 -29 -73 -71q-20 -26 -29 -60zM-93 72q61 -15 135 51q75 69 134 156q13 15 -6 17q-48 5 -78 14h-2q-7 1 -9 -5q-1 -7 -10 -17
q-13 -14 -36 -30h-1q-4 -3 -19 -14q-1 0 -2 -1l-2 -2q-10 -8 -15 -13q-44 -36 -76.5 -78.5t-19.5 -69.5q2 -3 7 -8z" />
    <glyph glyph-name="Uhorn" unicode="&#x1af;" horiz-adv-x="1781" 
d="M2586 2062q14 -33 -19 -87t-113 -143q110 34 193 132q88 107 19 168q-14 13 -22.5 37t-2.5 48q10 44 27.5 65.5t50.5 32.5q51 17 80 -18t20 -81q-18 -96 -51.5 -159.5t-98.5 -125.5q-105 -99 -245 -133q-38 -44 -82 -94q-273 -316 -726 -810q-73 -80 -97 -122
q-169 -293 -326 -597q-155 -299 -269 -578q-109 -267 -118 -422q0 -8 1 -13q10 -61 -46 -69h-5q-23 3 -32.5 20t-1.5 41q281 773 597 1390q21 41 7 37q-9 -3 -31 -25q-110 -112 -164 -166q-336 -333 -562 -516q-216 -174 -343 -239q-122 -62 -163 -50q-63 15 -53 111
q11 97 63 233q56 141 123 277q74 149 126 244q212 388 370 651q88 147 168 288q53 95 100 192q38 80 59 130q-12 9 -2 33q27 56 72 56q42 0 57 -34q20 -40 -23 -132q-45 -97 -164 -280q-298 -457 -544 -909q-110 -205 -183 -357t-105 -235.5t-40 -134t0 -64.5t27 -15
q59 0 187 86q122 82 279 214q153 127 297 261q145 134 246 234q116 116 209 213q46 49 83 99q39 52 57 84q192 339 336 545q236 338 415 512q182 177 274 201q65 17 89 -26zM1875 1347q-72 -102 -200 -312q-14 -23 -6 -24t20 15q471 514 692 772q74 83 77 87l3 3q0 1 1 2
q8 10 6 19v2q2 0 6 -4q17 30 9 42.5t-33 5.5q-67 -31 -225 -184q-155 -151 -350 -424z" />
    <glyph glyph-name="uhorn" unicode="&#x1b0;" horiz-adv-x="1548" 
d="M1544 494q14 7 17 -3q0 -9 -15 -18q-221 -135 -487 -284q-233 -129 -399 -189q-166 -61 -225 -7q-38 43 -25 107q13 60 52 150q4 9 13.5 34t15.5 39q11 32 3 33q-4 0 -30 -22v-1q-224 -225 -364 -325q-140 -99 -242 -86q-23 4 -39.5 11.5t-33 25.5t-15 54t22.5 88
q84 213 251 465l12 18q52 84 69 114v3q0 33 19 51q22 16 54 16q30 0 44 -20q15 -29 -7 -72q-19 -40 -89 -136q-45 -63 -114 -171q-72 -112 -122 -210q-53 -102 -49 -144q11 -66 111 -23q182 78 604 498q14 13 33 21t30 2q3 -1 5 -8q63 27 104 77q53 63 8 103q-23 21 -16 55
q13 57 62 72q35 11 56.5 -12t15.5 -53q-12 -50 -33 -88q-29 -56 -72 -99q-58 -59 -128 -87q-27 -82 -60 -166q-40 -96 -60 -172q-19 -73 10 -101q20 -20 125 10q111 33 320 137q210 104 568 313z" />
    <glyph glyph-name="circumflex" unicode="&#x2c6;" horiz-adv-x="1024" 
 />
    <glyph glyph-name="caron" unicode="&#x2c7;" horiz-adv-x="1024" 
 />
    <glyph glyph-name="uni02C9" unicode="&#x2c9;" horiz-adv-x="1024" 
 />
    <glyph glyph-name="breve" unicode="&#x2d8;" horiz-adv-x="1024" 
 />
    <glyph glyph-name="dotaccent" unicode="&#x2d9;" horiz-adv-x="1024" 
 />
    <glyph glyph-name="ring" unicode="&#x2da;" horiz-adv-x="1024" 
 />
    <glyph glyph-name="ogonek" unicode="&#x2db;" horiz-adv-x="1024" 
 />
    <glyph glyph-name="tilde" unicode="&#x2dc;" horiz-adv-x="1024" 
 />
    <glyph glyph-name="hungarumlaut" unicode="&#x2dd;" horiz-adv-x="1024" 
 />
    <glyph glyph-name="uni0E18" unicode="&#xe18;" 
 />
    <glyph glyph-name="uni1EA0" unicode="&#x1ea0;" horiz-adv-x="2970" 
d="M1038 -1096q32 0 42 -19.5t-3 -50.5q-23 -65 -74 -65q-7 0 -10 -1q-45 0 -53 13q-13 28 -3 52q13 28 42.5 49.5t58.5 21.5zM2831 494q9 7 18.5 -1.5t-6.5 -22.5q-216 -174 -391 -305q-70 -54 -123 -114t-72 -101q-124 -266 -299 -653q-14 -31 -32 -41l-9 -3q-1 -1 -4 -1
h-3q-3 -1 -7 0h-4q-7 2 -10 4q-9 8 -4 42q34 218 47 464q0 37 -44 6q-251 -160 -431 -247q-325 -156 -534 -156q-102 0 -175 37q-49 26 -81 64q-24 22 -54 -8h-1q-208 -183 -318 -243q-107 -61 -181 -61q-45 -4 -79 27q-35 30 -21 113q5 24 24.5 41t43.5 19q26 3 34 -7.5
t-3 -41.5q-32 -75 -9 -93q34 -28 87.5 -16.5t143 76t244.5 201.5q54 48 39 76v1q-81 207 51 583q78 215 214 439q136 220 297 380q163 162 323 205q85 25 174 -17t162 -205v-2l4 -8q0 -1 1.5 -5t2.5 -6q18 -44 30 -83q5 -13 12 -14.5t12 2.5t13 12q345 384 799 900
q158 183 238 282q88 107 138 163q61 69 109 108q50 41 89 24q53 -20 14 -126q-40 -110 -166 -363q-63 -129 -68 -139q-7 -15 -32.5 -69t-84.5 -179t-113 -239q-222 -473 -473 -1013q-8 -18 -7.5 -26.5t8.5 -8t18 5t21 12.5q195 144 428 331zM1978 -95v-1q0 -18 13 -20.5
t30 9.5q56 37 125 85q99 71 123 147q283 648 475 1067q218 472 234 505q65 131 98 203q52 110 84 189q33 81 21 89q-13 5 -59.5 -45t-154.5 -179q-96 -116 -228 -267q-423 -482 -787 -880q-53 -62 -44 -86v-1q88 -353 70 -815zM678 -407q8 -27 40 5q19 18 57 53t52 48
q385 361 967 1000q59 67 50 97q-2 7 -6 19.5t-7.5 22.5t-6.5 18q-5 14 -17 42q-11 28 -23 47q-48 83 -116 117.5t-143 16.5q-119 -35 -276 -187q-154 -149 -301 -368q-142 -212 -226 -437q-33 -87 -57 -226q-23 -141 13 -268zM1873 -201q67 44 65 92q13 463 -66 802
q-6 20 -28 -4q-586 -637 -1000 -1023q-68 -65 -103 -95q-40 -38 -24 -58q32 -48 89 -80q53 -32 181 -20q126 10 346 100q220 89 540 286zM1939 -662v1q112 275 243 583q12 28 6.5 33.5t-15 1.5t-23.5 -14h-1q-99 -69 -108 -76q-69 -48 -69 -93q-15 -230 -44 -436q-2 -8 2 -9
t8 7z" />
    <glyph glyph-name="uni1EA1" unicode="&#x1ea1;" horiz-adv-x="972" 
d="M-11 -96q51 0 31 -56q-19 -52 -59 -52q-5 0 -8 -1q-36 0 -43 11q-10 21 -2 41q10 22 34 39.5t47 17.5zM969 494q9 7 16 2q7 -6 -15 -23l-2 -2q-236 -169 -417 -282q-181 -110 -273 -115q-48 0 -79 21q-84 62 -27 233q7 22 4 26t-8 1.5t-12 -9.5q-94 -85 -155 -125
q-138 -90 -202 -61q-19 9 -21.5 27.5t13.5 48.5t23 41t27 39q1 0 1 1l2 1q62 82 177 201q83 87 158 140q77 54 128 29q45 -27 26 -108q-2 -13 7 -17q20 -14 -5 -59l-1 -1q-86 -170 -106 -257q-18 -82 0 -102q15 -22 48.5 -25t92 16.5t141 63.5t198.5 118t261 177zM188 465
q45 70 32 87h-1q-1 1 -2 1v1q-26 2 -93 -49q-63 -46 -140 -120q-74 -71 -115 -125q-1 0 -1 -1t-1 -2q-9 -12 -13 -18t-11 -18.5t-1.5 -18t22.5 -3.5q57 9 136 60q81 54 153 124q20 24 19 34h1q5 27 15 48z" />
    <glyph glyph-name="uni1EA2" unicode="&#x1ea2;" horiz-adv-x="2970" 
d="M3397 2517q1 -15 -8 -25.5t-22 -10.5q-15 0 -26.5 7.5t-13.5 17.5q-6 44 19.5 85.5t67 76t83.5 68t72.5 75.5t30.5 86q0 58 -62 58q-69 0 -155 -80q-4 -4 -12 -17.5t-16.5 -21t-19.5 -7.5q-21 0 -37 23q-13 23 -4 46t28 37q136 107 247 107q28 0 43 -5q80 -26 80 -107
q0 -26 -6 -48q-12 -43 -47.5 -83.5t-76 -71.5t-79.5 -62t-63.5 -69t-22.5 -79zM2831 494q9 7 18.5 -1.5t-6.5 -22.5q-216 -174 -391 -305q-70 -54 -123 -114t-72 -101q-124 -266 -299 -653q-14 -31 -32 -41l-9 -3q-1 -1 -4 -1h-3q-3 -1 -7 0h-4q-7 2 -10 4q-9 8 -4 42
q34 218 47 464q0 37 -44 6q-251 -160 -431 -247q-325 -156 -534 -156q-102 0 -175 37q-49 26 -81 64q-24 22 -54 -8h-1q-208 -183 -318 -243q-107 -61 -181 -61q-45 -4 -79 27q-35 30 -21 113q5 24 24.5 41t43.5 19q26 3 34 -7.5t-3 -41.5q-32 -75 -9 -93q34 -28 87.5 -16.5
t143 76t244.5 201.5q54 48 39 76v1q-81 207 51 583q78 215 214 439q136 220 297 380q163 162 323 205q85 25 174 -17t162 -205v-2l4 -8q0 -1 1.5 -5t2.5 -6q18 -44 30 -83q5 -13 12 -14.5t12 2.5t13 12q345 384 799 900q158 183 238 282q88 107 138 163q61 69 109 108
q50 41 89 24q53 -20 14 -126q-40 -110 -166 -363q-63 -129 -68 -139q-7 -15 -32.5 -69t-84.5 -179t-113 -239q-222 -473 -473 -1013q-8 -18 -7.5 -26.5t8.5 -8t18 5t21 12.5q195 144 428 331zM1978 -95v-1q0 -18 13 -20.5t30 9.5q56 37 125 85q99 71 123 147
q283 648 475 1067q218 472 234 505q65 131 98 203q52 110 84 189q33 81 21 89q-13 5 -59.5 -45t-154.5 -179q-96 -116 -228 -267q-423 -482 -787 -880q-53 -62 -44 -86v-1q88 -353 70 -815zM678 -407q8 -27 40 5q19 18 57 53t52 48q385 361 967 1000q59 67 50 97
q-2 7 -6 19.5t-7.5 22.5t-6.5 18q-5 14 -17 42q-11 28 -23 47q-48 83 -116 117.5t-143 16.5q-119 -35 -276 -187q-154 -149 -301 -368q-142 -212 -226 -437q-33 -87 -57 -226q-23 -141 13 -268zM1873 -201q67 44 65 92q13 463 -66 802q-6 20 -28 -4q-586 -637 -1000 -1023
q-68 -65 -103 -95q-40 -38 -24 -58q32 -48 89 -80q53 -32 181 -20q126 10 346 100q220 89 540 286zM1939 -662v1q112 275 243 583q12 28 6.5 33.5t-15 1.5t-23.5 -14h-1q-99 -69 -108 -76q-69 -48 -69 -93q-15 -230 -44 -436q-2 -8 2 -9t8 7z" />
    <glyph glyph-name="uni1EA3" unicode="&#x1ea3;" horiz-adv-x="972" 
d="M398 864q1 -12 -6.5 -19.5t-16.5 -7.5q-25 0 -29 19q-5 32 14 62.5t49.5 55.5l61 50t53 56t22.5 63q0 42 -45 42q-52 0 -114 -59q-3 -3 -9 -13t-12 -15.5t-15 -5.5q-15 0 -27 17q-9 18 -2.5 34t20.5 27q101 79 181 79q20 0 32 -4q59 -20 59 -78q0 -16 -5 -36
q-9 -31 -35 -61t-56 -52.5t-58.5 -45.5t-46 -50.5t-15.5 -57.5zM969 494q9 7 16 2q7 -6 -15 -23l-2 -2q-236 -169 -417 -282q-181 -110 -273 -115q-48 0 -79 21q-84 62 -27 233q7 22 4 26t-8 1.5t-12 -9.5q-94 -85 -155 -125q-138 -90 -202 -61q-19 9 -21.5 27.5t13.5 48.5
t23 41t27 39q1 0 1 1l2 1q62 82 177 201q83 87 158 140q77 54 128 29q45 -27 26 -108q-2 -13 7 -17q20 -14 -5 -59l-1 -1q-86 -170 -106 -257q-18 -82 0 -102q15 -22 48.5 -25t92 16.5t141 63.5t198.5 118t261 177zM188 465q45 70 32 87h-1q-1 1 -2 1v1q-26 2 -93 -49
q-63 -46 -140 -120q-74 -71 -115 -125q-1 0 -1 -1t-1 -2q-9 -12 -13 -18t-11 -18.5t-1.5 -18t22.5 -3.5q57 9 136 60q81 54 153 124q20 24 19 34h1q5 27 15 48z" />
    <glyph glyph-name="uni1EA4" unicode="&#x1ea4;" horiz-adv-x="2967" 
d="M4076 3137q43 -42 -8 -101q-11 -15 -85 -88q-80 -79 -189 -161q-40 -26 -54 -20q-13 8 -18.5 14.5t-2.5 13t9.5 12t18.5 12.5q13 8 28 21q139 124 176 215q5 15 10 40q3 21 7 30v1l1 1q11 21 49 24t58 -14zM2831 497v-1q10 7 19 -1.5t-7 -22.5q-216 -174 -391 -305
q-75 -60 -126 -118q-52 -60 -69 -96q-183 -398 -299 -654q-12 -31 -31 -41q-2 0 -5 -1t-5 -2q-1 -1 -4 -1h-14q-6 2 -10 4q-9 10 -3 42q32 218 47 464q-1 36 -45 6q-249 -160 -430 -247q-326 -156 -534 -156q-103 0 -176 37q-47 26 -81 64q-23 23 -54 -8
q-209 -183 -318 -243q-109 -61 -182 -61q-45 -4 -79 27q-34 29 -20 113q5 24 24 41t43 19q26 3 34 -7.5t-3 -41.5q-30 -75 -9 -93q34 -28 87.5 -16.5t143.5 76t244 201.5q52 47 40 76l-1 1q-80 207 52 583q80 221 214 439q133 218 297 380q163 162 323 205q86 26 173 -17
q89 -42 162 -205l1 -1l3 -9q4 -5 5 -11q18 -44 30 -83v1q4 -10 8 -13.5t9.5 -1.5t9 5t9.5 9q352 389 799 900q153 177 239 282q88 107 138 163q67 77 114 112t84 21q52 -19 13 -127q-40 -110 -166 -363q-16 -33 -67 -139q-7 -15 -32.5 -69t-84.5 -179t-113 -239
q-195 -411 -474 -1013q-15 -34 1.5 -35t38.5 19q175 128 428 331zM2269 129q283 648 475 1067q217 471 235 505q26 53 98 203q53 110 84 189q32 81 21 89q-13 6 -61 -45.5t-154 -178.5q-95 -116 -228 -267q-414 -472 -786 -880q-54 -60 -45 -86v-1q86 -345 71 -814v-1
q0 -38 42 -11q19 13 125 84q99 71 123 147zM678 -403q8 -27 40 5q37 33 110 102q391 367 967 999q59 67 49 98q-3 8 -9.5 28t-10.5 31q-6 19 -17 42q-13 31 -23 48q-48 82 -116 116.5t-143 16.5q-119 -35 -276 -187q-155 -151 -300 -368q-142 -212 -226 -437
q-33 -87 -57 -226q-24 -140 12 -268zM1874 -197q66 43 64 93q15 460 -66 802q-6 21 -27 -5q-591 -640 -1001 -1023q-67 -63 -102 -95q-40 -35 -25 -58q33 -48 89 -80q53 -32 181 -20q126 10 346 100q223 91 541 286zM3519 2574q-4 -9 -4 -20q0 -10 -1 -14.5t-6 -8.5t-16 -4
q-40 0 -28 33q2 13 8 21q1 6 8 25q15 44 26.5 84.5t19 77t5 58t-16.5 20.5q-18 0 -40.5 -26.5t-93.5 -127.5q-47 -72 -62 -101q-19 -40 -40 -59q-19 -19 -68 -25q-24 -4 -31.5 5.5t0 28t15 31t16.5 25.5q0 1 1 1l1 2q1 2 3 4.5t3 3.5q32 46 77 102q168 204 240 194h2
q16 3 27.5 -6.5t9.5 -76.5t-37 -189q-1 -3 -13 -40q-4 -9 -5 -18zM2182 -73q13 27 7 32.5t-14.5 2t-24.5 -14.5q-65 -45 -109 -75q-70 -51 -68 -94q-16 -236 -45 -436q0 -8 4 -8q3 -1 6 7q1 1 1 2l1 1q130 321 242 583z" />
    <glyph glyph-name="uni1EA5" unicode="&#x1ea5;" horiz-adv-x="972" 
d="M614 1078q-9 5 -12.5 9.5t-1 9t6.5 8t12 8.5q7 4 19 14q92 82 118 144q3 9 7 27l4 20h1v1q7 15 33 16.5t39 -9.5q14 -13 12 -31.5t-17 -36.5q-1 -2 -58 -59q-54 -53 -127 -108q-24 -18 -36 -13zM970 494q6 6 14 2q12 -5 -15 -25q-235 -169 -417 -282q-181 -110 -273 -115
q-48 0 -79 21q-83 61 -28 233q10 22 6 26t-9 1.5t-13 -9.5q-94 -85 -154 -125q-139 -89 -203 -62q-54 27 43 156q0 1 1 1l1 2q58 78 178 201q85 90 157 140q77 54 129 29q45 -28 26 -108q-5 -11 7 -18q19 -12 -6 -58v-2q-86 -171 -106 -256q-18 -82 -1 -102
q15 -23 48.5 -25.5t92.5 17t141.5 63t198 118t261.5 177.5zM189 465q44 73 31 87q-1 1 -2 1h-1q-25 3 -93 -48t-139 -121q-73 -69 -115 -124l-3 -3q-9 -11 -13 -18t-10.5 -19t-1 -17.5t22.5 -3.5q57 9 136 60q81 54 153 124q19 22 19 34q5 28 16 48zM246 893q-49 -5 -19 46
v1l4 4q11 19 38 55q88 113 141 106h3q5 -1 12 0t15 -7t15 -20.5t11.5 -40.5t4.5 -67q0 -7 -2 -21q0 -5 -1 -9q0 -6 1 -9q0 -13 -10 -16q-31 -4 -29 16q0 7 1 10q0 8 1 13q4 46 0 82q-4 38 -24 39q-30 2 -81 -82q-23 -40 -28 -54q-9 -23 -19.5 -32.5t-33.5 -13.5z" />
    </font>
</defs>
</svg>
