<svg version="1.2" xmlns="http://www.w3.org/2000/svg" viewBox="0 0 2587 223" width="2587" height="223">
	<title>s2</title>
	<style>
		tspan { white-space:pre } 
		.s0 { fill: none;stroke: #ffffff;stroke-linecap: round;stroke-miterlimit:100;stroke-width: 3;stroke-dasharray: 0,6 } 
		.s1 { fill: none;stroke: #ffffff;stroke-miterlimit:100;stroke-width: 2;stroke-dasharray: 8,4 } 
		.s2 { fill: #ffffff } 
		#line_over {
            /* Giữ lại các thuộc tính đã có (hoặc có thể ghi đè nếu cần) */
            stroke-dasharray: 0, 6;
            animation: dash-animation .15s linear infinite;
            }

            @keyframes dash-animation {
            from {
                stroke-dashoffset: 0;
            }
            to {
                stroke-dashoffset: 6;
            }
        }
	</style>
	<g id="s2">
		<path id="line_over" fill-rule="evenodd" class="s0" d="m-34 168c214.6-47.2 432.9 98.5 747 29 314.1-69.5 602.1-87.2 879-113 451.7-42.2 833-150.6 1585 201"/>
		<g id="1">
			<g id="line">
				<path id="Shape 2" fill-rule="evenodd" class="s1" d="m471 210v-61"/>
				<path id="Ellipse 1" fill-rule="evenodd" class="s2" d="m470 199.9c6.4 0 11.5 5.2 11.5 11.6 0 6.3-5.1 11.5-11.5 11.5-6.4 0-11.5-5.2-11.5-11.5 0-6.4 5.1-11.6 11.5-11.6z"/>
			</g>
		</g>
		<g id="2">
			<g id="line copy">
				<path id="Shape 2" fill-rule="evenodd" class="s1" d="m1034 143v-50"/>
				<path id="Ellipse 1" fill-rule="evenodd" class="s2" d="m1033 128.9c6.4 0 11.5 5.2 11.5 11.6 0 6.3-5.1 11.5-11.5 11.5-6.4 0-11.5-5.2-11.5-11.5 0-6.4 5.1-11.6 11.5-11.6z"/>
			</g>
		</g>
		<g id="3">
			<g id="line copy">
				<path id="Shape 2" fill-rule="evenodd" class="s1" d="m1504 95v-50"/>
				<path id="Ellipse 1" fill-rule="evenodd" class="s2" d="m1503 80.9c6.4 0 11.5 5.2 11.5 11.6 0 6.3-5.1 11.5-11.5 11.5-6.4 0-11.5-5.2-11.5-11.5 0-6.4 5.1-11.6 11.5-11.6z"/>
			</g>
		</g>
		<g id="4">
			<g id="line copy">
				<path id="Shape 2" fill-rule="evenodd" class="s1" d="m1951 50v-50"/>
				<path id="Ellipse 1" fill-rule="evenodd" class="s2" d="m1950 35.9c6.4 0 11.5 5.2 11.5 11.6 0 6.3-5.1 11.5-11.5 11.5-6.4 0-11.5-5.2-11.5-11.5 0-6.4 5.1-11.6 11.5-11.6z"/>
			</g>
		</g>
	</g>
</svg>