<svg version="1.2" xmlns="http://www.w3.org/2000/svg" viewBox="0 0 1080 884" width="1080" height="884">
	<title>s2</title>
	<style>
		tspan { white-space:pre } 
		.s0 { fill: none;stroke: #ffffff;stroke-linecap: round;stroke-miterlimit:100;stroke-width: 3;stroke-dasharray: 0,6 } 
		.s1 { fill: none;stroke: #ffffff;stroke-miterlimit:100;stroke-width: 2;stroke-dasharray: 8,4 } 
		.s2 { fill: #ffffff } 
		#line_over {
            /* Giữ lại các thuộc tính đã có (hoặc có thể ghi đè nếu cần) */
            stroke-dasharray: 0, 6;
            animation: dash-animation .15s linear infinite;
            }

            @keyframes dash-animation {
            from {
                stroke-dashoffset: 0;
            }
            to {
                stroke-dashoffset: 6;
            }
        }
	</style>
	<g id="s2">
		<path id="line_over" fill-rule="evenodd" class="s0" d="m-325.8 2.2c209.2-20.9 397.7 154.4 706.5 64.4 346.4-101 561.9 51.3 497.5 263-78.8 259.4-88.7 509.6 328.8 585.4"/>
		<g id="1">
			<g id="line">
				<path id="Shape 2" fill-rule="evenodd" class="s1" d="m141 85v-61"/>
				<path id="Ellipse 1" fill-rule="evenodd" class="s2" d="m140 74.9c6.4 0 11.5 5.2 11.5 11.6 0 6.3-5.1 11.5-11.5 11.5-6.4 0-11.5-5.2-11.5-11.5 0-6.4 5.1-11.6 11.5-11.6z"/>
			</g>
		</g>
		<g id="2">
			<g id="line copy">
				<path id="Shape 2" fill-rule="evenodd" class="s1" d="m682 50v-50"/>
				<path id="Ellipse 1" fill-rule="evenodd" class="s2" d="m681 35.9c6.4 0 11.5 5.2 11.5 11.6 0 6.3-5.1 11.5-11.5 11.5-6.4 0-11.5-5.2-11.5-11.5 0-6.4 5.1-11.6 11.5-11.6z"/>
			</g>
		</g>
		<g id="3">
			<g id="line copy">
				<path id="Shape 2" fill-rule="evenodd" class="s1" d="m879 326v-50"/>
				<path id="Ellipse 1" fill-rule="evenodd" class="s2" d="m878 311.9c6.4 0 11.5 5.2 11.5 11.6 0 6.3-5.1 11.5-11.5 11.5-6.4 0-11.5-5.2-11.5-11.5 0-6.4 5.1-11.6 11.5-11.6z"/>
			</g>
		</g>
		<g id="4">
			<g id="line copy">
				<path id="Shape 2" fill-rule="evenodd" class="s1" d="m838 476v-50"/>
				<path id="Ellipse 1" fill-rule="evenodd" class="s2" d="m837 461.9c6.4 0 11.5 5.2 11.5 11.6 0 6.3-5.1 11.5-11.5 11.5-6.4 0-11.5-5.2-11.5-11.5 0-6.4 5.1-11.6 11.5-11.6z"/>
			</g>
		</g>
	</g>
</svg>