<svg version="1.2" xmlns="http://www.w3.org/2000/svg" viewBox="0 0 562 1069" width="562" height="1069">
	<title>Vector Smart Object</title>
	<style>
		.s0 { fill: #ffffff } 
	</style>
	<g id="—ÎÓÈ_1">
		<g id="&lt;Group&gt;">
			<g id="&lt;Group&gt;">
				<path id="&lt;Path&gt;" class="s0" d="m280.5 1059.1c-11 0-20-8.9-20-20v-459.5c0-11.1 9-20 20-20 11 0 20 8.9 20 20v459.5c0 11.1-9 20-20 20z"/>
			</g>
			<path id="&lt;Path&gt;" class="s0" d="m479.7 82.9c-53.1-53-123.6-82.3-198.7-82.3-75.1 0-145.6 29.3-198.7 82.3-53.1 53.1-82.3 123.7-82.3 198.7v266c0 75.1 29.2 145.6 82.3 198.7 43.4 43.4 98.5 70.9 158.2 79.4v-40.5c-49-8.2-94.1-31.3-129.9-67.2-45.5-45.5-70.6-106-70.6-170.4v-266c0-64.3 25.1-124.9 70.6-170.4 45.5-45.5 106-70.6 170.4-70.6 64.4 0 124.9 25.1 170.4 70.6 45.5 45.5 70.6 106.1 70.6 170.4v266c0 64.4-25.1 124.9-70.6 170.4-36.1 36.1-81.5 59.3-130.9 67.4v40.5c60.1-8.4 115.6-35.9 159.2-79.6 53.1-53.1 82.3-123.6 82.3-198.7v-266c0-75-29.2-145.6-82.3-198.7z"/>
			<g id="&lt;Group&gt;">
				<path id="&lt;Path&gt;" class="s0" d="m280.5 1068.3l-122.3-130c-7.6-8-7.2-20.7 0.8-28.2 8.1-7.6 20.7-7.2 28.3 0.8l93.2 99 93.2-99c7.6-8 20.2-8.4 28.3-0.8 8 7.5 8.4 20.2 0.8 28.2z"/>
			</g>
			<path id="&lt;Path&gt;" class="s0" d="m279 319c-19.3 0-35-15.7-35-35v-95.4c0-19.3 15.7-35 35-35 19.3 0 35 15.7 35 35v95.4c0 19.3-15.7 35-35 35z"/>
		</g>
	</g>
</svg>