<svg version="1.2" xmlns="http://www.w3.org/2000/svg" viewBox="0 0 393 245" width="393" height="245">
	<title>Vector Smart Object</title>
	<style>
		.s0 { fill: #ffffff;stroke: #ffffff;stroke-linecap: round;stroke-linejoin: round;stroke-width: 2 } 
		.s1 { fill: #ffffff;stroke: #ffffff;stroke-linecap: round;stroke-linejoin: round;stroke-width: 4 } 
		.s2 { fill: none;stroke: #ffffff;stroke-linecap: round;stroke-linejoin: round;stroke-width: 12 } 
	</style>
	<g id="ò‡_1">
		<g id="&lt;Group&gt;">
			<g id="&lt;Group&gt;">
				<path id="&lt;Compound Path&gt;" class="s0" d="m66.5 58.3v-5.2c0-14.2 6.6-29.1 37.1-29.1 26.1 0 36.7 11.2 36.7 28.4v4.5c0 13.8-6.9 20.2-16 23v0.2c10.1 2.9 19.2 9 19.2 23.7v9.5c0 19.9-10.1 32.6-40.2 32.6-29.3 0-38.4-12.7-38.4-29.6v-4.5h28.4v5.1c0 5.6 1.9 10.6 9.8 10.6 7.8 0 9.7-5.3 9.7-11.4v-12.4c0-9.6-3.8-13.4-15.9-13.4h-8.5v-19.1h8.9c9.9 0 13.5-2.7 13.5-11.8v-7.1c0-5.7-1.1-10.1-8.1-10.1-7.1 0-8.7 4.1-8.7 9.7v6.4z"/>
				<path id="&lt;Compound Path&gt;" fill-rule="evenodd" class="s0" d="m204.7 54.8v-2c0-5.4-1.5-10-8.7-10-7.3 0-9.5 4-9.5 13.5v16.2c4.9-5.1 12.1-7.7 21.6-7.7 20.3 0 27.7 12.2 27.7 27.9v20.4c0 18.4-9.7 32.8-40.1 32.8-31.6 0-39.6-15.7-39.6-33.2v-52.3c0-20.1 8.2-36.4 39.9-36.4 33.8 0 37.6 18.6 37.6 29.8v1zm0.4 61.5v-20.6c0-7-2-11-9.1-11-6.5 0-9.5 3-9.5 11.2v20.4c0 6.2 1.8 11.1 9.4 11.1 7.2 0 9.2-4.5 9.2-11.1z"/>
				<path id="&lt;Compound Path&gt;" fill-rule="evenodd" class="s0" d="m328 56.3v56.2c0 18.5-8.8 33.5-40.7 33.5-31 0-39-15.5-39-33.4v-55.3c0-21.4 13.9-33.3 40-33.3 26.2 0 39.7 11.9 39.7 32.3zm-49.4-1.9v60.9c0 6.9 2.6 10.9 9.5 10.9 6.8 0 9.2-4.3 9.2-11.2v-61c0-5.9-2.1-10.1-9.2-10.1-6.8 0-9.5 3.9-9.5 10.5z"/>
			</g>
			<path id="&lt;Path&gt;" class="s1" d="m245 198.2c1.7 1 1.7 3.5 0 4.6l-16.3 9.8-48.6 29.2c-1.8 1.1-4-0.2-4-2.3v-18.1c0-1.5-1.3-2.7-2.8-2.7q-3.3 0.1-6.7 0.1c-90.9 0-164.6-37.9-164.6-84.6 0-22.2 16.5-42.3 43.6-57.4 2.8-1.6 5.5 2.3 3 4.4-10.9 9.4-17.1 20-17.1 31.4 0 36 62.8 65.4 141.8 67.3 1.5 0 2.8-1.2 2.8-2.7v-15.8c0-2.1 2.2-3.3 4-2.3l32.3 19.5z"/>
			<path id="&lt;Path&gt;" class="s1" d="m358.9 130.9c0 31.3-28.9 57.7-68.3 65.9l-33.7-21.9c51.6-2.1 92.5-29.7 92.5-63.4q-0.1-3.1-0.5-6.1c-0.2-1.6 1.9-2.3 2.7-1 4.7 8.2 7.3 17.1 7.3 26.5z"/>
			<path id="&lt;Path&gt;" class="s2" d="m386.8 27.8c0 12.1-9.8 21.9-21.9 21.9-12.2 0-22-9.8-22-21.9 0-12.1 9.8-21.9 22-21.9 12.1 0 21.9 9.8 21.9 21.9z"/>
		</g>
	</g>
</svg>