<svg version="1.2" xmlns="http://www.w3.org/2000/svg" viewBox="0 0 273 268" width="273" height="268">
	<title>Vector Smart Object</title>
	<style>
		.s0 { fill: #ffffff } 
	</style>
	<g id="—ÎÓÈ_1">
		<g id="&lt;Group&gt;">
			<path id="&lt;Compound Path&gt;" fill-rule="evenodd" class="s0" d="m136.4 267.9c-36.4 0-70.6-13.9-96.3-39.1-25.7-25.2-39.9-58.8-39.9-94.5 0-35.6 14.2-69.2 39.9-94.4 25.7-25.2 59.9-39.1 96.3-39.1 36.4 0 70.6 13.9 96.3 39.1 25.7 25.2 39.9 58.8 39.9 94.4 0 35.7-14.2 69.3-39.9 94.5-25.7 25.2-59.9 39.1-96.3 39.1zm0-249.9c-65.4 0-118.6 52.2-118.6 116.3 0 64.2 53.2 116.4 118.6 116.4 65.4 0 118.6-52.2 118.6-116.4 0-64.1-53.2-116.3-118.6-116.3z"/>
			<path id="&lt;Path&gt;" class="s0" d="m154.1 168.8c-1.1 1.3-2.3 2.2-3.6 2.5-1.8 0.4-3.4 0-4.5-0.4-16.4-6.5-28.4-18.3-28.4-18.3 0 0-12-11.8-18.6-27.9-0.4-1-0.9-2.6-0.5-4.3 0.4-1.3 1.2-2.5 2.6-3.6 14.7-12.1 19.1-13.3 16-19.6-14-28-14.1-30.8-17.3-32.1-8.5-3.3-18.1 2.7-19.5 3.6-13.7 8.6-16.6 26.5-16.3 32.8 0.8 19 11.3 45.2 34.1 69.9 24.8 24.5 52.6 36.3 71.7 33.8 2.4-0.3 25.1-2.5 33.4-16 0.9-1.5 7-10.9 3.6-19.1-1.3-3.2-3.4-4.9-32.7-17-1.5-0.6-4.5-2.7-20 15.7z"/>
		</g>
	</g>
</svg>