<svg version="1.2" xmlns="http://www.w3.org/2000/svg" viewBox="0 0 273 268" width="273" height="268">
	<title>Vector Smart Object</title>
	<style>
		.s0 { fill: #ffffff } 
	</style>
	<g id="—ÎÓÈ_1">
		<g id="&lt;Group&gt;">
			<path id="&lt;Compound Path&gt;" fill-rule="evenodd" class="s0" d="m136.5 267.7c-36.3 0-70.5-13.9-96.3-39.2-25.7-25.2-39.8-58.7-39.8-94.4 0-35.7 14.1-69.2 39.8-94.4 25.8-25.3 60-39.2 96.3-39.2 36.4 0 70.6 13.9 96.3 39.2 25.8 25.2 39.9 58.7 39.9 94.4 0 35.7-14.1 69.2-39.9 94.4-25.7 25.3-59.9 39.2-96.3 39.2zm0-249.9c-65.4 0-118.6 52.2-118.6 116.3 0 64.1 53.2 116.3 118.6 116.3 65.4 0 118.7-52.2 118.7-116.3 0-64.1-53.3-116.3-118.7-116.3z"/>
			<path id="&lt;Path&gt;" class="s0" d="m163.9 76.9c5.4-0.1 10.9 0 16.3 0 0.7 0 1.4 0 2.3 0v-27.8c-2.9-0.3-6-0.7-9-0.8-5.6-0.3-11.2-0.6-16.8-0.4-8.6 0.1-16.7 2.2-23.7 7.1-8.1 5.8-12.6 13.8-14.3 23.3-0.7 3.9-0.8 7.9-0.9 11.9-0.2 6.2-0.1 12.5-0.1 18.7v2.3h-27.1v31.1h27v78.1h32.9v-78h26.9c1.4-10.3 2.7-20.5 4.2-31.2-2.2 0-4.1 0-6.1 0-7.6 0.1-25.2 0-25.2 0 0 0 0.1-15.4 0.3-22 0.3-9.2 5.8-12 13.3-12.3z"/>
		</g>
	</g>
</svg>